<svg width="1728" height="728" viewBox="0 0 1728 728" fill="none" xmlns="http://www.w3.org/2000/svg">
<path d="M-68 436.633C-68 436.633 -30.4128 486.033 -8.48372 559.985C13.4453 633.937 9.68297 719.521 66.4052 726.805C123.128 734.088 139.769 535.42 213.524 535.42C287.279 535.42 387.158 731.12 468.913 712.534C550.668 693.947 650.447 532.563 707.837 498.869C765.228 465.175 880.866 524.636 982.037 429.498C1083.21 334.36 1102.91 334.36 1140.25 334.36C1177.59 334.36 1206.99 393.369 1258.81 436.633C1310.64 479.897 1421.47 503.23 1494.3 384.307C1567.13 265.384 1620.02 20.0757 1666.63 3.42648C1713.24 -13.2227 1734.49 61.2598 1760 61.2598" stroke="url(#paint0_linear_13_2)" stroke-width="2" stroke-linecap="round" stroke-linejoin="round"/>
<defs>
<linearGradient id="paint0_linear_13_2" x1="101.445" y1="-64.8236" x2="665.006" y2="1118.77" gradientUnits="userSpaceOnUse">
<stop stop-color="#C54A92"/>
<stop offset="1" stop-color="#2E62EB"/>
</linearGradient>
</defs>
</svg>
