<svg width="1728" height="728" viewBox="0 0 1728 728" fill="none" xmlns="http://www.w3.org/2000/svg">
<path d="M-716 436.633C-716 436.633 -665.089 486.033 -635.386 559.985C-605.683 633.937 -610.78 719.521 -533.95 726.805C-457.12 734.088 -434.579 535.42 -334.68 535.42C-234.78 535.42 -99.4949 731.12 11.2412 712.534C121.977 693.947 257.126 532.563 334.861 498.869C412.595 465.175 569.226 524.636 706.26 429.498C843.295 334.36 869.977 334.36 920.556 334.36C971.135 334.36 1010.96 393.369 1081.15 436.633C1151.35 479.897 1301.47 503.23 1400.12 384.307C1498.76 265.384 1570.4 20.0757 1633.53 3.42648C1696.66 -13.2227 1725.45 61.2598 1760 61.2598" stroke="url(#paint0_linear_13_3)" stroke-width="2" stroke-linecap="round" stroke-linejoin="round"/>
<defs>
<linearGradient id="paint0_linear_13_3" x1="-486.489" y1="-64.8236" x2="-32.225" y2="1227.42" gradientUnits="userSpaceOnUse">
<stop stop-color="#C54A92"/>
<stop offset="1" stop-color="#2E62EB"/>
</linearGradient>
</defs>
</svg>
