<svg width="73" height="61" viewBox="0 0 73 61" fill="none" xmlns="http://www.w3.org/2000/svg">
<g opacity="0.1">
<path d="M11.6697 10.5754L25.5218 6.05176L27.0505 18.125L33.1966 39.2455L43.3361 49.1792L42.4314 51.3188H34.6006C34.6006 51.3188 32.3543 60.366 23.9619 60.366C15.8191 60.366 14.1656 54.1613 14.1656 54.1613L11.0145 53.4583L10.4529 49.9128L3.96365 46.7645L0.875 37.7173L3.96365 28.67V19.6227L11.6697 10.5754Z" fill="url(#paint0_linear_1_95)"/>
<path d="M11.6697 10.5754L25.5218 6.05176L27.0505 18.125L33.1966 39.2455L43.3361 49.1792L42.4314 51.3188H34.6006C34.6006 51.3188 32.3543 60.366 23.9619 60.366C15.8191 60.366 14.1656 54.1613 14.1656 54.1613L11.0145 53.4583L10.4529 49.9128L3.96365 46.7645L0.875 37.7173L3.96365 28.67V19.6227L11.6697 10.5754Z" fill="#D94FD5"/>
</g>
<path fill-rule="evenodd" clip-rule="evenodd" d="M16.3752 50.7989C16.3752 50.5597 16.5732 50.3657 16.8174 50.3657H41.589C41.8332 50.3657 42.0312 50.5597 42.0312 50.7989C42.0312 51.0382 41.8332 51.2321 41.589 51.2321H16.8174C16.5732 51.2321 16.3752 51.0382 16.3752 50.7989Z" fill="url(#paint1_linear_1_95)"/>
<path fill-rule="evenodd" clip-rule="evenodd" d="M16.3752 50.7989C16.3752 50.5597 16.5732 50.3657 16.8174 50.3657H41.589C41.8332 50.3657 42.0312 50.5597 42.0312 50.7989C42.0312 51.0382 41.8332 51.2321 41.589 51.2321H16.8174C16.5732 51.2321 16.3752 51.0382 16.3752 50.7989Z" fill="#D94FD5"/>
<path fill-rule="evenodd" clip-rule="evenodd" d="M9.3449 13.1932C9.5405 13.3364 9.58055 13.6079 9.43434 13.7995L4.90497 19.7361V28.2726C4.90497 28.328 4.8941 28.383 4.87294 28.4344L1.37723 36.9362L4.83415 47.037L10.0128 50.4393C10.2156 50.5725 10.2698 50.8416 10.1338 51.0404C9.99777 51.2391 9.72309 51.2921 9.52026 51.1589L4.21652 47.6744C4.13542 47.6212 4.0746 47.5431 4.04355 47.4524L0.486928 37.0602C0.453477 36.9625 0.4567 36.8563 0.496016 36.7606L4.02062 28.1886V19.5921C4.02062 19.4986 4.05149 19.4076 4.10862 19.3327L8.726 13.2808C8.87221 13.0892 9.1493 13.0499 9.3449 13.1932Z" fill="url(#paint2_linear_1_95)"/>
<path fill-rule="evenodd" clip-rule="evenodd" d="M9.3449 13.1932C9.5405 13.3364 9.58055 13.6079 9.43434 13.7995L4.90497 19.7361V28.2726C4.90497 28.328 4.8941 28.383 4.87294 28.4344L1.37723 36.9362L4.83415 47.037L10.0128 50.4393C10.2156 50.5725 10.2698 50.8416 10.1338 51.0404C9.99777 51.2391 9.72309 51.2921 9.52026 51.1589L4.21652 47.6744C4.13542 47.6212 4.0746 47.5431 4.04355 47.4524L0.486928 37.0602C0.453477 36.9625 0.4567 36.8563 0.496016 36.7606L4.02062 28.1886V19.5921C4.02062 19.4986 4.05149 19.4076 4.10862 19.3327L8.726 13.2808C8.87221 13.0892 9.1493 13.0499 9.3449 13.1932Z" fill="#D94FD5"/>
<path fill-rule="evenodd" clip-rule="evenodd" d="M40.2502 3.95602C40.277 4.19383 40.1019 4.40789 39.8592 4.43414L25.7795 5.95664L15.0039 9.82039C14.7745 9.90262 14.5206 9.78715 14.4367 9.56247C14.3527 9.3378 14.4706 9.089 14.6999 9.00677L25.5258 5.125C25.5592 5.11303 25.5939 5.10504 25.6293 5.10122L39.7622 3.57297C40.0049 3.54672 40.2234 3.71822 40.2502 3.95602Z" fill="url(#paint3_linear_1_95)"/>
<path fill-rule="evenodd" clip-rule="evenodd" d="M40.2502 3.95602C40.277 4.19383 40.1019 4.40789 39.8592 4.43414L25.7795 5.95664L15.0039 9.82039C14.7745 9.90262 14.5206 9.78715 14.4367 9.56247C14.3527 9.3378 14.4706 9.089 14.6999 9.00677L25.5258 5.125C25.5592 5.11303 25.5939 5.10504 25.6293 5.10122L39.7622 3.57297C40.0049 3.54672 40.2234 3.71822 40.2502 3.95602Z" fill="#D94FD5"/>
<path fill-rule="evenodd" clip-rule="evenodd" d="M46.4668 4.74338C46.5323 4.5129 46.7761 4.37808 47.0113 4.44225L62.9226 8.78251C62.9959 8.80252 63.0628 8.84075 63.1166 8.89351L70.1987 15.8318C70.2696 15.9013 70.3143 15.9923 70.3254 16.09L72.1038 31.6782C72.1132 31.7613 72.098 31.8453 72.0598 31.9201L69.0024 37.9109C68.9537 38.0061 68.871 38.0805 68.7699 38.1198L61.0639 41.1152C61.0028 41.1389 60.937 41.149 60.8714 41.1447L56.092 40.8326L54.4036 47.4201C54.377 47.5241 54.3119 47.6147 54.2211 47.6744L48.9173 51.1588C48.7145 51.292 48.4398 51.239 48.3038 51.0403C48.1678 50.8416 48.2219 50.5725 48.4248 50.4392L53.5873 47.0475L55.3242 40.2708C55.3763 40.0677 55.5692 39.9301 55.7825 39.944L60.8306 40.2738L68.2869 37.3755L71.2104 31.6472L69.4638 16.3371L62.5734 9.58663L46.7741 5.2769C46.5389 5.21273 46.4013 4.97387 46.4668 4.74338Z" fill="url(#paint4_linear_1_95)"/>
<path fill-rule="evenodd" clip-rule="evenodd" d="M46.4668 4.74338C46.5323 4.5129 46.7761 4.37808 47.0113 4.44225L62.9226 8.78251C62.9959 8.80252 63.0628 8.84075 63.1166 8.89351L70.1987 15.8318C70.2696 15.9013 70.3143 15.9923 70.3254 16.09L72.1038 31.6782C72.1132 31.7613 72.098 31.8453 72.0598 31.9201L69.0024 37.9109C68.9537 38.0061 68.871 38.0805 68.7699 38.1198L61.0639 41.1152C61.0028 41.1389 60.937 41.149 60.8714 41.1447L56.092 40.8326L54.4036 47.4201C54.377 47.5241 54.3119 47.6147 54.2211 47.6744L48.9173 51.1588C48.7145 51.292 48.4398 51.239 48.3038 51.0403C48.1678 50.8416 48.2219 50.5725 48.4248 50.4392L53.5873 47.0475L55.3242 40.2708C55.3763 40.0677 55.5692 39.9301 55.7825 39.944L60.8306 40.2738L68.2869 37.3755L71.2104 31.6472L69.4638 16.3371L62.5734 9.58663L46.7741 5.2769C46.5389 5.21273 46.4013 4.97387 46.4668 4.74338Z" fill="#D94FD5"/>
<path fill-rule="evenodd" clip-rule="evenodd" d="M47.3517 23.5441C47.5705 23.4379 47.8358 23.5257 47.9442 23.7401L56.1494 39.9701C56.2578 40.1845 56.1682 40.4444 55.9494 40.5506C55.7305 40.6568 55.4653 40.5691 55.3569 40.3547L47.1517 24.1246C47.0433 23.9102 47.1328 23.6503 47.3517 23.5441Z" fill="url(#paint5_linear_1_95)"/>
<path fill-rule="evenodd" clip-rule="evenodd" d="M47.3517 23.5441C47.5705 23.4379 47.8358 23.5257 47.9442 23.7401L56.1494 39.9701C56.2578 40.1845 56.1682 40.4444 55.9494 40.5506C55.7305 40.6568 55.4653 40.5691 55.3569 40.3547L47.1517 24.1246C47.0433 23.9102 47.1328 23.6503 47.3517 23.5441Z" fill="#D94FD5"/>
<path fill-rule="evenodd" clip-rule="evenodd" d="M59.418 29.573C59.6497 29.6485 59.7751 29.8937 59.6981 30.1207L56.1727 40.5129C56.0957 40.7399 55.8454 40.8628 55.6136 40.7873C55.3819 40.7119 55.2565 40.4667 55.3335 40.2396L58.8589 29.8475C58.9359 29.6204 59.1862 29.4976 59.418 29.573Z" fill="url(#paint6_linear_1_95)"/>
<path fill-rule="evenodd" clip-rule="evenodd" d="M59.418 29.573C59.6497 29.6485 59.7751 29.8937 59.6981 30.1207L56.1727 40.5129C56.0957 40.7399 55.8454 40.8628 55.6136 40.7873C55.3819 40.7119 55.2565 40.4667 55.3335 40.2396L58.8589 29.8475C58.9359 29.6204 59.1862 29.4976 59.418 29.573Z" fill="#D94FD5"/>
<path fill-rule="evenodd" clip-rule="evenodd" d="M64.3814 29.5981C64.599 29.4895 64.8653 29.5742 64.9762 29.7873L69.0008 37.5203C69.1117 37.7334 69.0253 37.9943 68.8077 38.103C68.5902 38.2117 68.3239 38.127 68.213 37.9138L64.1884 30.1809C64.0774 29.9677 64.1639 29.7068 64.3814 29.5981Z" fill="url(#paint7_linear_1_95)"/>
<path fill-rule="evenodd" clip-rule="evenodd" d="M64.3814 29.5981C64.599 29.4895 64.8653 29.5742 64.9762 29.7873L69.0008 37.5203C69.1117 37.7334 69.0253 37.9943 68.8077 38.103C68.5902 38.2117 68.3239 38.127 68.213 37.9138L64.1884 30.1809C64.0774 29.9677 64.1639 29.7068 64.3814 29.5981Z" fill="#D94FD5"/>
<path fill-rule="evenodd" clip-rule="evenodd" d="M70.2822 15.9455C70.3907 16.1599 70.3012 16.4198 70.0824 16.526L66.557 18.2377C66.3381 18.3439 66.0729 18.2563 65.9644 18.0419C65.856 17.8275 65.9455 17.5676 66.1643 17.4614L69.6897 15.7497C69.9085 15.6435 70.1738 15.7312 70.2822 15.9455Z" fill="url(#paint8_linear_1_95)"/>
<path fill-rule="evenodd" clip-rule="evenodd" d="M70.2822 15.9455C70.3907 16.1599 70.3012 16.4198 70.0824 16.526L66.557 18.2377C66.3381 18.3439 66.0729 18.2563 65.9644 18.0419C65.856 17.8275 65.9455 17.5676 66.1643 17.4614L69.6897 15.7497C69.9085 15.6435 70.1738 15.7312 70.2822 15.9455Z" fill="#D94FD5"/>
<path fill-rule="evenodd" clip-rule="evenodd" d="M48.2289 21.3341C48.2289 21.0948 48.4269 20.9009 48.6711 20.9009H53.9748C54.219 20.9009 54.417 21.0948 54.417 21.3341C54.417 21.5733 54.219 21.7673 53.9748 21.7673H48.6711C48.4269 21.7673 48.2289 21.5733 48.2289 21.3341Z" fill="url(#paint9_linear_1_95)"/>
<path fill-rule="evenodd" clip-rule="evenodd" d="M48.2289 21.3341C48.2289 21.0948 48.4269 20.9009 48.6711 20.9009H53.9748C54.219 20.9009 54.417 21.0948 54.417 21.3341C54.417 21.5733 54.219 21.7673 53.9748 21.7673H48.6711C48.4269 21.7673 48.2289 21.5733 48.2289 21.3341Z" fill="#D94FD5"/>
<path fill-rule="evenodd" clip-rule="evenodd" d="M43.2954 7.03024C43.5364 6.99136 43.7639 7.15121 43.8036 7.38728L45.5507 17.7794C45.5904 18.0155 45.4272 18.2384 45.1863 18.2773C44.9453 18.3162 44.7178 18.1563 44.6781 17.9202L42.931 7.52808C42.8913 7.29201 43.0545 7.06912 43.2954 7.03024Z" fill="url(#paint10_linear_1_95)"/>
<path fill-rule="evenodd" clip-rule="evenodd" d="M43.2954 7.03024C43.5364 6.99136 43.7639 7.15121 43.8036 7.38728L45.5507 17.7794C45.5904 18.0155 45.4272 18.2384 45.1863 18.2773C44.9453 18.3162 44.7178 18.1563 44.6781 17.9202L42.931 7.52808C42.8913 7.29201 43.0545 7.06912 43.2954 7.03024Z" fill="#D94FD5"/>
<path fill-rule="evenodd" clip-rule="evenodd" d="M41.0234 6.07696C41.1986 6.2436 41.2028 6.51786 41.0327 6.68953L34.8242 12.9554C34.6541 13.1271 34.3742 13.1311 34.1989 12.9645C34.0237 12.7978 34.0196 12.5236 34.1897 12.3519L40.3982 6.08605C40.5683 5.91439 40.8482 5.91031 41.0234 6.07696Z" fill="url(#paint11_linear_1_95)"/>
<path fill-rule="evenodd" clip-rule="evenodd" d="M41.0234 6.07696C41.1986 6.2436 41.2028 6.51786 41.0327 6.68953L34.8242 12.9554C34.6541 13.1271 34.3742 13.1311 34.1989 12.9645C34.0237 12.7978 34.0196 12.5236 34.1897 12.3519L40.3982 6.08605C40.5683 5.91439 40.8482 5.91031 41.0234 6.07696Z" fill="#D94FD5"/>
<path fill-rule="evenodd" clip-rule="evenodd" d="M25.5422 5.1196C25.7747 5.04627 26.0238 5.17143 26.0987 5.39916L27.877 10.8092C27.9518 11.0369 27.8241 11.281 27.5916 11.3543C27.3592 11.4277 27.11 11.3025 27.0352 11.0748L25.2569 5.66474C25.182 5.43701 25.3098 5.19294 25.5422 5.1196Z" fill="url(#paint12_linear_1_95)"/>
<path fill-rule="evenodd" clip-rule="evenodd" d="M25.5422 5.1196C25.7747 5.04627 26.0238 5.17143 26.0987 5.39916L27.877 10.8092C27.9518 11.0369 27.8241 11.281 27.5916 11.3543C27.3592 11.4277 27.11 11.3025 27.0352 11.0748L25.2569 5.66474C25.182 5.43701 25.3098 5.19294 25.5422 5.1196Z" fill="#D94FD5"/>
<path fill-rule="evenodd" clip-rule="evenodd" d="M63.175 8.96411C63.3078 9.16483 63.2495 9.43309 63.0446 9.56329L48.0381 19.0996C47.8333 19.2298 47.5594 19.1726 47.4265 18.9719C47.2936 18.7712 47.352 18.5029 47.5569 18.3727L62.5634 8.83641C62.7682 8.70622 63.0421 8.76339 63.175 8.96411Z" fill="url(#paint13_linear_1_95)"/>
<path fill-rule="evenodd" clip-rule="evenodd" d="M63.175 8.96411C63.3078 9.16483 63.2495 9.43309 63.0446 9.56329L48.0381 19.0996C47.8333 19.2298 47.5594 19.1726 47.4265 18.9719C47.2936 18.7712 47.352 18.5029 47.5569 18.3727L62.5634 8.83641C62.7682 8.70622 63.0421 8.76339 63.175 8.96411Z" fill="#D94FD5"/>
<path fill-rule="evenodd" clip-rule="evenodd" d="M45.1144 18.3137C43.4116 18.3137 42.0311 19.6661 42.0311 21.3343C42.0311 23.0026 43.4116 24.355 45.1144 24.355C46.8172 24.355 48.1976 23.0026 48.1976 21.3343C48.1976 19.6661 46.8172 18.3137 45.1144 18.3137ZM41.1468 21.3343C41.1468 19.1876 42.9231 17.4473 45.1144 17.4473C47.3056 17.4473 49.082 19.1876 49.082 21.3343C49.082 23.4811 47.3056 25.2214 45.1144 25.2214C42.9231 25.2214 41.1468 23.4811 41.1468 21.3343Z" fill="url(#paint14_linear_1_95)"/>
<path fill-rule="evenodd" clip-rule="evenodd" d="M45.1144 18.3137C43.4116 18.3137 42.0311 19.6661 42.0311 21.3343C42.0311 23.0026 43.4116 24.355 45.1144 24.355C46.8172 24.355 48.1976 23.0026 48.1976 21.3343C48.1976 19.6661 46.8172 18.3137 45.1144 18.3137ZM41.1468 21.3343C41.1468 19.1876 42.9231 17.4473 45.1144 17.4473C47.3056 17.4473 49.082 19.1876 49.082 21.3343C49.082 23.4811 47.3056 25.2214 45.1144 25.2214C42.9231 25.2214 41.1468 23.4811 41.1468 21.3343Z" fill="#D94FD5"/>
<path fill-rule="evenodd" clip-rule="evenodd" d="M45.1144 47.7785C43.4116 47.7785 42.0311 49.1309 42.0311 50.7992C42.0311 52.4674 43.4116 53.8198 45.1144 53.8198C46.8172 53.8198 48.1976 52.4674 48.1976 50.7992C48.1976 49.1309 46.8172 47.7785 45.1144 47.7785ZM41.1468 50.7992C41.1468 48.6524 42.9231 46.9121 45.1144 46.9121C47.3056 46.9121 49.082 48.6524 49.082 50.7992C49.082 52.9459 47.3056 54.6862 45.1144 54.6862C42.9231 54.6862 41.1468 52.9459 41.1468 50.7992Z" fill="url(#paint15_linear_1_95)"/>
<path fill-rule="evenodd" clip-rule="evenodd" d="M45.1144 47.7785C43.4116 47.7785 42.0311 49.1309 42.0311 50.7992C42.0311 52.4674 43.4116 53.8198 45.1144 53.8198C46.8172 53.8198 48.1976 52.4674 48.1976 50.7992C48.1976 49.1309 46.8172 47.7785 45.1144 47.7785ZM41.1468 50.7992C41.1468 48.6524 42.9231 46.9121 45.1144 46.9121C47.3056 46.9121 49.082 48.6524 49.082 50.7992C49.082 52.9459 47.3056 54.6862 45.1144 54.6862C42.9231 54.6862 41.1468 52.9459 41.1468 50.7992Z" fill="#D94FD5"/>
<path fill-rule="evenodd" clip-rule="evenodd" d="M43.3673 0.983099C41.6645 0.983099 40.2841 2.3355 40.2841 4.00376C40.2841 5.67203 41.6645 7.02443 43.3673 7.02443C45.0702 7.02443 46.4506 5.67203 46.4506 4.00376C46.4506 2.3355 45.0702 0.983099 43.3673 0.983099ZM39.3997 4.00376C39.3997 1.857 41.1761 0.116699 43.3673 0.116699C45.5586 0.116699 47.3349 1.857 47.3349 4.00376C47.3349 6.15053 45.5586 7.89082 43.3673 7.89082C41.1761 7.89082 39.3997 6.15053 39.3997 4.00376Z" fill="url(#paint16_linear_1_95)"/>
<path fill-rule="evenodd" clip-rule="evenodd" d="M43.3673 0.983099C41.6645 0.983099 40.2841 2.3355 40.2841 4.00376C40.2841 5.67203 41.6645 7.02443 43.3673 7.02443C45.0702 7.02443 46.4506 5.67203 46.4506 4.00376C46.4506 2.3355 45.0702 0.983099 43.3673 0.983099ZM39.3997 4.00376C39.3997 1.857 41.1761 0.116699 43.3673 0.116699C45.5586 0.116699 47.3349 1.857 47.3349 4.00376C47.3349 6.15053 45.5586 7.89082 43.3673 7.89082C41.1761 7.89082 39.3997 6.15053 39.3997 4.00376Z" fill="#D94FD5"/>
<path fill-rule="evenodd" clip-rule="evenodd" d="M13.2919 47.7785C11.5891 47.7785 10.2087 49.1309 10.2087 50.7992C10.2087 52.4674 11.5891 53.8198 13.2919 53.8198C14.9948 53.8198 16.3752 52.4674 16.3752 50.7992C16.3752 49.1309 14.9948 47.7785 13.2919 47.7785ZM9.32434 50.7992C9.32434 48.6524 11.1007 46.9121 13.2919 46.9121C15.4832 46.9121 17.2596 48.6524 17.2596 50.7992C17.2596 52.9459 15.4832 54.6862 13.2919 54.6862C11.1007 54.6862 9.32434 52.9459 9.32434 50.7992Z" fill="url(#paint17_linear_1_95)"/>
<path fill-rule="evenodd" clip-rule="evenodd" d="M13.2919 47.7785C11.5891 47.7785 10.2087 49.1309 10.2087 50.7992C10.2087 52.4674 11.5891 53.8198 13.2919 53.8198C14.9948 53.8198 16.3752 52.4674 16.3752 50.7992C16.3752 49.1309 14.9948 47.7785 13.2919 47.7785ZM9.32434 50.7992C9.32434 48.6524 11.1007 46.9121 13.2919 46.9121C15.4832 46.9121 17.2596 48.6524 17.2596 50.7992C17.2596 52.9459 15.4832 54.6862 13.2919 54.6862C11.1007 54.6862 9.32434 52.9459 9.32434 50.7992Z" fill="#D94FD5"/>
<path fill-rule="evenodd" clip-rule="evenodd" d="M16.8174 26.9636C15.1146 26.9636 13.7341 28.316 13.7341 29.9842C13.7341 31.6525 15.1146 33.0049 16.8174 33.0049C18.5202 33.0049 19.9007 31.6525 19.9007 29.9842C19.9007 28.316 18.5202 26.9636 16.8174 26.9636ZM12.8498 29.9842C12.8498 27.8375 14.6262 26.0972 16.8174 26.0972C19.0086 26.0972 20.785 27.8375 20.785 29.9842C20.785 32.131 19.0086 33.8713 16.8174 33.8713C14.6262 33.8713 12.8498 32.131 12.8498 29.9842Z" fill="url(#paint18_linear_1_95)"/>
<path fill-rule="evenodd" clip-rule="evenodd" d="M16.8174 26.9636C15.1146 26.9636 13.7341 28.316 13.7341 29.9842C13.7341 31.6525 15.1146 33.0049 16.8174 33.0049C18.5202 33.0049 19.9007 31.6525 19.9007 29.9842C19.9007 28.316 18.5202 26.9636 16.8174 26.9636ZM12.8498 29.9842C12.8498 27.8375 14.6262 26.0972 16.8174 26.0972C19.0086 26.0972 20.785 27.8375 20.785 29.9842C20.785 32.131 19.0086 33.8713 16.8174 33.8713C14.6262 33.8713 12.8498 32.131 12.8498 29.9842Z" fill="#D94FD5"/>
<path fill-rule="evenodd" clip-rule="evenodd" d="M37.752 43.5535C37.9253 43.385 38.2053 43.3859 38.3773 43.5557L42.7763 47.896C42.9484 48.0657 42.9474 48.34 42.7741 48.5086C42.6008 48.6772 42.3209 48.6762 42.1488 48.5064L37.7498 44.1662C37.5777 43.9964 37.5787 43.7221 37.752 43.5535Z" fill="url(#paint19_linear_1_95)"/>
<path fill-rule="evenodd" clip-rule="evenodd" d="M37.752 43.5535C37.9253 43.385 38.2053 43.3859 38.3773 43.5557L42.7763 47.896C42.9484 48.0657 42.9474 48.34 42.7741 48.5086C42.6008 48.6772 42.3209 48.6762 42.1488 48.5064L37.7498 44.1662C37.5777 43.9964 37.5787 43.7221 37.752 43.5535Z" fill="#D94FD5"/>
<path fill-rule="evenodd" clip-rule="evenodd" d="M42.8896 23.5356C43.1133 23.6316 43.2152 23.8871 43.1171 24.1062L38.4686 34.4984C38.3705 34.7175 38.1098 34.8173 37.8861 34.7213C37.6624 34.6252 37.5606 34.3697 37.6586 34.1506L42.3071 23.7585C42.4052 23.5393 42.6659 23.4395 42.8896 23.5356Z" fill="url(#paint20_linear_1_95)"/>
<path fill-rule="evenodd" clip-rule="evenodd" d="M42.8896 23.5356C43.1133 23.6316 43.2152 23.8871 43.1171 24.1062L38.4686 34.4984C38.3705 34.7175 38.1098 34.8173 37.8861 34.7213C37.6624 34.6252 37.5606 34.3697 37.6586 34.1506L42.3071 23.7585C42.4052 23.5393 42.6659 23.4395 42.8896 23.5356Z" fill="#D94FD5"/>
<path fill-rule="evenodd" clip-rule="evenodd" d="M30.0521 24.5724C30.2944 24.5422 30.5157 24.7101 30.5466 24.9474L31.4201 31.6717C31.451 31.9091 31.2796 32.126 31.0373 32.1562C30.7951 32.1864 30.5737 32.0185 30.5429 31.7811L29.6693 25.0568C29.6385 24.8195 29.8099 24.6026 30.0521 24.5724Z" fill="url(#paint21_linear_1_95)"/>
<path fill-rule="evenodd" clip-rule="evenodd" d="M30.0521 24.5724C30.2944 24.5422 30.5157 24.7101 30.5466 24.9474L31.4201 31.6717C31.451 31.9091 31.2796 32.126 31.0373 32.1562C30.7951 32.1864 30.5737 32.0185 30.5429 31.7811L29.6693 25.0568C29.6385 24.8195 29.8099 24.6026 30.0521 24.5724Z" fill="#D94FD5"/>
<path fill-rule="evenodd" clip-rule="evenodd" d="M35.866 18.5983C35.9436 18.3715 36.1943 18.2493 36.4258 18.3253L41.7296 20.0675C41.9611 20.1436 42.0859 20.3891 42.0082 20.616C41.9306 20.8428 41.68 20.965 41.4484 20.889L36.1447 19.1468C35.9131 19.0707 35.7884 18.8252 35.866 18.5983Z" fill="url(#paint22_linear_1_95)"/>
<path fill-rule="evenodd" clip-rule="evenodd" d="M35.866 18.5983C35.9436 18.3715 36.1943 18.2493 36.4258 18.3253L41.7296 20.0675C41.9611 20.1436 42.0859 20.3891 42.0082 20.616C41.9306 20.8428 41.68 20.965 41.4484 20.889L36.1447 19.1468C35.9131 19.0707 35.7884 18.8252 35.866 18.5983Z" fill="#D94FD5"/>
<path fill-rule="evenodd" clip-rule="evenodd" d="M45.1144 24.355C45.3586 24.355 45.5566 24.5489 45.5566 24.7882V47.3147C45.5566 47.554 45.3586 47.7479 45.1144 47.7479C44.8702 47.7479 44.6722 47.554 44.6722 47.3147V24.7882C44.6722 24.5489 44.8702 24.355 45.1144 24.355Z" fill="url(#paint23_linear_1_95)"/>
<path fill-rule="evenodd" clip-rule="evenodd" d="M45.1144 24.355C45.3586 24.355 45.5566 24.5489 45.5566 24.7882V47.3147C45.5566 47.554 45.3586 47.7479 45.1144 47.7479C44.8702 47.7479 44.6722 47.554 44.6722 47.3147V24.7882C44.6722 24.5489 44.8702 24.355 45.1144 24.355Z" fill="#D94FD5"/>
<path fill-rule="evenodd" clip-rule="evenodd" d="M34.5069 50.3657C34.7511 50.3657 34.9491 50.5597 34.9491 50.7989C34.9491 53.4549 33.501 55.7331 31.4181 57.3331C29.3369 58.9317 26.5893 59.8821 23.8995 59.8821C23.6552 59.8821 23.4573 59.6881 23.4573 59.4489C23.4573 59.2096 23.6552 59.0157 23.8995 59.0157C26.3885 59.0157 28.9447 58.1321 30.8725 56.6513C32.7986 55.1718 34.0648 53.125 34.0648 50.7989C34.0648 50.5597 34.2627 50.3657 34.5069 50.3657Z" fill="url(#paint24_linear_1_95)"/>
<path fill-rule="evenodd" clip-rule="evenodd" d="M34.5069 50.3657C34.7511 50.3657 34.9491 50.5597 34.9491 50.7989C34.9491 53.4549 33.501 55.7331 31.4181 57.3331C29.3369 58.9317 26.5893 59.8821 23.8995 59.8821C23.6552 59.8821 23.4573 59.6881 23.4573 59.4489C23.4573 59.2096 23.6552 59.0157 23.8995 59.0157C26.3885 59.0157 28.9447 58.1321 30.8725 56.6513C32.7986 55.1718 34.0648 53.125 34.0648 50.7989C34.0648 50.5597 34.2627 50.3657 34.5069 50.3657Z" fill="#D94FD5"/>
<path fill-rule="evenodd" clip-rule="evenodd" d="M15.069 54.1776C15.0326 53.9743 14.8515 53.8198 14.6335 53.8198C14.3893 53.8198 14.1913 54.0138 14.1913 54.253H14.6335C14.1913 54.253 14.1913 54.2537 14.1913 54.2543L14.1914 54.2556L14.1914 54.2581L14.1915 54.2632L14.1918 54.2735C14.1921 54.2803 14.1926 54.2872 14.1933 54.2942C14.1945 54.3081 14.1964 54.3222 14.1989 54.3366C14.2039 54.3653 14.2115 54.3957 14.2218 54.428C14.2423 54.4919 14.2751 54.5682 14.3261 54.6609C14.4273 54.8451 14.6113 55.1146 14.9501 55.5097L14.9501 55.5098L14.9536 55.5137C17.1329 57.9942 20.21 59.8823 23.8995 59.8823C24.1437 59.8823 24.3416 59.6884 24.3416 59.4491C24.3416 59.2099 24.1437 59.0159 23.8995 59.0159C20.539 59.0159 17.689 57.2982 15.6256 54.9505C15.3104 54.5827 15.1672 54.3638 15.1047 54.2501C15.0895 54.2223 15.0797 54.202 15.0736 54.1884C15.0717 54.184 15.0702 54.1804 15.069 54.1776Z" fill="url(#paint25_linear_1_95)"/>
<path fill-rule="evenodd" clip-rule="evenodd" d="M15.069 54.1776C15.0326 53.9743 14.8515 53.8198 14.6335 53.8198C14.3893 53.8198 14.1913 54.0138 14.1913 54.253H14.6335C14.1913 54.253 14.1913 54.2537 14.1913 54.2543L14.1914 54.2556L14.1914 54.2581L14.1915 54.2632L14.1918 54.2735C14.1921 54.2803 14.1926 54.2872 14.1933 54.2942C14.1945 54.3081 14.1964 54.3222 14.1989 54.3366C14.2039 54.3653 14.2115 54.3957 14.2218 54.428C14.2423 54.4919 14.2751 54.5682 14.3261 54.6609C14.4273 54.8451 14.6113 55.1146 14.9501 55.5097L14.9501 55.5098L14.9536 55.5137C17.1329 57.9942 20.21 59.8823 23.8995 59.8823C24.1437 59.8823 24.3416 59.6884 24.3416 59.4491C24.3416 59.2099 24.1437 59.0159 23.8995 59.0159C20.539 59.0159 17.689 57.2982 15.6256 54.9505C15.3104 54.5827 15.1672 54.3638 15.1047 54.2501C15.0895 54.2223 15.0797 54.202 15.0736 54.1884C15.0717 54.184 15.0702 54.1804 15.069 54.1776Z" fill="#D94FD5"/>
<path fill-rule="evenodd" clip-rule="evenodd" d="M26.9435 42.805C27.0563 43.0172 26.9721 43.2788 26.7555 43.3893L16.148 48.7993C15.9314 48.9098 15.6644 48.8273 15.5516 48.6151C15.4389 48.4029 15.5231 48.1413 15.7397 48.0308L26.3472 42.6208C26.5638 42.5103 26.8308 42.5928 26.9435 42.805Z" fill="url(#paint26_linear_1_95)"/>
<path fill-rule="evenodd" clip-rule="evenodd" d="M26.9435 42.805C27.0563 43.0172 26.9721 43.2788 26.7555 43.3893L16.148 48.7993C15.9314 48.9098 15.6644 48.8273 15.5516 48.6151C15.4389 48.4029 15.5231 48.1413 15.7397 48.0308L26.3472 42.6208C26.5638 42.5103 26.8308 42.5928 26.9435 42.805Z" fill="#D94FD5"/>
<path fill-rule="evenodd" clip-rule="evenodd" d="M19.8491 30.9862C20.0251 30.8204 20.305 30.8257 20.4743 30.9981L25.9964 36.6221C26.1657 36.7945 26.1603 37.0688 25.9843 37.2346C25.8083 37.4005 25.5284 37.3952 25.3591 37.2227L19.8369 31.5988C19.6676 31.4263 19.6731 31.1521 19.8491 30.9862Z" fill="url(#paint27_linear_1_95)"/>
<path fill-rule="evenodd" clip-rule="evenodd" d="M19.8491 30.9862C20.0251 30.8204 20.305 30.8257 20.4743 30.9981L25.9964 36.6221C26.1657 36.7945 26.1603 37.0688 25.9843 37.2346C25.8083 37.4005 25.5284 37.3952 25.3591 37.2227L19.8369 31.5988C19.6676 31.4263 19.6731 31.1521 19.8491 30.9862Z" fill="#D94FD5"/>
<path fill-rule="evenodd" clip-rule="evenodd" d="M14.662 11.8456C14.7557 11.6247 15.0145 11.5201 15.24 11.6119L23.1956 14.8518C23.4211 14.9437 23.5279 15.1972 23.4342 15.4181C23.3405 15.639 23.0817 15.7437 22.8562 15.6518L14.9006 12.4119C14.6751 12.3201 14.5682 12.0666 14.662 11.8456Z" fill="url(#paint28_linear_1_95)"/>
<path fill-rule="evenodd" clip-rule="evenodd" d="M14.662 11.8456C14.7557 11.6247 15.0145 11.5201 15.24 11.6119L23.1956 14.8518C23.4211 14.9437 23.5279 15.1972 23.4342 15.4181C23.3405 15.639 23.0817 15.7437 22.8562 15.6518L14.9006 12.4119C14.6751 12.3201 14.5682 12.0666 14.662 11.8456Z" fill="#D94FD5"/>
<path fill-rule="evenodd" clip-rule="evenodd" d="M24.2537 22.817C24.3998 23.0087 24.3597 23.2802 24.1641 23.4233L18.8603 27.3051C18.6647 27.4483 18.3876 27.409 18.2415 27.2173C18.0953 27.0257 18.1354 26.7542 18.3311 26.611L23.6348 22.7292C23.8305 22.5861 24.1075 22.6254 24.2537 22.817Z" fill="url(#paint29_linear_1_95)"/>
<path fill-rule="evenodd" clip-rule="evenodd" d="M24.2537 22.817C24.3998 23.0087 24.3597 23.2802 24.1641 23.4233L18.8603 27.3051C18.6647 27.4483 18.3876 27.409 18.2415 27.2173C18.0953 27.0257 18.1354 26.7542 18.3311 26.611L23.6348 22.7292C23.8305 22.5861 24.1075 22.6254 24.2537 22.817Z" fill="#D94FD5"/>
<path fill-rule="evenodd" clip-rule="evenodd" d="M15.3305 32.6904C15.5279 32.8313 15.5715 33.1022 15.4277 33.2956L4.82025 47.5696C4.67651 47.763 4.39994 47.8056 4.20252 47.6648C4.00509 47.524 3.96157 47.253 4.1053 47.0596L14.7128 32.7857C14.8565 32.5923 15.1331 32.5496 15.3305 32.6904Z" fill="url(#paint30_linear_1_95)"/>
<path fill-rule="evenodd" clip-rule="evenodd" d="M15.3305 32.6904C15.5279 32.8313 15.5715 33.1022 15.4277 33.2956L4.82025 47.5696C4.67651 47.763 4.39994 47.8056 4.20252 47.6648C4.00509 47.524 3.96157 47.253 4.1053 47.0596L14.7128 32.7857C14.8565 32.5923 15.1331 32.5496 15.3305 32.6904Z" fill="#D94FD5"/>
<path fill-rule="evenodd" clip-rule="evenodd" d="M13.7155 30.3955C13.8282 30.6078 13.7439 30.8693 13.5272 30.9797L1.11023 37.3067C0.89357 37.4171 0.626588 37.3345 0.513906 37.1223C0.401223 36.91 0.48551 36.6485 0.702165 36.5381L13.1192 30.2111C13.3358 30.1007 13.6028 30.1833 13.7155 30.3955Z" fill="url(#paint31_linear_1_95)"/>
<path fill-rule="evenodd" clip-rule="evenodd" d="M13.7155 30.3955C13.8282 30.6078 13.7439 30.8693 13.5272 30.9797L1.11023 37.3067C0.89357 37.4171 0.626588 37.3345 0.513906 37.1223C0.401223 36.91 0.48551 36.6485 0.702165 36.5381L13.1192 30.2111C13.3358 30.1007 13.6028 30.1833 13.7155 30.3955Z" fill="#D94FD5"/>
<path fill-rule="evenodd" clip-rule="evenodd" d="M4.11409 19.3255C4.26427 19.1368 4.54212 19.1032 4.73469 19.2503L14.6558 26.8305C14.8484 26.9776 14.8827 27.2498 14.7326 27.4385C14.5824 27.6271 14.3045 27.6608 14.112 27.5137L4.19084 19.9335C3.99827 19.7864 3.96391 19.5142 4.11409 19.3255Z" fill="url(#paint32_linear_1_95)"/>
<path fill-rule="evenodd" clip-rule="evenodd" d="M4.11409 19.3255C4.26427 19.1368 4.54212 19.1032 4.73469 19.2503L14.6558 26.8305C14.8484 26.9776 14.8827 27.2498 14.7326 27.4385C14.5824 27.6271 14.3045 27.6608 14.112 27.5137L4.19084 19.9335C3.99827 19.7864 3.96391 19.5142 4.11409 19.3255Z" fill="#D94FD5"/>
<g opacity="0.4">
<path fill-rule="evenodd" clip-rule="evenodd" d="M61.0568 21.7886C60.3308 21.7886 59.7423 22.3652 59.7423 23.0764C59.7423 23.7877 60.3308 24.3643 61.0568 24.3643C61.7828 24.3643 62.3714 23.7877 62.3714 23.0764C62.3714 22.3652 61.7828 21.7886 61.0568 21.7886ZM55.3205 23.0764C55.3205 19.9727 57.8887 17.4565 61.0568 17.4565C64.2249 17.4565 66.7932 19.9727 66.7932 23.0764C66.7932 26.1802 64.2249 28.6963 61.0568 28.6963C57.8887 28.6963 55.3205 26.1802 55.3205 23.0764Z" fill="url(#paint33_linear_1_95)"/>
<path fill-rule="evenodd" clip-rule="evenodd" d="M61.0568 21.7886C60.3308 21.7886 59.7423 22.3652 59.7423 23.0764C59.7423 23.7877 60.3308 24.3643 61.0568 24.3643C61.7828 24.3643 62.3714 23.7877 62.3714 23.0764C62.3714 22.3652 61.7828 21.7886 61.0568 21.7886ZM55.3205 23.0764C55.3205 19.9727 57.8887 17.4565 61.0568 17.4565C64.2249 17.4565 66.7932 19.9727 66.7932 23.0764C66.7932 26.1802 64.2249 28.6963 61.0568 28.6963C57.8887 28.6963 55.3205 26.1802 55.3205 23.0764Z" fill="#D94FD5"/>
</g>
<g opacity="0.4">
<path fill-rule="evenodd" clip-rule="evenodd" d="M32.7598 37.377C32.0339 37.377 31.4453 37.9536 31.4453 38.6648C31.4453 39.3761 32.0339 39.9526 32.7598 39.9526C33.4858 39.9526 34.0744 39.3761 34.0744 38.6648C34.0744 37.9536 33.4858 37.377 32.7598 37.377ZM27.0235 38.6648C27.0235 35.561 29.5917 33.0449 32.7598 33.0449C35.9279 33.0449 38.4962 35.561 38.4962 38.6648C38.4962 41.7686 35.9279 44.2847 32.7598 44.2847C29.5917 44.2847 27.0235 41.7686 27.0235 38.6648Z" fill="#D94FD5"/>
<path fill-rule="evenodd" clip-rule="evenodd" d="M32.7598 37.377C32.0339 37.377 31.4453 37.9536 31.4453 38.6648C31.4453 39.3761 32.0339 39.9526 32.7598 39.9526C33.4858 39.9526 34.0744 39.3761 34.0744 38.6648C34.0744 37.9536 33.4858 37.377 32.7598 37.377ZM27.0235 38.6648C27.0235 35.561 29.5917 33.0449 32.7598 33.0449C35.9279 33.0449 38.4962 35.561 38.4962 38.6648C38.4962 41.7686 35.9279 44.2847 32.7598 44.2847C29.5917 44.2847 27.0235 41.7686 27.0235 38.6648Z" fill="#D94FD5"/>
</g>
<path fill-rule="evenodd" clip-rule="evenodd" d="M11.5136 7.92158C9.81079 7.92158 8.43037 9.27397 8.43037 10.9422C8.43037 12.6105 9.81079 13.9629 11.5136 13.9629C13.2165 13.9629 14.5969 12.6105 14.5969 10.9422C14.5969 9.27397 13.2165 7.92158 11.5136 7.92158ZM7.54602 10.9422C7.54602 8.79547 9.32238 7.05518 11.5136 7.05518C13.7049 7.05518 15.4812 8.79547 15.4812 10.9422C15.4812 13.089 13.7049 14.8293 11.5136 14.8293C9.32238 14.8293 7.54602 13.089 7.54602 10.9422Z" fill="url(#paint34_linear_1_95)"/>
<path fill-rule="evenodd" clip-rule="evenodd" d="M11.5136 7.92158C9.81079 7.92158 8.43037 9.27397 8.43037 10.9422C8.43037 12.6105 9.81079 13.9629 11.5136 13.9629C13.2165 13.9629 14.5969 12.6105 14.5969 10.9422C14.5969 9.27397 13.2165 7.92158 11.5136 7.92158ZM7.54602 10.9422C7.54602 8.79547 9.32238 7.05518 11.5136 7.05518C13.7049 7.05518 15.4812 8.79547 15.4812 10.9422C15.4812 13.089 13.7049 14.8293 11.5136 14.8293C9.32238 14.8293 7.54602 13.089 7.54602 10.9422Z" fill="#D94FD5"/>
<g opacity="0.4">
<path fill-rule="evenodd" clip-rule="evenodd" d="M29.2032 16.562C28.4772 16.562 27.8887 17.1386 27.8887 17.8499C27.8887 18.5611 28.4772 19.1377 29.2032 19.1377C29.9292 19.1377 30.5177 18.5611 30.5177 17.8499C30.5177 17.1386 29.9292 16.562 29.2032 16.562ZM23.4669 17.8499C23.4669 14.7461 26.0351 12.23 29.2032 12.23C32.3713 12.23 34.9395 14.7461 34.9395 17.8499C34.9395 20.9537 32.3713 23.4698 29.2032 23.4698C26.0351 23.4698 23.4669 20.9537 23.4669 17.8499Z" fill="url(#paint35_linear_1_95)"/>
<path fill-rule="evenodd" clip-rule="evenodd" d="M29.2032 16.562C28.4772 16.562 27.8887 17.1386 27.8887 17.8499C27.8887 18.5611 28.4772 19.1377 29.2032 19.1377C29.9292 19.1377 30.5177 18.5611 30.5177 17.8499C30.5177 17.1386 29.9292 16.562 29.2032 16.562ZM23.4669 17.8499C23.4669 14.7461 26.0351 12.23 29.2032 12.23C32.3713 12.23 34.9395 14.7461 34.9395 17.8499C34.9395 20.9537 32.3713 23.4698 29.2032 23.4698C26.0351 23.4698 23.4669 20.9537 23.4669 17.8499Z" fill="#D94FD5"/>
</g>
<defs>
<linearGradient id="paint0_linear_1_95" x1="0.875005" y1="33.2089" x2="71.7376" y2="43.4297" gradientUnits="userSpaceOnUse">
<stop stop-color="#FFB1FF"/>
<stop offset="0.380208" stop-color="#ECBFBF"/>
<stop offset="0.869792" stop-color="#D94FD5"/>
</linearGradient>
<linearGradient id="paint1_linear_1_95" x1="16.3752" y1="50.7989" x2="17.7921" y2="58.5397" gradientUnits="userSpaceOnUse">
<stop stop-color="#FFB1FF"/>
<stop offset="0.380208" stop-color="#ECBFBF"/>
<stop offset="0.869792" stop-color="#D94FD5"/>
</linearGradient>
<linearGradient id="paint2_linear_1_95" x1="0.46399" y1="32.1696" x2="17.0284" y2="32.9507" gradientUnits="userSpaceOnUse">
<stop stop-color="#FFB1FF"/>
<stop offset="0.380208" stop-color="#ECBFBF"/>
<stop offset="0.869792" stop-color="#D94FD5"/>
</linearGradient>
<linearGradient id="paint3_linear_1_95" x1="14.4096" y1="6.7086" x2="42.3262" y2="27.9156" gradientUnits="userSpaceOnUse">
<stop stop-color="#FFB1FF"/>
<stop offset="0.380208" stop-color="#ECBFBF"/>
<stop offset="0.869792" stop-color="#D94FD5"/>
</linearGradient>
<linearGradient id="paint4_linear_1_95" x1="46.4504" y1="27.8292" x2="89.7157" y2="32.2047" gradientUnits="userSpaceOnUse">
<stop stop-color="#FFB1FF"/>
<stop offset="0.380208" stop-color="#ECBFBF"/>
<stop offset="0.869792" stop-color="#D94FD5"/>
</linearGradient>
<linearGradient id="paint5_linear_1_95" x1="47.1057" y1="32.0474" x2="62.4434" y2="33.5519" gradientUnits="userSpaceOnUse">
<stop stop-color="#FFB1FF"/>
<stop offset="0.380208" stop-color="#ECBFBF"/>
<stop offset="0.869792" stop-color="#D94FD5"/>
</linearGradient>
<linearGradient id="paint6_linear_1_95" x1="55.3108" y1="35.1802" x2="62.7847" y2="35.7203" gradientUnits="userSpaceOnUse">
<stop stop-color="#FFB1FF"/>
<stop offset="0.380208" stop-color="#ECBFBF"/>
<stop offset="0.869792" stop-color="#D94FD5"/>
</linearGradient>
<linearGradient id="paint7_linear_1_95" x1="64.14" y1="33.8506" x2="72.4115" y2="34.7217" gradientUnits="userSpaceOnUse">
<stop stop-color="#FFB1FF"/>
<stop offset="0.380208" stop-color="#ECBFBF"/>
<stop offset="0.869792" stop-color="#D94FD5"/>
</linearGradient>
<linearGradient id="paint8_linear_1_95" x1="65.9183" y1="16.9937" x2="72.7507" y2="19.1499" gradientUnits="userSpaceOnUse">
<stop stop-color="#FFB1FF"/>
<stop offset="0.380208" stop-color="#ECBFBF"/>
<stop offset="0.869792" stop-color="#D94FD5"/>
</linearGradient>
<linearGradient id="paint9_linear_1_95" x1="48.2289" y1="21.3341" x2="52.0813" y2="26.4106" gradientUnits="userSpaceOnUse">
<stop stop-color="#FFB1FF"/>
<stop offset="0.380208" stop-color="#ECBFBF"/>
<stop offset="0.869792" stop-color="#D94FD5"/>
</linearGradient>
<linearGradient id="paint10_linear_1_95" x1="42.925" y1="12.6537" x2="47.3999" y2="12.8467" gradientUnits="userSpaceOnUse">
<stop stop-color="#FFB1FF"/>
<stop offset="0.380208" stop-color="#ECBFBF"/>
<stop offset="0.869792" stop-color="#D94FD5"/>
</linearGradient>
<linearGradient id="paint11_linear_1_95" x1="34.0648" y1="9.52071" x2="45.7546" y2="11.6656" gradientUnits="userSpaceOnUse">
<stop stop-color="#FFB1FF"/>
<stop offset="0.380208" stop-color="#ECBFBF"/>
<stop offset="0.869792" stop-color="#D94FD5"/>
</linearGradient>
<linearGradient id="paint12_linear_1_95" x1="25.2355" y1="8.23696" x2="29.7444" y2="8.58989" gradientUnits="userSpaceOnUse">
<stop stop-color="#FFB1FF"/>
<stop offset="0.380208" stop-color="#ECBFBF"/>
<stop offset="0.869792" stop-color="#D94FD5"/>
</linearGradient>
<linearGradient id="paint13_linear_1_95" x1="47.3553" y1="13.968" x2="72.435" y2="21.0363" gradientUnits="userSpaceOnUse">
<stop stop-color="#FFB1FF"/>
<stop offset="0.380208" stop-color="#ECBFBF"/>
<stop offset="0.869792" stop-color="#D94FD5"/>
</linearGradient>
<linearGradient id="paint14_linear_1_95" x1="41.1468" y1="21.3343" x2="54.2022" y2="23.7929" gradientUnits="userSpaceOnUse">
<stop stop-color="#FFB1FF"/>
<stop offset="0.380208" stop-color="#ECBFBF"/>
<stop offset="0.869792" stop-color="#D94FD5"/>
</linearGradient>
<linearGradient id="paint15_linear_1_95" x1="41.1468" y1="50.7992" x2="54.2022" y2="53.2578" gradientUnits="userSpaceOnUse">
<stop stop-color="#FFB1FF"/>
<stop offset="0.380208" stop-color="#ECBFBF"/>
<stop offset="0.869792" stop-color="#D94FD5"/>
</linearGradient>
<linearGradient id="paint16_linear_1_95" x1="39.3997" y1="4.00376" x2="52.4551" y2="6.46237" gradientUnits="userSpaceOnUse">
<stop stop-color="#FFB1FF"/>
<stop offset="0.380208" stop-color="#ECBFBF"/>
<stop offset="0.869792" stop-color="#D94FD5"/>
</linearGradient>
<linearGradient id="paint17_linear_1_95" x1="9.32434" y1="50.7992" x2="22.3798" y2="53.2578" gradientUnits="userSpaceOnUse">
<stop stop-color="#FFB1FF"/>
<stop offset="0.380208" stop-color="#ECBFBF"/>
<stop offset="0.869792" stop-color="#D94FD5"/>
</linearGradient>
<linearGradient id="paint18_linear_1_95" x1="12.8498" y1="29.9842" x2="25.9052" y2="32.4428" gradientUnits="userSpaceOnUse">
<stop stop-color="#FFB1FF"/>
<stop offset="0.380208" stop-color="#ECBFBF"/>
<stop offset="0.869792" stop-color="#D94FD5"/>
</linearGradient>
<linearGradient id="paint19_linear_1_95" x1="37.6214" y1="46.0311" x2="46.3173" y2="47.6591" gradientUnits="userSpaceOnUse">
<stop stop-color="#FFB1FF"/>
<stop offset="0.380208" stop-color="#ECBFBF"/>
<stop offset="0.869792" stop-color="#D94FD5"/>
</linearGradient>
<linearGradient id="paint20_linear_1_95" x1="37.6213" y1="29.1284" x2="46.9707" y2="29.9761" gradientUnits="userSpaceOnUse">
<stop stop-color="#FFB1FF"/>
<stop offset="0.380208" stop-color="#ECBFBF"/>
<stop offset="0.869792" stop-color="#D94FD5"/>
</linearGradient>
<linearGradient id="paint21_linear_1_95" x1="29.6657" y1="28.3643" x2="32.6552" y2="28.492" gradientUnits="userSpaceOnUse">
<stop stop-color="#FFB1FF"/>
<stop offset="0.380208" stop-color="#ECBFBF"/>
<stop offset="0.869792" stop-color="#D94FD5"/>
</linearGradient>
<linearGradient id="paint22_linear_1_95" x1="35.843" y1="19.6072" x2="44.6908" y2="23.4793" gradientUnits="userSpaceOnUse">
<stop stop-color="#FFB1FF"/>
<stop offset="0.380208" stop-color="#ECBFBF"/>
<stop offset="0.869792" stop-color="#D94FD5"/>
</linearGradient>
<linearGradient id="paint23_linear_1_95" x1="44.6722" y1="36.0514" x2="46.1788" y2="36.0619" gradientUnits="userSpaceOnUse">
<stop stop-color="#FFB1FF"/>
<stop offset="0.380208" stop-color="#ECBFBF"/>
<stop offset="0.869792" stop-color="#D94FD5"/>
</linearGradient>
<linearGradient id="paint24_linear_1_95" x1="23.4573" y1="55.1239" x2="42.1089" y2="59.2795" gradientUnits="userSpaceOnUse">
<stop stop-color="#FFB1FF"/>
<stop offset="0.380208" stop-color="#ECBFBF"/>
<stop offset="0.869792" stop-color="#D94FD5"/>
</linearGradient>
<linearGradient id="paint25_linear_1_95" x1="14.1913" y1="56.8511" x2="29.9771" y2="61.7273" gradientUnits="userSpaceOnUse">
<stop stop-color="#FFB1FF"/>
<stop offset="0.380208" stop-color="#ECBFBF"/>
<stop offset="0.869792" stop-color="#D94FD5"/>
</linearGradient>
<linearGradient id="paint26_linear_1_95" x1="15.5016" y1="45.7101" x2="33.0742" y2="51.6462" gradientUnits="userSpaceOnUse">
<stop stop-color="#FFB1FF"/>
<stop offset="0.380208" stop-color="#ECBFBF"/>
<stop offset="0.869792" stop-color="#D94FD5"/>
</linearGradient>
<linearGradient id="paint27_linear_1_95" x1="19.7134" y1="34.1104" x2="30.2772" y2="36.0342" gradientUnits="userSpaceOnUse">
<stop stop-color="#FFB1FF"/>
<stop offset="0.380208" stop-color="#ECBFBF"/>
<stop offset="0.869792" stop-color="#D94FD5"/>
</linearGradient>
<linearGradient id="paint28_linear_1_95" x1="14.628" y1="13.6319" x2="27.6362" y2="18.7984" gradientUnits="userSpaceOnUse">
<stop stop-color="#FFB1FF"/>
<stop offset="0.380208" stop-color="#ECBFBF"/>
<stop offset="0.869792" stop-color="#D94FD5"/>
</linearGradient>
<linearGradient id="paint29_linear_1_95" x1="18.1535" y1="25.0172" x2="28.1195" y2="27.4135" gradientUnits="userSpaceOnUse">
<stop stop-color="#FFB1FF"/>
<stop offset="0.380208" stop-color="#ECBFBF"/>
<stop offset="0.869792" stop-color="#D94FD5"/>
</linearGradient>
<linearGradient id="paint30_linear_1_95" x1="4.02057" y1="40.1776" x2="23.2216" y2="42.8665" gradientUnits="userSpaceOnUse">
<stop stop-color="#FFB1FF"/>
<stop offset="0.380208" stop-color="#ECBFBF"/>
<stop offset="0.869792" stop-color="#D94FD5"/>
</linearGradient>
<linearGradient id="paint31_linear_1_95" x1="0.46393" y1="33.7589" x2="20.762" y2="40.6837" gradientUnits="userSpaceOnUse">
<stop stop-color="#FFB1FF"/>
<stop offset="0.380208" stop-color="#ECBFBF"/>
<stop offset="0.869792" stop-color="#D94FD5"/>
</linearGradient>
<linearGradient id="paint32_linear_1_95" x1="4.02057" y1="23.382" x2="21.4575" y2="27.4975" gradientUnits="userSpaceOnUse">
<stop stop-color="#FFB1FF"/>
<stop offset="0.380208" stop-color="#ECBFBF"/>
<stop offset="0.869792" stop-color="#D94FD5"/>
</linearGradient>
<linearGradient id="paint33_linear_1_95" x1="55.3205" y1="23.0764" x2="74.196" y2="26.6311" gradientUnits="userSpaceOnUse">
<stop stop-color="#FFB1FF"/>
<stop offset="0.380208" stop-color="#ECBFBF"/>
<stop offset="0.869792" stop-color="#D94FD5"/>
</linearGradient>
<linearGradient id="paint34_linear_1_95" x1="7.54602" y1="10.9422" x2="20.6014" y2="13.4008" gradientUnits="userSpaceOnUse">
<stop stop-color="#FFB1FF"/>
<stop offset="0.380208" stop-color="#ECBFBF"/>
<stop offset="0.869792" stop-color="#D94FD5"/>
</linearGradient>
<linearGradient id="paint35_linear_1_95" x1="23.4669" y1="17.8499" x2="42.3423" y2="21.4045" gradientUnits="userSpaceOnUse">
<stop stop-color="#FFB1FF"/>
<stop offset="0.380208" stop-color="#ECBFBF"/>
<stop offset="0.869792" stop-color="#D94FD5"/>
</linearGradient>
</defs>
</svg>
