<svg width="1728" height="951" viewBox="0 0 1728 951" fill="none" xmlns="http://www.w3.org/2000/svg">
<path opacity="0.4" d="M347.394 525.375C119.355 526.627 117.463 877.677 -112.613 878.941L-112.791 912.111C117.284 910.847 117.075 949.546 345.115 948.293C575.19 947.029 576.844 640.206 804.883 638.954C1034.96 637.69 1033.6 889.23 1263.68 887.966C1491.72 886.713 1492.52 737.448 1722.6 736.184L1725.5 197.17C1495.43 198.434 1473.33 635.282 1245.29 636.534C1015.21 637.798 1037.49 167.78 807.416 169.044C579.377 170.297 577.47 524.111 347.394 525.375Z" fill="url(#paint0_linear_506_2)"/>
<path d="M1366.41 234.288C1364 234.288 1362 233.512 1360.41 231.96C1358.85 230.392 1358.06 228.408 1358.06 226.008C1358.06 223.608 1358.85 221.632 1360.41 220.08C1362 218.512 1364 217.728 1366.41 217.728C1368.85 217.728 1370.85 218.504 1372.41 220.056C1374 221.608 1374.79 223.592 1374.79 226.008C1374.79 228.264 1374.09 230.152 1372.7 231.672L1373.88 233.04L1371.5 234.984L1370.21 233.496C1369.02 234.024 1367.76 234.288 1366.41 234.288ZM1366.41 231.264C1366.97 231.264 1367.53 231.176 1368.09 231L1366.34 228.936L1368.69 226.992L1370.47 229.08C1371.01 228.184 1371.29 227.16 1371.29 226.008C1371.29 224.488 1370.84 223.232 1369.94 222.24C1369.05 221.248 1367.87 220.752 1366.41 220.752C1364.96 220.752 1363.78 221.248 1362.89 222.24C1362.01 223.232 1361.57 224.488 1361.57 226.008C1361.57 227.528 1362.01 228.784 1362.89 229.776C1363.78 230.768 1364.96 231.264 1366.41 231.264ZM1383.88 234H1380.47V222.384L1377.81 225.096L1375.86 223.056L1380.9 217.992H1383.88V234ZM1404.78 234H1392.73V231.336C1396.16 228.792 1398.42 226.984 1399.53 225.912C1400.65 224.824 1401.21 223.808 1401.21 222.864C1401.21 222.208 1400.95 221.696 1400.44 221.328C1399.93 220.96 1399.32 220.776 1398.61 220.776C1396.93 220.776 1395.5 221.392 1394.32 222.624L1392.37 220.368C1393.13 219.504 1394.05 218.856 1395.13 218.424C1396.24 217.976 1397.37 217.752 1398.54 217.752C1400.3 217.752 1401.76 218.216 1402.91 219.144C1404.08 220.072 1404.66 221.312 1404.66 222.864C1404.66 224.176 1404.14 225.464 1403.1 226.728C1402.08 227.976 1400.46 229.4 1398.25 231H1404.78V234ZM1417.16 233.064C1416.13 233.88 1414.89 234.288 1413.44 234.288C1411.98 234.288 1410.73 233.88 1409.69 233.064C1408.67 232.232 1407.93 231.208 1407.48 229.992C1407.04 228.776 1406.81 227.448 1406.81 226.008C1406.81 224.568 1407.04 223.24 1407.48 222.024C1407.93 220.808 1408.67 219.792 1409.69 218.976C1410.73 218.16 1411.98 217.752 1413.44 217.752C1414.89 217.752 1416.13 218.16 1417.16 218.976C1418.18 219.792 1418.92 220.808 1419.36 222.024C1419.83 223.24 1420.06 224.568 1420.06 226.008C1420.06 227.448 1419.83 228.776 1419.36 229.992C1418.92 231.208 1418.18 232.232 1417.16 233.064ZM1411.04 229.824C1411.55 230.784 1412.35 231.264 1413.44 231.264C1414.52 231.264 1415.32 230.784 1415.81 229.824C1416.32 228.864 1416.58 227.592 1416.58 226.008C1416.58 224.424 1416.32 223.16 1415.81 222.216C1415.32 221.256 1414.52 220.776 1413.44 220.776C1412.35 220.776 1411.55 221.256 1411.04 222.216C1410.52 223.16 1410.27 224.424 1410.27 226.008C1410.27 227.592 1410.52 228.864 1411.04 229.824ZM1434.05 234H1422.01V231.336C1425.43 228.792 1427.69 226.984 1428.8 225.912C1429.92 224.824 1430.48 223.808 1430.48 222.864C1430.48 222.208 1430.22 221.696 1429.71 221.328C1429.2 220.96 1428.59 220.776 1427.89 220.776C1426.21 220.776 1424.77 221.392 1423.59 222.624L1421.65 220.368C1422.4 219.504 1423.32 218.856 1424.41 218.424C1425.51 217.976 1426.65 217.752 1427.81 217.752C1429.57 217.752 1431.03 218.216 1432.18 219.144C1433.35 220.072 1433.93 221.312 1433.93 222.864C1433.93 224.176 1433.41 225.464 1432.37 226.728C1431.35 227.976 1429.73 229.4 1427.53 231H1434.05V234ZM1446.93 234H1443.53V230.688H1435.87V228L1442.23 217.992H1446.93V227.688H1449V230.688H1446.93V234ZM1443.53 227.688V221.016L1439.21 227.688H1443.53ZM1454.03 225.552C1453.65 225.936 1453.19 226.128 1452.66 226.128C1452.13 226.128 1451.68 225.936 1451.29 225.552C1450.91 225.168 1450.72 224.712 1450.72 224.184C1450.72 223.656 1450.91 223.2 1451.29 222.816C1451.68 222.432 1452.13 222.24 1452.66 222.24C1453.19 222.24 1453.65 222.432 1454.03 222.816C1454.41 223.2 1454.61 223.656 1454.61 224.184C1454.61 224.712 1454.41 225.168 1454.03 225.552ZM1454.03 233.688C1453.65 234.072 1453.19 234.264 1452.66 234.264C1452.13 234.264 1451.68 234.072 1451.29 233.688C1450.91 233.304 1450.72 232.848 1450.72 232.32C1450.72 231.792 1450.91 231.336 1451.29 230.952C1451.68 230.568 1452.13 230.376 1452.66 230.376C1453.19 230.376 1453.65 230.568 1454.03 230.952C1454.41 231.336 1454.61 231.792 1454.61 232.32C1454.61 232.848 1454.41 233.304 1454.03 233.688Z" fill="#80ECFE"/>
<path d="M1332.97 262L1326.53 245.992H1324.06L1317.61 262H1319.89L1321.3 258.424H1329.27L1330.69 262H1332.97ZM1328.69 256.672H1321.9L1325.29 248.032L1328.69 256.672ZM1336.79 262V245.992H1334.99V262H1336.79ZM1346.09 262.288C1349.14 262.288 1351.25 259.936 1351.25 256.192C1351.25 252.424 1349.14 250.12 1346.09 250.12C1344.46 250.12 1343.02 250.96 1342.18 252.136V250.408H1340.38V266.416H1342.18V260.248C1343.14 261.52 1344.51 262.288 1346.09 262.288ZM1345.63 260.68C1344.22 260.68 1342.8 259.816 1342.18 258.808V253.576C1342.8 252.568 1344.22 251.728 1345.63 251.728C1347.96 251.728 1349.35 253.624 1349.35 256.192C1349.35 258.76 1347.96 260.68 1345.63 260.68ZM1363.76 262V253.816C1363.76 251.296 1362.49 250.12 1360.06 250.12C1358.31 250.12 1356.73 251.104 1355.94 252.088V245.992H1354.14V262H1355.94V253.528C1356.61 252.592 1357.95 251.728 1359.34 251.728C1360.93 251.728 1361.96 252.304 1361.96 254.368V262H1363.76ZM1376.4 262V254.032C1376.4 251.224 1374.39 250.12 1371.91 250.12C1370.02 250.12 1368.53 250.744 1367.28 252.04L1368.12 253.288C1369.15 252.16 1370.28 251.68 1371.67 251.68C1373.35 251.68 1374.6 252.568 1374.6 254.104V256.192C1373.67 255.136 1372.35 254.632 1370.76 254.632C1368.79 254.632 1366.73 255.832 1366.73 258.448C1366.73 260.968 1368.82 262.288 1370.76 262.288C1372.32 262.288 1373.67 261.736 1374.6 260.68V262H1376.4ZM1371.43 260.992C1369.73 260.992 1368.55 259.936 1368.55 258.448C1368.55 256.984 1369.73 255.928 1371.43 255.928C1372.68 255.928 1373.91 256.408 1374.6 257.344V259.552C1373.91 260.512 1372.68 260.992 1371.43 260.992ZM1389.2 262.288C1390.23 262.288 1390.88 261.976 1391.33 261.544L1390.81 260.176C1390.57 260.44 1390.11 260.68 1389.58 260.68C1388.81 260.68 1388.43 260.056 1388.43 259.192V251.992H1390.78V250.408H1388.43V247.24H1386.61V250.408H1384.69V251.992H1386.61V259.576C1386.61 261.304 1387.47 262.288 1389.2 262.288ZM1398.56 262.288C1400.43 262.288 1401.99 261.64 1403.16 260.488L1402.3 259.312C1401.36 260.272 1400.04 260.8 1398.7 260.8C1396.2 260.8 1394.69 258.976 1394.55 256.792H1403.91V256.336C1403.91 252.856 1401.84 250.12 1398.34 250.12C1395.03 250.12 1392.63 252.832 1392.63 256.192C1392.63 259.816 1395.1 262.288 1398.56 262.288ZM1402.13 255.448H1394.52C1394.62 253.696 1395.84 251.608 1398.32 251.608C1400.96 251.608 1402.11 253.744 1402.13 255.448ZM1410.52 262.288C1413.5 262.288 1415.06 260.728 1415.06 258.784C1415.06 254.272 1407.88 255.928 1407.88 253.408C1407.88 252.376 1408.86 251.584 1410.45 251.584C1411.96 251.584 1413.21 252.208 1413.9 253.048L1414.74 251.8C1413.83 250.864 1412.44 250.12 1410.45 250.12C1407.69 250.12 1406.15 251.632 1406.15 253.456C1406.15 257.752 1413.33 256.024 1413.33 258.832C1413.33 259.984 1412.34 260.824 1410.57 260.824C1408.98 260.824 1407.52 260.056 1406.75 259.168L1405.84 260.464C1407.02 261.688 1408.6 262.288 1410.52 262.288ZM1420.93 262.288C1421.96 262.288 1422.61 261.976 1423.07 261.544L1422.54 260.176C1422.3 260.44 1421.84 260.68 1421.32 260.68C1420.55 260.68 1420.16 260.056 1420.16 259.192V251.992H1422.52V250.408H1420.16V247.24H1418.34V250.408H1416.42V251.992H1418.34V259.576C1418.34 261.304 1419.2 262.288 1420.93 262.288ZM1425.95 248.752C1426.62 248.752 1427.15 248.224 1427.15 247.552C1427.15 246.88 1426.62 246.328 1425.95 246.328C1425.27 246.328 1424.72 246.88 1424.72 247.552C1424.72 248.224 1425.27 248.752 1425.95 248.752ZM1426.83 262V250.408H1425.03V262H1426.83ZM1440.05 262V253.864C1440.05 251.344 1438.78 250.12 1436.38 250.12C1434.62 250.12 1433.04 251.104 1432.23 252.088V250.408H1430.43V262H1432.23V253.528C1432.92 252.592 1434.24 251.728 1435.66 251.728C1437.22 251.728 1438.27 252.352 1438.27 254.416V262H1440.05ZM1448.32 266.704C1451.16 266.704 1453.87 265.504 1453.87 261.832V250.408H1452.07V252.16C1451.13 250.888 1449.72 250.12 1448.16 250.12C1445.11 250.12 1443 252.424 1443 256.144C1443 259.888 1445.13 262.144 1448.16 262.144C1449.79 262.144 1451.2 261.256 1452.07 260.08V261.832C1452.07 264.28 1450.24 265.216 1448.32 265.216C1446.67 265.216 1445.52 264.784 1444.56 263.656L1443.64 264.952C1445.04 266.32 1446.38 266.704 1448.32 266.704ZM1448.61 260.536C1446.26 260.536 1444.87 258.688 1444.87 256.144C1444.87 253.576 1446.26 251.728 1448.61 251.728C1450.03 251.728 1451.42 252.592 1452.07 253.576V258.664C1451.42 259.672 1450.03 260.536 1448.61 260.536ZM1472.73 262V254.032C1472.73 251.224 1470.71 250.12 1468.24 250.12C1466.35 250.12 1464.86 250.744 1463.61 252.04L1464.45 253.288C1465.48 252.16 1466.61 251.68 1468 251.68C1469.68 251.68 1470.93 252.568 1470.93 254.104V256.192C1469.99 255.136 1468.67 254.632 1467.09 254.632C1465.12 254.632 1463.06 255.832 1463.06 258.448C1463.06 260.968 1465.15 262.288 1467.09 262.288C1468.65 262.288 1469.99 261.736 1470.93 260.68V262H1472.73ZM1467.76 260.992C1466.06 260.992 1464.88 259.936 1464.88 258.448C1464.88 256.984 1466.06 255.928 1467.76 255.928C1469.01 255.928 1470.23 256.408 1470.93 257.344V259.552C1470.23 260.512 1469.01 260.992 1467.76 260.992ZM1485.99 262V253.864C1485.99 251.344 1484.71 250.12 1482.31 250.12C1480.56 250.12 1478.98 251.104 1478.16 252.088V250.408H1476.36V262H1478.16V253.528C1478.86 252.592 1480.18 251.728 1481.59 251.728C1483.15 251.728 1484.21 252.352 1484.21 254.416V262H1485.99ZM1499.8 262V245.992H1498V252.16C1497.07 250.888 1495.65 250.12 1494.09 250.12C1491.07 250.12 1488.93 252.496 1488.93 256.216C1488.93 259.984 1491.07 262.288 1494.09 262.288C1495.72 262.288 1497.14 261.448 1498 260.272V262H1499.8ZM1494.55 260.68C1492.2 260.68 1490.8 258.784 1490.8 256.216C1490.8 253.648 1492.2 251.728 1494.55 251.728C1495.96 251.728 1497.38 252.592 1498 253.6V258.832C1497.38 259.84 1495.96 260.68 1494.55 260.68ZM1358.87 290.288C1360.98 290.288 1362.23 289.424 1363.12 288.272L1361.92 287.168C1361.15 288.2 1360.17 288.68 1358.97 288.68C1356.52 288.68 1354.96 286.76 1354.96 284.192C1354.96 281.624 1356.52 279.728 1358.97 279.728C1360.17 279.728 1361.15 280.16 1361.92 281.216L1363.12 280.136C1362.23 278.984 1360.98 278.12 1358.87 278.12C1355.42 278.12 1353.09 280.76 1353.09 284.192C1353.09 287.624 1355.42 290.288 1358.87 290.288ZM1370.73 290.288C1374.26 290.288 1376.47 287.552 1376.47 284.192C1376.47 280.832 1374.26 278.12 1370.73 278.12C1367.2 278.12 1365 280.832 1365 284.192C1365 287.552 1367.2 290.288 1370.73 290.288ZM1370.73 288.68C1368.26 288.68 1366.89 286.568 1366.89 284.192C1366.89 281.84 1368.26 279.728 1370.73 279.728C1373.2 279.728 1374.57 281.84 1374.57 284.192C1374.57 286.568 1373.2 288.68 1370.73 288.68ZM1395.19 290V281.624C1395.19 279.296 1394.07 278.12 1391.95 278.12C1390.27 278.12 1388.71 279.224 1388.07 280.28C1387.73 279.08 1386.72 278.12 1384.97 278.12C1383.24 278.12 1381.71 279.344 1381.2 280.088V278.408H1379.4V290H1381.2V281.528C1381.83 280.592 1383.07 279.728 1384.25 279.728C1385.79 279.728 1386.39 280.664 1386.39 282.128V290H1388.19V281.504C1388.79 280.568 1390.06 279.728 1391.26 279.728C1392.77 279.728 1393.39 280.664 1393.39 282.128V290H1395.19ZM1414.58 290V281.624C1414.58 279.296 1413.45 278.12 1411.34 278.12C1409.66 278.12 1408.1 279.224 1407.45 280.28C1407.11 279.08 1406.1 278.12 1404.35 278.12C1402.62 278.12 1401.09 279.344 1400.58 280.088V278.408H1398.78V290H1400.58V281.528C1401.21 280.592 1402.46 279.728 1403.63 279.728C1405.17 279.728 1405.77 280.664 1405.77 282.128V290H1407.57V281.504C1408.17 280.568 1409.44 279.728 1410.64 279.728C1412.15 279.728 1412.78 280.664 1412.78 282.128V290H1414.58ZM1427.79 290V278.408H1425.99V286.928C1425.32 287.864 1423.98 288.68 1422.58 288.68C1421 288.68 1419.97 288.08 1419.97 286.04V278.408H1418.17V286.592C1418.17 289.088 1419.44 290.288 1421.86 290.288C1423.59 290.288 1425.1 289.376 1425.99 288.368V290H1427.79ZM1441.01 290V281.864C1441.01 279.344 1439.74 278.12 1437.34 278.12C1435.59 278.12 1434 279.104 1433.19 280.088V278.408H1431.39V290H1433.19V281.528C1433.88 280.592 1435.2 279.728 1436.62 279.728C1438.18 279.728 1439.23 280.352 1439.23 282.416V290H1441.01ZM1445.54 276.752C1446.21 276.752 1446.74 276.224 1446.74 275.552C1446.74 274.88 1446.21 274.328 1445.54 274.328C1444.87 274.328 1444.32 274.88 1444.32 275.552C1444.32 276.224 1444.87 276.752 1445.54 276.752ZM1446.43 290V278.408H1444.63V290H1446.43ZM1452.97 290.288C1454 290.288 1454.65 289.976 1455.11 289.544L1454.58 288.176C1454.34 288.44 1453.88 288.68 1453.35 288.68C1452.59 288.68 1452.2 288.056 1452.2 287.192V279.992H1454.55V278.408H1452.2V275.24H1450.38V278.408H1448.46V279.992H1450.38V287.576C1450.38 289.304 1451.24 290.288 1452.97 290.288ZM1456.45 294.536C1456.76 294.632 1457.36 294.704 1457.75 294.704C1459.28 294.68 1460.46 294.032 1461.15 292.352L1466.96 278.408H1465.02L1461.15 287.912L1457.31 278.408H1455.35L1460.19 290.12L1459.43 291.872C1459.02 292.832 1458.49 293.096 1457.7 293.096C1457.41 293.096 1456.98 293.024 1456.71 292.904L1456.45 294.536ZM1364.41 318V307.992H1366.76V306.408H1364.41V305.52C1364.41 304.032 1365.06 303.24 1366.26 303.24C1366.83 303.24 1367.29 303.456 1367.67 303.792L1368.42 302.64C1367.7 301.968 1366.9 301.752 1365.97 301.752C1363.93 301.752 1362.61 303.144 1362.61 305.52V306.408H1360.69V307.992H1362.61V318H1364.41ZM1374.18 318.288C1376.05 318.288 1377.61 317.64 1378.79 316.488L1377.93 315.312C1376.99 316.272 1375.67 316.8 1374.33 316.8C1371.83 316.8 1370.32 314.976 1370.17 312.792H1379.53V312.336C1379.53 308.856 1377.47 306.12 1373.97 306.12C1370.65 306.12 1368.25 308.832 1368.25 312.192C1368.25 315.816 1370.73 318.288 1374.18 318.288ZM1377.76 311.448H1370.15C1370.25 309.696 1371.47 307.608 1373.94 307.608C1376.58 307.608 1377.73 309.744 1377.76 311.448ZM1387.7 318.288C1389.58 318.288 1391.14 317.64 1392.31 316.488L1391.45 315.312C1390.51 316.272 1389.19 316.8 1387.85 316.8C1385.35 316.8 1383.84 314.976 1383.7 312.792H1393.06V312.336C1393.06 308.856 1390.99 306.12 1387.49 306.12C1384.18 306.12 1381.78 308.832 1381.78 312.192C1381.78 315.816 1384.25 318.288 1387.7 318.288ZM1391.28 311.448H1383.67C1383.77 309.696 1384.99 307.608 1387.46 307.608C1390.1 307.608 1391.26 309.744 1391.28 311.448ZM1406.17 318V301.992H1404.37V308.16C1403.44 306.888 1402.02 306.12 1400.46 306.12C1397.44 306.12 1395.3 308.496 1395.3 312.216C1395.3 315.984 1397.44 318.288 1400.46 318.288C1402.09 318.288 1403.51 317.448 1404.37 316.272V318H1406.17ZM1400.92 316.68C1398.56 316.68 1397.17 314.784 1397.17 312.216C1397.17 309.648 1398.56 307.728 1400.92 307.728C1402.33 307.728 1403.75 308.592 1404.37 309.6V314.832C1403.75 315.84 1402.33 316.68 1400.92 316.68ZM1411.58 314.856V309.6C1412.2 308.592 1413.62 307.728 1415.06 307.728C1417.38 307.728 1418.78 309.648 1418.78 312.216C1418.78 314.784 1417.38 316.68 1415.06 316.68C1413.62 316.68 1412.2 315.864 1411.58 314.856ZM1411.58 318V316.272C1412.44 317.448 1413.86 318.288 1415.49 318.288C1418.51 318.288 1420.65 315.984 1420.65 312.216C1420.65 308.496 1418.54 306.12 1415.49 306.12C1413.93 306.12 1412.51 306.888 1411.58 308.16V301.992H1409.78V318H1411.58ZM1432.63 318V310.032C1432.63 307.224 1430.61 306.12 1428.14 306.12C1426.25 306.12 1424.76 306.744 1423.51 308.04L1424.35 309.288C1425.38 308.16 1426.51 307.68 1427.9 307.68C1429.58 307.68 1430.83 308.568 1430.83 310.104V312.192C1429.89 311.136 1428.57 310.632 1426.99 310.632C1425.02 310.632 1422.96 311.832 1422.96 314.448C1422.96 316.968 1425.05 318.288 1426.99 318.288C1428.55 318.288 1429.89 317.736 1430.83 316.68V318H1432.63ZM1427.66 316.992C1425.96 316.992 1424.78 315.936 1424.78 314.448C1424.78 312.984 1425.96 311.928 1427.66 311.928C1428.91 311.928 1430.13 312.408 1430.83 313.344V315.552C1430.13 316.512 1428.91 316.992 1427.66 316.992ZM1441.37 318.288C1443.48 318.288 1444.73 317.424 1445.62 316.272L1444.42 315.168C1443.65 316.2 1442.67 316.68 1441.47 316.68C1439.02 316.68 1437.46 314.76 1437.46 312.192C1437.46 309.624 1439.02 307.728 1441.47 307.728C1442.67 307.728 1443.65 308.16 1444.42 309.216L1445.62 308.136C1444.73 306.984 1443.48 306.12 1441.37 306.12C1437.92 306.12 1435.59 308.76 1435.59 312.192C1435.59 315.624 1437.92 318.288 1441.37 318.288ZM1458.37 318L1453.21 311.664L1458.34 306.408H1456.06L1449.97 312.576V301.992H1448.17V318H1449.97V314.688L1451.91 312.792L1456.06 318H1458.37Z" fill="white"/>
<path d="M1121.3 488.288C1118.89 488.288 1116.89 487.512 1115.3 485.96C1113.74 484.392 1112.95 482.408 1112.95 480.008C1112.95 477.608 1113.74 475.632 1115.3 474.08C1116.89 472.512 1118.89 471.728 1121.3 471.728C1123.74 471.728 1125.74 472.504 1127.3 474.056C1128.89 475.608 1129.68 477.592 1129.68 480.008C1129.68 482.264 1128.98 484.152 1127.59 485.672L1128.77 487.04L1126.39 488.984L1125.1 487.496C1123.91 488.024 1122.65 488.288 1121.3 488.288ZM1121.3 485.264C1121.86 485.264 1122.42 485.176 1122.98 485L1121.23 482.936L1123.58 480.992L1125.36 483.08C1125.9 482.184 1126.18 481.16 1126.18 480.008C1126.18 478.488 1125.73 477.232 1124.83 476.24C1123.94 475.248 1122.76 474.752 1121.3 474.752C1119.85 474.752 1118.67 475.248 1117.78 476.24C1116.9 477.232 1116.46 478.488 1116.46 480.008C1116.46 481.528 1116.9 482.784 1117.78 483.776C1118.67 484.768 1119.85 485.264 1121.3 485.264ZM1142.15 488H1138.74V484.688H1131.09V482L1137.45 471.992H1142.15V481.688H1144.22V484.688H1142.15V488ZM1138.74 481.688V475.016L1134.42 481.688H1138.74ZM1164.13 488H1152.08V485.336C1155.5 482.792 1157.77 480.984 1158.87 479.912C1159.99 478.824 1160.55 477.808 1160.55 476.864C1160.55 476.208 1160.29 475.696 1159.78 475.328C1159.27 474.96 1158.66 474.776 1157.96 474.776C1156.28 474.776 1154.85 475.392 1153.66 476.624L1151.72 474.368C1152.47 473.504 1153.39 472.856 1154.48 472.424C1155.58 471.976 1156.72 471.752 1157.89 471.752C1159.65 471.752 1161.1 472.216 1162.25 473.144C1163.42 474.072 1164.01 475.312 1164.01 476.864C1164.01 478.176 1163.49 479.464 1162.45 480.728C1161.42 481.976 1159.81 483.4 1157.6 485H1164.13V488ZM1176.5 487.064C1175.48 487.88 1174.24 488.288 1172.78 488.288C1171.32 488.288 1170.08 487.88 1169.04 487.064C1168.01 486.232 1167.28 485.208 1166.83 483.992C1166.38 482.776 1166.16 481.448 1166.16 480.008C1166.16 478.568 1166.38 477.24 1166.83 476.024C1167.28 474.808 1168.01 473.792 1169.04 472.976C1170.08 472.16 1171.32 471.752 1172.78 471.752C1174.24 471.752 1175.48 472.16 1176.5 472.976C1177.52 473.792 1178.26 474.808 1178.71 476.024C1179.17 477.24 1179.4 478.568 1179.4 480.008C1179.4 481.448 1179.17 482.776 1178.71 483.992C1178.26 485.208 1177.52 486.232 1176.5 487.064ZM1170.38 483.824C1170.89 484.784 1171.69 485.264 1172.78 485.264C1173.87 485.264 1174.66 484.784 1175.16 483.824C1175.67 482.864 1175.92 481.592 1175.92 480.008C1175.92 478.424 1175.67 477.16 1175.16 476.216C1174.66 475.256 1173.87 474.776 1172.78 474.776C1171.69 474.776 1170.89 475.256 1170.38 476.216C1169.87 477.16 1169.61 478.424 1169.61 480.008C1169.61 481.592 1169.87 482.864 1170.38 483.824ZM1193.4 488H1181.35V485.336C1184.77 482.792 1187.04 480.984 1188.14 479.912C1189.26 478.824 1189.82 477.808 1189.82 476.864C1189.82 476.208 1189.57 475.696 1189.05 475.328C1188.54 474.96 1187.93 474.776 1187.23 474.776C1185.55 474.776 1184.12 475.392 1182.93 476.624L1180.99 474.368C1181.74 473.504 1182.66 472.856 1183.75 472.424C1184.85 471.976 1185.99 471.752 1187.16 471.752C1188.92 471.752 1190.37 472.216 1191.53 473.144C1192.69 474.072 1193.28 475.312 1193.28 476.864C1193.28 478.176 1192.76 479.464 1191.72 480.728C1190.69 481.976 1189.08 483.4 1186.87 485H1193.4V488ZM1201.41 488.288C1200 488.288 1198.75 488.056 1197.66 487.592C1196.57 487.112 1195.72 486.488 1195.09 485.72L1196.87 483.44C1197.41 484 1198.09 484.448 1198.89 484.784C1199.69 485.104 1200.49 485.264 1201.29 485.264C1202.25 485.264 1202.99 485.08 1203.52 484.712C1204.05 484.328 1204.31 483.832 1204.31 483.224C1204.31 482.584 1204.05 482.12 1203.54 481.832C1203.03 481.528 1202.21 481.376 1201.09 481.376C1200.09 481.376 1199.42 481.392 1199.1 481.424V478.352C1199.29 478.368 1199.96 478.376 1201.09 478.376C1203.06 478.376 1204.05 477.808 1204.05 476.672C1204.05 476.064 1203.77 475.6 1203.21 475.28C1202.66 474.944 1201.95 474.776 1201.07 474.776C1199.52 474.776 1198.17 475.328 1197.01 476.432L1195.31 474.296C1196.81 472.6 1198.85 471.752 1201.43 471.752C1203.3 471.752 1204.77 472.144 1205.85 472.928C1206.93 473.712 1207.48 474.768 1207.48 476.096C1207.48 477.056 1207.13 477.864 1206.45 478.52C1205.76 479.16 1204.93 479.568 1203.97 479.744C1204.92 479.84 1205.77 480.232 1206.54 480.92C1207.33 481.592 1207.72 482.48 1207.72 483.584C1207.72 484.976 1207.14 486.112 1205.99 486.992C1204.84 487.856 1203.31 488.288 1201.41 488.288ZM1213.14 479.552C1212.76 479.936 1212.3 480.128 1211.77 480.128C1211.24 480.128 1210.79 479.936 1210.4 479.552C1210.02 479.168 1209.83 478.712 1209.83 478.184C1209.83 477.656 1210.02 477.2 1210.4 476.816C1210.79 476.432 1211.24 476.24 1211.77 476.24C1212.3 476.24 1212.76 476.432 1213.14 476.816C1213.52 477.2 1213.72 477.656 1213.72 478.184C1213.72 478.712 1213.52 479.168 1213.14 479.552ZM1213.14 487.688C1212.76 488.072 1212.3 488.264 1211.77 488.264C1211.24 488.264 1210.79 488.072 1210.4 487.688C1210.02 487.304 1209.83 486.848 1209.83 486.32C1209.83 485.792 1210.02 485.336 1210.4 484.952C1210.79 484.568 1211.24 484.376 1211.77 484.376C1212.3 484.376 1212.76 484.568 1213.14 484.952C1213.52 485.336 1213.72 485.792 1213.72 486.32C1213.72 486.848 1213.52 487.304 1213.14 487.688Z" fill="#80ECFE"/>
<path d="M1062.97 516C1067.96 516 1071.18 512.568 1071.18 508.008C1071.18 503.472 1067.96 499.992 1062.97 499.992H1057.5V516H1062.97ZM1062.97 514.224H1059.49V501.768H1062.97C1066.93 501.768 1069.12 504.552 1069.12 508.008C1069.12 511.44 1066.86 514.224 1062.97 514.224ZM1079.49 516.288C1081.36 516.288 1082.92 515.64 1084.1 514.488L1083.23 513.312C1082.3 514.272 1080.98 514.8 1079.63 514.8C1077.14 514.8 1075.63 512.976 1075.48 510.792H1084.84V510.336C1084.84 506.856 1082.78 504.12 1079.27 504.12C1075.96 504.12 1073.56 506.832 1073.56 510.192C1073.56 513.816 1076.03 516.288 1079.49 516.288ZM1083.07 509.448H1075.46C1075.55 507.696 1076.78 505.608 1079.25 505.608C1081.89 505.608 1083.04 507.744 1083.07 509.448ZM1092.82 516L1097.65 504.408H1095.7L1091.84 513.912L1088 504.408H1086.03L1090.85 516H1092.82ZM1104.78 516.288C1106.65 516.288 1108.21 515.64 1109.39 514.488L1108.52 513.312C1107.59 514.272 1106.27 514.8 1104.92 514.8C1102.43 514.8 1100.91 512.976 1100.77 510.792H1110.13V510.336C1110.13 506.856 1108.07 504.12 1104.56 504.12C1101.25 504.12 1098.85 506.832 1098.85 510.192C1098.85 513.816 1101.32 516.288 1104.78 516.288ZM1108.35 509.448H1100.75C1100.84 507.696 1102.07 505.608 1104.54 505.608C1107.18 505.608 1108.33 507.744 1108.35 509.448ZM1114.85 516V499.992H1113.05V516H1114.85ZM1123.5 516.288C1127.03 516.288 1129.24 513.552 1129.24 510.192C1129.24 506.832 1127.03 504.12 1123.5 504.12C1119.97 504.12 1117.76 506.832 1117.76 510.192C1117.76 513.552 1119.97 516.288 1123.5 516.288ZM1123.5 514.68C1121.03 514.68 1119.66 512.568 1119.66 510.192C1119.66 507.84 1121.03 505.728 1123.5 505.728C1125.97 505.728 1127.34 507.84 1127.34 510.192C1127.34 512.568 1125.97 514.68 1123.5 514.68ZM1137.88 516.288C1140.93 516.288 1143.04 513.936 1143.04 510.192C1143.04 506.424 1140.93 504.12 1137.88 504.12C1136.25 504.12 1134.81 504.96 1133.97 506.136V504.408H1132.17V520.416H1133.97V514.248C1134.93 515.52 1136.3 516.288 1137.88 516.288ZM1137.43 514.68C1136.01 514.68 1134.6 513.816 1133.97 512.808V507.576C1134.6 506.568 1136.01 505.728 1137.43 505.728C1139.76 505.728 1141.15 507.624 1141.15 510.192C1141.15 512.76 1139.76 514.68 1137.43 514.68ZM1161.7 516V507.624C1161.7 505.296 1160.57 504.12 1158.46 504.12C1156.78 504.12 1155.22 505.224 1154.57 506.28C1154.23 505.08 1153.23 504.12 1151.47 504.12C1149.75 504.12 1148.21 505.344 1147.71 506.088V504.408H1145.91V516H1147.71V507.528C1148.33 506.592 1149.58 505.728 1150.75 505.728C1152.29 505.728 1152.89 506.664 1152.89 508.128V516H1154.69V507.504C1155.29 506.568 1156.56 505.728 1157.76 505.728C1159.27 505.728 1159.9 506.664 1159.9 508.128V516H1161.7ZM1170.54 516.288C1172.42 516.288 1173.98 515.64 1175.15 514.488L1174.29 513.312C1173.35 514.272 1172.03 514.8 1170.69 514.8C1168.19 514.8 1166.68 512.976 1166.54 510.792H1175.9V510.336C1175.9 506.856 1173.83 504.12 1170.33 504.12C1167.02 504.12 1164.62 506.832 1164.62 510.192C1164.62 513.816 1167.09 516.288 1170.54 516.288ZM1174.12 509.448H1166.51C1166.61 507.696 1167.83 505.608 1170.3 505.608C1172.94 505.608 1174.1 507.744 1174.12 509.448ZM1188.44 516V507.864C1188.44 505.344 1187.16 504.12 1184.76 504.12C1183.01 504.12 1181.43 505.104 1180.61 506.088V504.408H1178.81V516H1180.61V507.528C1181.31 506.592 1182.63 505.728 1184.04 505.728C1185.6 505.728 1186.66 506.352 1186.66 508.416V516H1188.44ZM1195.01 516.288C1196.04 516.288 1196.69 515.976 1197.14 515.544L1196.61 514.176C1196.37 514.44 1195.92 514.68 1195.39 514.68C1194.62 514.68 1194.24 514.056 1194.24 513.192V505.992H1196.59V504.408H1194.24V501.24H1192.41V504.408H1190.49V505.992H1192.41V513.576C1192.41 515.304 1193.28 516.288 1195.01 516.288ZM1210.38 516.288C1213.91 516.288 1216.12 513.552 1216.12 510.192C1216.12 506.832 1213.91 504.12 1210.38 504.12C1206.86 504.12 1204.65 506.832 1204.65 510.192C1204.65 513.552 1206.86 516.288 1210.38 516.288ZM1210.38 514.68C1207.91 514.68 1206.54 512.568 1206.54 510.192C1206.54 507.84 1207.91 505.728 1210.38 505.728C1212.86 505.728 1214.22 507.84 1214.22 510.192C1214.22 512.568 1212.86 514.68 1210.38 514.68ZM1221.36 516V505.992H1223.71V504.408H1221.36V503.52C1221.36 502.032 1222.01 501.24 1223.21 501.24C1223.78 501.24 1224.24 501.456 1224.62 501.792L1225.37 500.64C1224.65 499.968 1223.85 499.752 1222.92 499.752C1220.88 499.752 1219.56 501.144 1219.56 503.52V504.408H1217.64V505.992H1219.56V516H1221.36ZM1237.2 516.288C1239.31 516.288 1240.56 515.424 1241.45 514.272L1240.25 513.168C1239.48 514.2 1238.49 514.68 1237.29 514.68C1234.85 514.68 1233.29 512.76 1233.29 510.192C1233.29 507.624 1234.85 505.728 1237.29 505.728C1238.49 505.728 1239.48 506.16 1240.25 507.216L1241.45 506.136C1240.56 504.984 1239.31 504.12 1237.2 504.12C1233.74 504.12 1231.41 506.76 1231.41 510.192C1231.41 513.624 1233.74 516.288 1237.2 516.288ZM1249.06 516.288C1252.58 516.288 1254.79 513.552 1254.79 510.192C1254.79 506.832 1252.58 504.12 1249.06 504.12C1245.53 504.12 1243.32 506.832 1243.32 510.192C1243.32 513.552 1245.53 516.288 1249.06 516.288ZM1249.06 514.68C1246.58 514.68 1245.22 512.568 1245.22 510.192C1245.22 507.84 1246.58 505.728 1249.06 505.728C1251.53 505.728 1252.9 507.84 1252.9 510.192C1252.9 512.568 1251.53 514.68 1249.06 514.68ZM1259.53 516V507.792C1260.05 506.856 1261.57 505.944 1262.69 505.944C1262.96 505.944 1263.17 505.968 1263.39 505.992V504.144C1261.81 504.144 1260.46 505.056 1259.53 506.256V504.408H1257.73V516H1259.53ZM1270.9 516.288C1272.78 516.288 1274.34 515.64 1275.51 514.488L1274.65 513.312C1273.71 514.272 1272.39 514.8 1271.05 514.8C1268.55 514.8 1267.04 512.976 1266.9 510.792H1276.26V510.336C1276.26 506.856 1274.19 504.12 1270.69 504.12C1267.38 504.12 1264.98 506.832 1264.98 510.192C1264.98 513.816 1267.45 516.288 1270.9 516.288ZM1274.48 509.448H1266.87C1266.97 507.696 1268.19 505.608 1270.66 505.608C1273.3 505.608 1274.46 507.744 1274.48 509.448ZM1047.75 544.288C1050.8 544.288 1052.91 541.936 1052.91 538.192C1052.91 534.424 1050.8 532.12 1047.75 532.12C1046.12 532.12 1044.68 532.96 1043.84 534.136V532.408H1042.04V548.416H1043.84V542.248C1044.8 543.52 1046.17 544.288 1047.75 544.288ZM1047.3 542.68C1045.88 542.68 1044.47 541.816 1043.84 540.808V535.576C1044.47 534.568 1045.88 533.728 1047.3 533.728C1049.63 533.728 1051.02 535.624 1051.02 538.192C1051.02 540.76 1049.63 542.68 1047.3 542.68ZM1057.58 544V527.992H1055.78V544H1057.58ZM1070.22 544V536.032C1070.22 533.224 1068.2 532.12 1065.73 532.12C1063.83 532.12 1062.34 532.744 1061.1 534.04L1061.94 535.288C1062.97 534.16 1064.1 533.68 1065.49 533.68C1067.17 533.68 1068.42 534.568 1068.42 536.104V538.192C1067.48 537.136 1066.16 536.632 1064.58 536.632C1062.61 536.632 1060.54 537.832 1060.54 540.448C1060.54 542.968 1062.63 544.288 1064.58 544.288C1066.14 544.288 1067.48 543.736 1068.42 542.68V544H1070.22ZM1065.25 542.992C1063.54 542.992 1062.37 541.936 1062.37 540.448C1062.37 538.984 1063.54 537.928 1065.25 537.928C1066.5 537.928 1067.72 538.408 1068.42 539.344V541.552C1067.72 542.512 1066.5 542.992 1065.25 542.992ZM1076.8 544.288C1077.83 544.288 1078.48 543.976 1078.93 543.544L1078.41 542.176C1078.17 542.44 1077.71 542.68 1077.18 542.68C1076.41 542.68 1076.03 542.056 1076.03 541.192V533.992H1078.38V532.408H1076.03V529.24H1074.21V532.408H1072.29V533.992H1074.21V541.576C1074.21 543.304 1075.07 544.288 1076.8 544.288ZM1083.21 544V533.992H1085.56V532.408H1083.21V531.52C1083.21 530.032 1083.85 529.24 1085.05 529.24C1085.63 529.24 1086.09 529.456 1086.47 529.792L1087.21 528.64C1086.49 527.968 1085.7 527.752 1084.77 527.752C1082.73 527.752 1081.41 529.144 1081.41 531.52V532.408H1079.49V533.992H1081.41V544H1083.21ZM1092.79 544.288C1096.31 544.288 1098.52 541.552 1098.52 538.192C1098.52 534.832 1096.31 532.12 1092.79 532.12C1089.26 532.12 1087.05 534.832 1087.05 538.192C1087.05 541.552 1089.26 544.288 1092.79 544.288ZM1092.79 542.68C1090.31 542.68 1088.95 540.568 1088.95 538.192C1088.95 535.84 1090.31 533.728 1092.79 533.728C1095.26 533.728 1096.63 535.84 1096.63 538.192C1096.63 540.568 1095.26 542.68 1092.79 542.68ZM1103.26 544V535.792C1103.78 534.856 1105.3 533.944 1106.42 533.944C1106.69 533.944 1106.9 533.968 1107.12 533.992V532.144C1105.54 532.144 1104.19 533.056 1103.26 534.256V532.408H1101.46V544H1103.26ZM1125.17 544V535.624C1125.17 533.296 1124.04 532.12 1121.93 532.12C1120.25 532.12 1118.69 533.224 1118.04 534.28C1117.71 533.08 1116.7 532.12 1114.95 532.12C1113.22 532.12 1111.68 533.344 1111.18 534.088V532.408H1109.38V544H1111.18V535.528C1111.8 534.592 1113.05 533.728 1114.23 533.728C1115.76 533.728 1116.36 534.664 1116.36 536.128V544H1118.16V535.504C1118.76 534.568 1120.03 533.728 1121.23 533.728C1122.75 533.728 1123.37 534.664 1123.37 536.128V544H1125.17ZM1137.28 544V533.992H1139.63V532.408H1137.28V531.52C1137.28 530.032 1137.92 529.24 1139.12 529.24C1139.7 529.24 1140.16 529.456 1140.54 529.792L1141.28 528.64C1140.56 527.968 1139.77 527.752 1138.84 527.752C1136.8 527.752 1135.48 529.144 1135.48 531.52V532.408H1133.56V533.992H1135.48V544H1137.28ZM1147.05 544.288C1148.92 544.288 1150.48 543.64 1151.66 542.488L1150.79 541.312C1149.86 542.272 1148.54 542.8 1147.19 542.8C1144.7 542.8 1143.18 540.976 1143.04 538.792H1152.4V538.336C1152.4 534.856 1150.34 532.12 1146.83 532.12C1143.52 532.12 1141.12 534.832 1141.12 538.192C1141.12 541.816 1143.59 544.288 1147.05 544.288ZM1150.62 537.448H1143.02C1143.11 535.696 1144.34 533.608 1146.81 533.608C1149.45 533.608 1150.6 535.744 1150.62 537.448ZM1164.36 544V536.032C1164.36 533.224 1162.35 532.12 1159.88 532.12C1157.98 532.12 1156.49 532.744 1155.24 534.04L1156.08 535.288C1157.12 534.16 1158.24 533.68 1159.64 533.68C1161.32 533.68 1162.56 534.568 1162.56 536.104V538.192C1161.63 537.136 1160.31 536.632 1158.72 536.632C1156.76 536.632 1154.69 537.832 1154.69 540.448C1154.69 542.968 1156.78 544.288 1158.72 544.288C1160.28 544.288 1161.63 543.736 1162.56 542.68V544H1164.36ZM1159.4 542.992C1157.69 542.992 1156.52 541.936 1156.52 540.448C1156.52 538.984 1157.69 537.928 1159.4 537.928C1160.64 537.928 1161.87 538.408 1162.56 539.344V541.552C1161.87 542.512 1160.64 542.992 1159.4 542.992ZM1170.95 544.288C1171.98 544.288 1172.63 543.976 1173.08 543.544L1172.56 542.176C1172.32 542.44 1171.86 542.68 1171.33 542.68C1170.56 542.68 1170.18 542.056 1170.18 541.192V533.992H1172.53V532.408H1170.18V529.24H1168.36V532.408H1166.44V533.992H1168.36V541.576C1168.36 543.304 1169.22 544.288 1170.95 544.288ZM1184.67 544V532.408H1182.87V540.928C1182.2 541.864 1180.86 542.68 1179.47 542.68C1177.88 542.68 1176.85 542.08 1176.85 540.04V532.408H1175.05V540.592C1175.05 543.088 1176.32 544.288 1178.75 544.288C1180.47 544.288 1181.99 543.376 1182.87 542.368V544H1184.67ZM1190.07 544V535.792C1190.6 534.856 1192.11 533.944 1193.24 533.944C1193.5 533.944 1193.72 533.968 1193.93 533.992V532.144C1192.35 532.144 1191 533.056 1190.07 534.256V532.408H1188.27V544H1190.07ZM1201.45 544.288C1203.32 544.288 1204.88 543.64 1206.05 542.488L1205.19 541.312C1204.25 542.272 1202.93 542.8 1201.59 542.8C1199.09 542.8 1197.58 540.976 1197.44 538.792H1206.8V538.336C1206.8 534.856 1204.73 532.12 1201.23 532.12C1197.92 532.12 1195.52 534.832 1195.52 538.192C1195.52 541.816 1197.99 544.288 1201.45 544.288ZM1205.02 537.448H1197.41C1197.51 535.696 1198.73 533.608 1201.21 533.608C1203.85 533.608 1205 535.744 1205.02 537.448ZM1213.41 544.288C1216.39 544.288 1217.95 542.728 1217.95 540.784C1217.95 536.272 1210.77 537.928 1210.77 535.408C1210.77 534.376 1211.75 533.584 1213.34 533.584C1214.85 533.584 1216.1 534.208 1216.79 535.048L1217.63 533.8C1216.72 532.864 1215.33 532.12 1213.34 532.12C1210.58 532.12 1209.04 533.632 1209.04 535.456C1209.04 539.752 1216.22 538.024 1216.22 540.832C1216.22 541.984 1215.23 542.824 1213.46 542.824C1211.87 542.824 1210.41 542.056 1209.64 541.168L1208.73 542.464C1209.91 543.688 1211.49 544.288 1213.41 544.288ZM1236.13 544V536.032C1236.13 533.224 1234.11 532.12 1231.64 532.12C1229.75 532.12 1228.26 532.744 1227.01 534.04L1227.85 535.288C1228.88 534.16 1230.01 533.68 1231.4 533.68C1233.08 533.68 1234.33 534.568 1234.33 536.104V538.192C1233.39 537.136 1232.07 536.632 1230.49 536.632C1228.52 536.632 1226.46 537.832 1226.46 540.448C1226.46 542.968 1228.55 544.288 1230.49 544.288C1232.05 544.288 1233.39 543.736 1234.33 542.68V544H1236.13ZM1231.16 542.992C1229.46 542.992 1228.28 541.936 1228.28 540.448C1228.28 538.984 1229.46 537.928 1231.16 537.928C1232.41 537.928 1233.63 538.408 1234.33 539.344V541.552C1233.63 542.512 1232.41 542.992 1231.16 542.992ZM1249.38 544V535.864C1249.38 533.344 1248.11 532.12 1245.71 532.12C1243.96 532.12 1242.38 533.104 1241.56 534.088V532.408H1239.76V544H1241.56V535.528C1242.26 534.592 1243.58 533.728 1244.99 533.728C1246.55 533.728 1247.61 534.352 1247.61 536.416V544H1249.38ZM1263.2 544V527.992H1261.4V534.16C1260.47 532.888 1259.05 532.12 1257.49 532.12C1254.47 532.12 1252.33 534.496 1252.33 538.216C1252.33 541.984 1254.47 544.288 1257.49 544.288C1259.12 544.288 1260.54 543.448 1261.4 542.272V544H1263.2ZM1257.95 542.68C1255.6 542.68 1254.2 540.784 1254.2 538.216C1254.2 535.648 1255.6 533.728 1257.95 533.728C1259.36 533.728 1260.78 534.592 1261.4 535.6V540.832C1260.78 541.84 1259.36 542.68 1257.95 542.68ZM1286.79 544L1280.36 527.992H1277.89L1271.43 544H1273.71L1275.13 540.424H1283.1L1284.51 544H1286.79ZM1282.52 538.672H1275.73L1279.11 530.032L1282.52 538.672ZM1290.88 544V527.992H1288.89V544H1290.88ZM1053.08 572.288C1055.2 572.288 1056.44 571.424 1057.33 570.272L1056.13 569.168C1055.36 570.2 1054.38 570.68 1053.18 570.68C1050.73 570.68 1049.17 568.76 1049.17 566.192C1049.17 563.624 1050.73 561.728 1053.18 561.728C1054.38 561.728 1055.36 562.16 1056.13 563.216L1057.33 562.136C1056.44 560.984 1055.2 560.12 1053.08 560.12C1049.63 560.12 1047.3 562.76 1047.3 566.192C1047.3 569.624 1049.63 572.288 1053.08 572.288ZM1064.94 572.288C1068.47 572.288 1070.68 569.552 1070.68 566.192C1070.68 562.832 1068.47 560.12 1064.94 560.12C1061.41 560.12 1059.21 562.832 1059.21 566.192C1059.21 569.552 1061.41 572.288 1064.94 572.288ZM1064.94 570.68C1062.47 570.68 1061.1 568.568 1061.1 566.192C1061.1 563.84 1062.47 561.728 1064.94 561.728C1067.41 561.728 1068.78 563.84 1068.78 566.192C1068.78 568.568 1067.41 570.68 1064.94 570.68ZM1089.4 572V563.624C1089.4 561.296 1088.28 560.12 1086.16 560.12C1084.48 560.12 1082.92 561.224 1082.28 562.28C1081.94 561.08 1080.93 560.12 1079.18 560.12C1077.45 560.12 1075.92 561.344 1075.41 562.088V560.408H1073.61V572H1075.41V563.528C1076.04 562.592 1077.28 561.728 1078.46 561.728C1080 561.728 1080.6 562.664 1080.6 564.128V572H1082.4V563.504C1083 562.568 1084.27 561.728 1085.47 561.728C1086.98 561.728 1087.6 562.664 1087.6 564.128V572H1089.4ZM1098.71 572.288C1101.76 572.288 1103.87 569.936 1103.87 566.192C1103.87 562.424 1101.76 560.12 1098.71 560.12C1097.08 560.12 1095.64 560.96 1094.8 562.136V560.408H1093V576.416H1094.8V570.248C1095.76 571.52 1097.12 572.288 1098.71 572.288ZM1098.25 570.68C1096.84 570.68 1095.42 569.816 1094.8 568.808V563.576C1095.42 562.568 1096.84 561.728 1098.25 561.728C1100.58 561.728 1101.97 563.624 1101.97 566.192C1101.97 568.76 1100.58 570.68 1098.25 570.68ZM1115.78 572V564.032C1115.78 561.224 1113.76 560.12 1111.29 560.12C1109.39 560.12 1107.91 560.744 1106.66 562.04L1107.5 563.288C1108.53 562.16 1109.66 561.68 1111.05 561.68C1112.73 561.68 1113.98 562.568 1113.98 564.104V566.192C1113.04 565.136 1111.72 564.632 1110.14 564.632C1108.17 564.632 1106.11 565.832 1106.11 568.448C1106.11 570.968 1108.19 572.288 1110.14 572.288C1111.7 572.288 1113.04 571.736 1113.98 570.68V572H1115.78ZM1110.81 570.992C1109.11 570.992 1107.93 569.936 1107.93 568.448C1107.93 566.984 1109.11 565.928 1110.81 565.928C1112.06 565.928 1113.28 566.408 1113.98 567.344V569.552C1113.28 570.512 1112.06 570.992 1110.81 570.992ZM1129.03 572V563.864C1129.03 561.344 1127.76 560.12 1125.36 560.12C1123.61 560.12 1122.03 561.104 1121.21 562.088V560.408H1119.41V572H1121.21V563.528C1121.91 562.592 1123.23 561.728 1124.64 561.728C1126.2 561.728 1127.26 562.352 1127.26 564.416V572H1129.03ZM1133.56 558.752C1134.24 558.752 1134.76 558.224 1134.76 557.552C1134.76 556.88 1134.24 556.328 1133.56 556.328C1132.89 556.328 1132.34 556.88 1132.34 557.552C1132.34 558.224 1132.89 558.752 1133.56 558.752ZM1134.45 572V560.408H1132.65V572H1134.45ZM1143.11 572.288C1146.63 572.288 1148.84 569.552 1148.84 566.192C1148.84 562.832 1146.63 560.12 1143.11 560.12C1139.58 560.12 1137.37 562.832 1137.37 566.192C1137.37 569.552 1139.58 572.288 1143.11 572.288ZM1143.11 570.68C1140.63 570.68 1139.27 568.568 1139.27 566.192C1139.27 563.84 1140.63 561.728 1143.11 561.728C1145.58 561.728 1146.95 563.84 1146.95 566.192C1146.95 568.568 1145.58 570.68 1143.11 570.68ZM1161.4 572V563.864C1161.4 561.344 1160.13 560.12 1157.73 560.12C1155.98 560.12 1154.39 561.104 1153.58 562.088V560.408H1151.78V572H1153.58V563.528C1154.27 562.592 1155.59 561.728 1157.01 561.728C1158.57 561.728 1159.62 562.352 1159.62 564.416V572H1161.4ZM1174.18 572.288C1175.21 572.288 1175.86 571.976 1176.32 571.544L1175.79 570.176C1175.55 570.44 1175.09 570.68 1174.57 570.68C1173.8 570.68 1173.41 570.056 1173.41 569.192V561.992H1175.77V560.408H1173.41V557.24H1171.59V560.408H1169.67V561.992H1171.59V569.576C1171.59 571.304 1172.45 572.288 1174.18 572.288ZM1183.54 572.288C1185.41 572.288 1186.97 571.64 1188.15 570.488L1187.28 569.312C1186.35 570.272 1185.03 570.8 1183.68 570.8C1181.19 570.8 1179.68 568.976 1179.53 566.792H1188.89V566.336C1188.89 562.856 1186.83 560.12 1183.32 560.12C1180.01 560.12 1177.61 562.832 1177.61 566.192C1177.61 569.816 1180.08 572.288 1183.54 572.288ZM1187.12 565.448H1179.51C1179.6 563.696 1180.83 561.608 1183.3 561.608C1185.94 561.608 1187.09 563.744 1187.12 565.448ZM1196.92 572.288C1199.03 572.288 1200.28 571.424 1201.17 570.272L1199.97 569.168C1199.2 570.2 1198.22 570.68 1197.02 570.68C1194.57 570.68 1193.01 568.76 1193.01 566.192C1193.01 563.624 1194.57 561.728 1197.02 561.728C1198.22 561.728 1199.2 562.16 1199.97 563.216L1201.17 562.136C1200.28 560.984 1199.03 560.12 1196.92 560.12C1193.46 560.12 1191.14 562.76 1191.14 566.192C1191.14 569.624 1193.46 572.288 1196.92 572.288ZM1213.36 572V563.816C1213.36 561.296 1212.09 560.12 1209.67 560.12C1207.91 560.12 1206.33 561.104 1205.54 562.088V555.992H1203.74V572H1205.54V563.528C1206.21 562.592 1207.55 561.728 1208.95 561.728C1210.53 561.728 1211.56 562.304 1211.56 564.368V572H1213.36ZM1226.58 572V563.864C1226.58 561.344 1225.31 560.12 1222.91 560.12C1221.16 560.12 1219.57 561.104 1218.76 562.088V560.408H1216.96V572H1218.76V563.528C1219.45 562.592 1220.77 561.728 1222.19 561.728C1223.75 561.728 1224.8 562.352 1224.8 564.416V572H1226.58ZM1235.26 572.288C1238.79 572.288 1241 569.552 1241 566.192C1241 562.832 1238.79 560.12 1235.26 560.12C1231.73 560.12 1229.53 562.832 1229.53 566.192C1229.53 569.552 1231.73 572.288 1235.26 572.288ZM1235.26 570.68C1232.79 570.68 1231.42 568.568 1231.42 566.192C1231.42 563.84 1232.79 561.728 1235.26 561.728C1237.73 561.728 1239.1 563.84 1239.1 566.192C1239.1 568.568 1237.73 570.68 1235.26 570.68ZM1245.73 572V555.992H1243.93V572H1245.73ZM1254.39 572.288C1257.92 572.288 1260.12 569.552 1260.12 566.192C1260.12 562.832 1257.92 560.12 1254.39 560.12C1250.86 560.12 1248.65 562.832 1248.65 566.192C1248.65 569.552 1250.86 572.288 1254.39 572.288ZM1254.39 570.68C1251.92 570.68 1250.55 568.568 1250.55 566.192C1250.55 563.84 1251.92 561.728 1254.39 561.728C1256.86 561.728 1258.23 563.84 1258.23 566.192C1258.23 568.568 1256.86 570.68 1254.39 570.68ZM1267.71 576.704C1270.55 576.704 1273.26 575.504 1273.26 571.832V560.408H1271.46V562.16C1270.52 560.888 1269.11 560.12 1267.55 560.12C1264.5 560.12 1262.39 562.424 1262.39 566.144C1262.39 569.888 1264.52 572.144 1267.55 572.144C1269.18 572.144 1270.59 571.256 1271.46 570.08V571.832C1271.46 574.28 1269.63 575.216 1267.71 575.216C1266.06 575.216 1264.91 574.784 1263.95 573.656L1263.03 574.952C1264.43 576.32 1265.77 576.704 1267.71 576.704ZM1268 570.536C1265.65 570.536 1264.26 568.688 1264.26 566.144C1264.26 563.576 1265.65 561.728 1268 561.728C1269.42 561.728 1270.81 562.592 1271.46 563.576V568.664C1270.81 569.672 1269.42 570.536 1268 570.536ZM1276.24 576.536C1276.55 576.632 1277.15 576.704 1277.53 576.704C1279.07 576.68 1280.25 576.032 1280.94 574.352L1286.75 560.408H1284.81L1280.94 569.912L1277.1 560.408H1275.13L1279.98 572.12L1279.21 573.872C1278.81 574.832 1278.28 575.096 1277.49 575.096C1277.2 575.096 1276.77 575.024 1276.5 574.904L1276.24 576.536Z" fill="white"/>
<path d="M767.422 322.288C765.006 322.288 763.006 321.512 761.422 319.96C759.854 318.392 759.07 316.408 759.07 314.008C759.07 311.608 759.854 309.632 761.422 308.08C763.006 306.512 765.006 305.728 767.422 305.728C769.854 305.728 771.854 306.504 773.422 308.056C775.006 309.608 775.798 311.592 775.798 314.008C775.798 316.264 775.102 318.152 773.71 319.672L774.886 321.04L772.51 322.984L771.214 321.496C770.03 322.024 768.766 322.288 767.422 322.288ZM767.422 319.264C767.982 319.264 768.542 319.176 769.102 319L767.35 316.936L769.702 314.992L771.478 317.08C772.022 316.184 772.294 315.16 772.294 314.008C772.294 312.488 771.846 311.232 770.95 310.24C770.054 309.248 768.878 308.752 767.422 308.752C765.966 308.752 764.79 309.248 763.894 310.24C763.014 311.232 762.574 312.488 762.574 314.008C762.574 315.528 763.014 316.784 763.894 317.776C764.79 318.768 765.966 319.264 767.422 319.264ZM783.397 322.288C781.989 322.288 780.741 322.056 779.653 321.592C778.565 321.112 777.709 320.488 777.085 319.72L778.861 317.44C779.405 318 780.077 318.448 780.877 318.784C781.677 319.104 782.477 319.264 783.277 319.264C784.237 319.264 784.981 319.08 785.509 318.712C786.037 318.328 786.301 317.832 786.301 317.224C786.301 316.584 786.045 316.12 785.533 315.832C785.021 315.528 784.205 315.376 783.085 315.376C782.077 315.376 781.413 315.392 781.093 315.424V312.352C781.285 312.368 781.949 312.376 783.085 312.376C785.053 312.376 786.037 311.808 786.037 310.672C786.037 310.064 785.757 309.6 785.197 309.28C784.653 308.944 783.941 308.776 783.061 308.776C781.509 308.776 780.157 309.328 779.005 310.432L777.301 308.296C778.805 306.6 780.845 305.752 783.421 305.752C785.293 305.752 786.765 306.144 787.837 306.928C788.925 307.712 789.469 308.768 789.469 310.096C789.469 311.056 789.125 311.864 788.437 312.52C787.749 313.16 786.925 313.568 785.965 313.744C786.909 313.84 787.765 314.232 788.533 314.92C789.317 315.592 789.709 316.48 789.709 317.584C789.709 318.976 789.133 320.112 787.981 320.992C786.829 321.856 785.301 322.288 783.397 322.288ZM810.008 322H797.96V319.336C801.384 316.792 803.648 314.984 804.752 313.912C805.872 312.824 806.432 311.808 806.432 310.864C806.432 310.208 806.176 309.696 805.664 309.328C805.152 308.96 804.544 308.776 803.84 308.776C802.16 308.776 800.728 309.392 799.544 310.624L797.6 308.368C798.352 307.504 799.272 306.856 800.36 306.424C801.464 305.976 802.6 305.752 803.768 305.752C805.528 305.752 806.984 306.216 808.136 307.144C809.304 308.072 809.888 309.312 809.888 310.864C809.888 312.176 809.368 313.464 808.328 314.728C807.304 315.976 805.688 317.4 803.48 319H810.008V322ZM822.383 321.064C821.359 321.88 820.119 322.288 818.663 322.288C817.207 322.288 815.959 321.88 814.919 321.064C813.895 320.232 813.159 319.208 812.711 317.992C812.263 316.776 812.039 315.448 812.039 314.008C812.039 312.568 812.263 311.24 812.711 310.024C813.159 308.808 813.895 307.792 814.919 306.976C815.959 306.16 817.207 305.752 818.663 305.752C820.119 305.752 821.359 306.16 822.383 306.976C823.407 307.792 824.143 308.808 824.591 310.024C825.055 311.24 825.287 312.568 825.287 314.008C825.287 315.448 825.055 316.776 824.591 317.992C824.143 319.208 823.407 320.232 822.383 321.064ZM816.263 317.824C816.775 318.784 817.575 319.264 818.663 319.264C819.751 319.264 820.543 318.784 821.039 317.824C821.551 316.864 821.807 315.592 821.807 314.008C821.807 312.424 821.551 311.16 821.039 310.216C820.543 309.256 819.751 308.776 818.663 308.776C817.575 308.776 816.775 309.256 816.263 310.216C815.751 311.16 815.495 312.424 815.495 314.008C815.495 315.592 815.751 316.864 816.263 317.824ZM839.281 322H827.233V319.336C830.657 316.792 832.921 314.984 834.025 313.912C835.145 312.824 835.705 311.808 835.705 310.864C835.705 310.208 835.449 309.696 834.937 309.328C834.425 308.96 833.817 308.776 833.113 308.776C831.433 308.776 830.001 309.392 828.817 310.624L826.873 308.368C827.625 307.504 828.545 306.856 829.633 306.424C830.737 305.976 831.873 305.752 833.041 305.752C834.801 305.752 836.257 306.216 837.409 307.144C838.577 308.072 839.161 309.312 839.161 310.864C839.161 312.176 838.641 313.464 837.601 314.728C836.577 315.976 834.961 317.4 832.753 319H839.281V322ZM847.288 322.288C845.88 322.288 844.632 322.056 843.544 321.592C842.456 321.112 841.6 320.488 840.976 319.72L842.752 317.44C843.296 318 843.968 318.448 844.768 318.784C845.568 319.104 846.368 319.264 847.168 319.264C848.128 319.264 848.872 319.08 849.4 318.712C849.928 318.328 850.192 317.832 850.192 317.224C850.192 316.584 849.936 316.12 849.424 315.832C848.912 315.528 848.096 315.376 846.976 315.376C845.968 315.376 845.304 315.392 844.984 315.424V312.352C845.176 312.368 845.84 312.376 846.976 312.376C848.944 312.376 849.928 311.808 849.928 310.672C849.928 310.064 849.648 309.6 849.088 309.28C848.544 308.944 847.832 308.776 846.952 308.776C845.4 308.776 844.048 309.328 842.896 310.432L841.192 308.296C842.696 306.6 844.736 305.752 847.312 305.752C849.184 305.752 850.656 306.144 851.728 306.928C852.816 307.712 853.36 308.768 853.36 310.096C853.36 311.056 853.016 311.864 852.328 312.52C851.64 313.16 850.816 313.568 849.856 313.744C850.8 313.84 851.656 314.232 852.424 314.92C853.208 315.592 853.6 316.48 853.6 317.584C853.6 318.976 853.024 320.112 851.872 320.992C850.72 321.856 849.192 322.288 847.288 322.288ZM859.022 313.552C858.638 313.936 858.182 314.128 857.654 314.128C857.126 314.128 856.67 313.936 856.286 313.552C855.902 313.168 855.71 312.712 855.71 312.184C855.71 311.656 855.902 311.2 856.286 310.816C856.67 310.432 857.126 310.24 857.654 310.24C858.182 310.24 858.638 310.432 859.022 310.816C859.406 311.2 859.598 311.656 859.598 312.184C859.598 312.712 859.406 313.168 859.022 313.552ZM859.022 321.688C858.638 322.072 858.182 322.264 857.654 322.264C857.126 322.264 856.67 322.072 856.286 321.688C855.902 321.304 855.71 320.848 855.71 320.32C855.71 319.792 855.902 319.336 856.286 318.952C856.67 318.568 857.126 318.376 857.654 318.376C858.182 318.376 858.638 318.568 859.022 318.952C859.406 319.336 859.598 319.792 859.598 320.32C859.598 320.848 859.406 321.304 859.022 321.688Z" fill="#80ECFE"/>
<path d="M741.035 350V335.768H746.123V333.992H733.979V335.768H739.043V350H741.035ZM750.997 350.288C754.525 350.288 756.733 347.552 756.733 344.192C756.733 340.832 754.525 338.12 750.997 338.12C747.469 338.12 745.261 340.832 745.261 344.192C745.261 347.552 747.469 350.288 750.997 350.288ZM750.997 348.68C748.525 348.68 747.157 346.568 747.157 344.192C747.157 341.84 748.525 339.728 750.997 339.728C753.469 339.728 754.837 341.84 754.837 344.192C754.837 346.568 753.469 348.68 750.997 348.68ZM769.867 350L764.707 343.664L769.843 338.408H767.563L761.467 344.576V333.992H759.667V350H761.467V346.688L763.411 344.792L767.563 350H769.867ZM777.181 350.288C779.053 350.288 780.613 349.64 781.789 348.488L780.925 347.312C779.989 348.272 778.669 348.8 777.325 348.8C774.829 348.8 773.317 346.976 773.173 344.792H782.533V344.336C782.533 340.856 780.469 338.12 776.965 338.12C773.653 338.12 771.253 340.832 771.253 344.192C771.253 347.816 773.725 350.288 777.181 350.288ZM780.757 343.448H773.149C773.245 341.696 774.469 339.608 776.941 339.608C779.581 339.608 780.733 341.744 780.757 343.448ZM795.072 350V341.864C795.072 339.344 793.8 338.12 791.4 338.12C789.648 338.12 788.064 339.104 787.248 340.088V338.408H785.448V350H787.248V341.528C787.944 340.592 789.264 339.728 790.68 339.728C792.24 339.728 793.296 340.352 793.296 342.416V350H795.072ZM808.598 350.288C811.574 350.288 813.134 348.728 813.134 346.784C813.134 342.272 805.958 343.928 805.958 341.408C805.958 340.376 806.942 339.584 808.526 339.584C810.038 339.584 811.286 340.208 811.982 341.048L812.822 339.8C811.91 338.864 810.518 338.12 808.526 338.12C805.766 338.12 804.23 339.632 804.23 341.456C804.23 345.752 811.406 344.024 811.406 346.832C811.406 347.984 810.422 348.824 808.646 348.824C807.062 348.824 805.598 348.056 804.83 347.168L803.918 348.464C805.094 349.688 806.678 350.288 808.598 350.288ZM825.106 350V342.032C825.106 339.224 823.09 338.12 820.618 338.12C818.722 338.12 817.234 338.744 815.986 340.04L816.826 341.288C817.858 340.16 818.986 339.68 820.378 339.68C822.058 339.68 823.306 340.568 823.306 342.104V344.192C822.37 343.136 821.05 342.632 819.466 342.632C817.498 342.632 815.434 343.832 815.434 346.448C815.434 348.968 817.522 350.288 819.466 350.288C821.026 350.288 822.37 349.736 823.306 348.68V350H825.106ZM820.138 348.992C818.434 348.992 817.258 347.936 817.258 346.448C817.258 344.984 818.434 343.928 820.138 343.928C821.386 343.928 822.61 344.408 823.306 345.344V347.552C822.61 348.512 821.386 348.992 820.138 348.992ZM830.538 350V333.992H828.738V350H830.538ZM839.384 350.288C841.256 350.288 842.816 349.64 843.992 348.488L843.128 347.312C842.192 348.272 840.872 348.8 839.528 348.8C837.032 348.8 835.52 346.976 835.376 344.792H844.736V344.336C844.736 340.856 842.672 338.12 839.168 338.12C835.856 338.12 833.456 340.832 833.456 344.192C833.456 347.816 835.928 350.288 839.384 350.288ZM842.96 343.448H835.352C835.448 341.696 836.672 339.608 839.144 339.608C841.784 339.608 842.936 341.744 842.96 343.448ZM862.911 350V342.032C862.911 339.224 860.895 338.12 858.423 338.12C856.527 338.12 855.039 338.744 853.791 340.04L854.631 341.288C855.663 340.16 856.791 339.68 858.183 339.68C859.863 339.68 861.111 340.568 861.111 342.104V344.192C860.175 343.136 858.855 342.632 857.271 342.632C855.303 342.632 853.239 343.832 853.239 346.448C853.239 348.968 855.327 350.288 857.271 350.288C858.831 350.288 860.175 349.736 861.111 348.68V350H862.911ZM857.943 348.992C856.239 348.992 855.062 347.936 855.062 346.448C855.062 344.984 856.239 343.928 857.943 343.928C859.191 343.928 860.415 344.408 861.111 345.344V347.552C860.415 348.512 859.191 348.992 857.943 348.992ZM876.166 350V341.864C876.166 339.344 874.894 338.12 872.494 338.12C870.742 338.12 869.158 339.104 868.342 340.088V338.408H866.542V350H868.342V341.528C869.038 340.592 870.358 339.728 871.774 339.728C873.334 339.728 874.39 340.352 874.39 342.416V350H876.166ZM889.984 350V333.992H888.184V340.16C887.248 338.888 885.832 338.12 884.272 338.12C881.248 338.12 879.112 340.496 879.112 344.216C879.112 347.984 881.248 350.288 884.272 350.288C885.904 350.288 887.32 349.448 888.184 348.272V350H889.984ZM884.728 348.68C882.376 348.68 880.984 346.784 880.984 344.216C880.984 341.648 882.376 339.728 884.728 339.728C886.144 339.728 887.56 340.592 888.184 341.6V346.832C887.56 347.84 886.144 348.68 884.728 348.68ZM733.474 364.752C734.146 364.752 734.674 364.224 734.674 363.552C734.674 362.88 734.146 362.328 733.474 362.328C732.802 362.328 732.25 362.88 732.25 363.552C732.25 364.224 732.802 364.752 733.474 364.752ZM734.362 378V366.408H732.562V378H734.362ZM747.576 378V369.864C747.576 367.344 746.304 366.12 743.904 366.12C742.152 366.12 740.568 367.104 739.752 368.088V366.408H737.952V378H739.752V369.528C740.448 368.592 741.768 367.728 743.184 367.728C744.744 367.728 745.8 368.352 745.8 370.416V378H747.576ZM752.107 364.752C752.779 364.752 753.307 364.224 753.307 363.552C753.307 362.88 752.779 362.328 752.107 362.328C751.435 362.328 750.883 362.88 750.883 363.552C750.883 364.224 751.435 364.752 752.107 364.752ZM752.995 378V366.408H751.195V378H752.995ZM759.537 378.288C760.569 378.288 761.217 377.976 761.673 377.544L761.145 376.176C760.905 376.44 760.449 376.68 759.921 376.68C759.153 376.68 758.769 376.056 758.769 375.192V367.992H761.121V366.408H758.769V363.24H756.945V366.408H755.025V367.992H756.945V375.576C756.945 377.304 757.809 378.288 759.537 378.288ZM764.552 364.752C765.224 364.752 765.752 364.224 765.752 363.552C765.752 362.88 765.224 362.328 764.552 362.328C763.88 362.328 763.328 362.88 763.328 363.552C763.328 364.224 763.88 364.752 764.552 364.752ZM765.44 378V366.408H763.64V378H765.44ZM778.078 378V370.032C778.078 367.224 776.062 366.12 773.59 366.12C771.694 366.12 770.206 366.744 768.958 368.04L769.798 369.288C770.83 368.16 771.958 367.68 773.35 367.68C775.03 367.68 776.278 368.568 776.278 370.104V372.192C775.342 371.136 774.022 370.632 772.438 370.632C770.47 370.632 768.406 371.832 768.406 374.448C768.406 376.968 770.494 378.288 772.438 378.288C773.998 378.288 775.342 377.736 776.278 376.68V378H778.078ZM773.11 376.992C771.406 376.992 770.23 375.936 770.23 374.448C770.23 372.984 771.406 371.928 773.11 371.928C774.358 371.928 775.582 372.408 776.278 373.344V375.552C775.582 376.512 774.358 376.992 773.11 376.992ZM783.51 378V361.992H781.71V378H783.51ZM798.568 378.288C800.44 378.288 802 377.64 803.176 376.488L802.312 375.312C801.376 376.272 800.056 376.8 798.712 376.8C796.216 376.8 794.704 374.976 794.56 372.792H803.92V372.336C803.92 368.856 801.856 366.12 798.352 366.12C795.04 366.12 792.64 368.832 792.64 372.192C792.64 375.816 795.112 378.288 798.568 378.288ZM802.144 371.448H794.536C794.632 369.696 795.856 367.608 798.328 367.608C800.968 367.608 802.12 369.744 802.144 371.448ZM816.435 378L811.971 372.048L816.171 366.408H814.107L810.867 370.824L807.651 366.408H805.563L809.763 372.048L805.323 378H807.387L810.867 373.248L814.371 378H816.435ZM822.752 378.288C824.864 378.288 826.112 377.424 827 376.272L825.8 375.168C825.032 376.2 824.048 376.68 822.848 376.68C820.4 376.68 818.84 374.76 818.84 372.192C818.84 369.624 820.4 367.728 822.848 367.728C824.048 367.728 825.032 368.16 825.8 369.216L827 368.136C826.112 366.984 824.864 366.12 822.752 366.12C819.296 366.12 816.968 368.76 816.968 372.192C816.968 375.624 819.296 378.288 822.752 378.288ZM839.194 378V369.816C839.194 367.296 837.922 366.12 835.498 366.12C833.746 366.12 832.162 367.104 831.37 368.088V361.992H829.57V378H831.37V369.528C832.042 368.592 833.386 367.728 834.778 367.728C836.362 367.728 837.394 368.304 837.394 370.368V378H839.194ZM851.836 378V370.032C851.836 367.224 849.82 366.12 847.348 366.12C845.452 366.12 843.964 366.744 842.716 368.04L843.556 369.288C844.588 368.16 845.716 367.68 847.108 367.68C848.788 367.68 850.036 368.568 850.036 370.104V372.192C849.1 371.136 847.78 370.632 846.196 370.632C844.228 370.632 842.164 371.832 842.164 374.448C842.164 376.968 844.252 378.288 846.196 378.288C847.756 378.288 849.1 377.736 850.036 376.68V378H851.836ZM846.868 376.992C845.164 376.992 843.988 375.936 843.988 374.448C843.988 372.984 845.164 371.928 846.868 371.928C848.116 371.928 849.34 372.408 850.036 373.344V375.552C849.34 376.512 848.116 376.992 846.868 376.992ZM865.092 378V369.864C865.092 367.344 863.82 366.12 861.42 366.12C859.668 366.12 858.084 367.104 857.268 368.088V366.408H855.468V378H857.268V369.528C857.964 368.592 859.284 367.728 860.7 367.728C862.26 367.728 863.316 368.352 863.316 370.416V378H865.092ZM873.366 382.704C876.198 382.704 878.91 381.504 878.91 377.832V366.408H877.11V368.16C876.174 366.888 874.758 366.12 873.198 366.12C870.15 366.12 868.038 368.424 868.038 372.144C868.038 375.888 870.174 378.144 873.198 378.144C874.83 378.144 876.246 377.256 877.11 376.08V377.832C877.11 380.28 875.286 381.216 873.366 381.216C871.71 381.216 870.558 380.784 869.598 379.656L868.686 380.952C870.078 382.32 871.422 382.704 873.366 382.704ZM873.654 376.536C871.302 376.536 869.91 374.688 869.91 372.144C869.91 369.576 871.302 367.728 873.654 367.728C875.07 367.728 876.462 368.592 877.11 369.576V374.664C876.462 375.672 875.07 376.536 873.654 376.536ZM887.771 378.288C889.643 378.288 891.203 377.64 892.379 376.488L891.515 375.312C890.579 376.272 889.259 376.8 887.915 376.8C885.419 376.8 883.907 374.976 883.763 372.792H893.123V372.336C893.123 368.856 891.059 366.12 887.555 366.12C884.243 366.12 881.843 368.832 881.843 372.192C881.843 375.816 884.315 378.288 887.771 378.288ZM891.347 371.448H883.739C883.835 369.696 885.059 367.608 887.531 367.608C890.171 367.608 891.323 369.744 891.347 371.448ZM779.807 406V389.992H778.007V406H779.807ZM784.31 392.752C784.982 392.752 785.51 392.224 785.51 391.552C785.51 390.88 784.982 390.328 784.31 390.328C783.638 390.328 783.086 390.88 783.086 391.552C783.086 392.224 783.638 392.752 784.31 392.752ZM785.198 406V394.408H783.398V406H785.198ZM792.484 406.288C795.46 406.288 797.02 404.728 797.02 402.784C797.02 398.272 789.844 399.928 789.844 397.408C789.844 396.376 790.828 395.584 792.412 395.584C793.924 395.584 795.172 396.208 795.868 397.048L796.708 395.8C795.796 394.864 794.404 394.12 792.412 394.12C789.652 394.12 788.116 395.632 788.116 397.456C788.116 401.752 795.292 400.024 795.292 402.832C795.292 403.984 794.308 404.824 792.532 404.824C790.948 404.824 789.484 404.056 788.716 403.168L787.804 404.464C788.98 405.688 790.564 406.288 792.484 406.288ZM802.897 406.288C803.929 406.288 804.577 405.976 805.033 405.544L804.505 404.176C804.265 404.44 803.809 404.68 803.281 404.68C802.513 404.68 802.129 404.056 802.129 403.192V395.992H804.481V394.408H802.129V391.24H800.305V394.408H798.385V395.992H800.305V403.576C800.305 405.304 801.169 406.288 802.897 406.288ZM807.911 392.752C808.583 392.752 809.111 392.224 809.111 391.552C809.111 390.88 808.583 390.328 807.911 390.328C807.239 390.328 806.687 390.88 806.687 391.552C806.687 392.224 807.239 392.752 807.911 392.752ZM808.799 406V394.408H806.999V406H808.799ZM822.014 406V397.864C822.014 395.344 820.742 394.12 818.342 394.12C816.59 394.12 815.006 395.104 814.19 396.088V394.408H812.39V406H814.19V397.528C814.886 396.592 816.206 395.728 817.622 395.728C819.182 395.728 820.238 396.352 820.238 398.416V406H822.014ZM830.288 410.704C833.12 410.704 835.832 409.504 835.832 405.832V394.408H834.032V396.16C833.096 394.888 831.68 394.12 830.12 394.12C827.072 394.12 824.96 396.424 824.96 400.144C824.96 403.888 827.096 406.144 830.12 406.144C831.752 406.144 833.168 405.256 834.032 404.08V405.832C834.032 408.28 832.208 409.216 830.288 409.216C828.632 409.216 827.48 408.784 826.52 407.656L825.608 408.952C827 410.32 828.344 410.704 830.288 410.704ZM830.576 404.536C828.224 404.536 826.832 402.688 826.832 400.144C826.832 397.576 828.224 395.728 830.576 395.728C831.992 395.728 833.384 396.592 834.032 397.576V402.664C833.384 403.672 831.992 404.536 830.576 404.536ZM843.133 406.288C846.109 406.288 847.669 404.728 847.669 402.784C847.669 398.272 840.493 399.928 840.493 397.408C840.493 396.376 841.477 395.584 843.061 395.584C844.573 395.584 845.821 396.208 846.517 397.048L847.357 395.8C846.445 394.864 845.053 394.12 843.061 394.12C840.301 394.12 838.765 395.632 838.765 397.456C838.765 401.752 845.941 400.024 845.941 402.832C845.941 403.984 844.957 404.824 843.181 404.824C841.597 404.824 840.133 404.056 839.365 403.168L838.453 404.464C839.629 405.688 841.213 406.288 843.133 406.288Z" fill="white"/>
<path d="M418.27 501.288C415.854 501.288 413.854 500.512 412.27 498.96C410.702 497.392 409.918 495.408 409.918 493.008C409.918 490.608 410.702 488.632 412.27 487.08C413.854 485.512 415.854 484.728 418.27 484.728C420.702 484.728 422.702 485.504 424.27 487.056C425.854 488.608 426.646 490.592 426.646 493.008C426.646 495.264 425.95 497.152 424.558 498.672L425.734 500.04L423.358 501.984L422.062 500.496C420.878 501.024 419.614 501.288 418.27 501.288ZM418.27 498.264C418.83 498.264 419.39 498.176 419.95 498L418.198 495.936L420.55 493.992L422.326 496.08C422.87 495.184 423.142 494.16 423.142 493.008C423.142 491.488 422.694 490.232 421.798 489.24C420.902 488.248 419.726 487.752 418.27 487.752C416.814 487.752 415.638 488.248 414.742 489.24C413.862 490.232 413.422 491.488 413.422 493.008C413.422 494.528 413.862 495.784 414.742 496.776C415.638 497.768 416.814 498.264 418.27 498.264ZM440.629 501H428.581V498.336C432.005 495.792 434.269 493.984 435.373 492.912C436.493 491.824 437.053 490.808 437.053 489.864C437.053 489.208 436.797 488.696 436.285 488.328C435.773 487.96 435.165 487.776 434.461 487.776C432.781 487.776 431.349 488.392 430.165 489.624L428.221 487.368C428.973 486.504 429.893 485.856 430.981 485.424C432.085 484.976 433.221 484.752 434.389 484.752C436.149 484.752 437.605 485.216 438.757 486.144C439.925 487.072 440.509 488.312 440.509 489.864C440.509 491.176 439.989 492.464 438.949 493.728C437.925 494.976 436.309 496.4 434.101 498H440.629V501ZM461.16 501H449.112V498.336C452.536 495.792 454.8 493.984 455.904 492.912C457.024 491.824 457.584 490.808 457.584 489.864C457.584 489.208 457.328 488.696 456.816 488.328C456.304 487.96 455.696 487.776 454.992 487.776C453.312 487.776 451.88 488.392 450.696 489.624L448.752 487.368C449.504 486.504 450.424 485.856 451.512 485.424C452.616 484.976 453.752 484.752 454.92 484.752C456.68 484.752 458.136 485.216 459.288 486.144C460.456 487.072 461.04 488.312 461.04 489.864C461.04 491.176 460.52 492.464 459.48 493.728C458.456 494.976 456.84 496.4 454.632 498H461.16V501ZM473.535 500.064C472.511 500.88 471.271 501.288 469.815 501.288C468.359 501.288 467.111 500.88 466.071 500.064C465.047 499.232 464.311 498.208 463.863 496.992C463.415 495.776 463.191 494.448 463.191 493.008C463.191 491.568 463.415 490.24 463.863 489.024C464.311 487.808 465.047 486.792 466.071 485.976C467.111 485.16 468.359 484.752 469.815 484.752C471.271 484.752 472.511 485.16 473.535 485.976C474.559 486.792 475.295 487.808 475.743 489.024C476.207 490.24 476.439 491.568 476.439 493.008C476.439 494.448 476.207 495.776 475.743 496.992C475.295 498.208 474.559 499.232 473.535 500.064ZM467.415 496.824C467.927 497.784 468.727 498.264 469.815 498.264C470.903 498.264 471.695 497.784 472.191 496.824C472.703 495.864 472.959 494.592 472.959 493.008C472.959 491.424 472.703 490.16 472.191 489.216C471.695 488.256 470.903 487.776 469.815 487.776C468.727 487.776 467.927 488.256 467.415 489.216C466.903 490.16 466.647 491.424 466.647 493.008C466.647 494.592 466.903 495.864 467.415 496.824ZM490.434 501H478.386V498.336C481.81 495.792 484.074 493.984 485.178 492.912C486.298 491.824 486.858 490.808 486.858 489.864C486.858 489.208 486.602 488.696 486.09 488.328C485.578 487.96 484.97 487.776 484.266 487.776C482.586 487.776 481.154 488.392 479.97 489.624L478.026 487.368C478.778 486.504 479.698 485.856 480.786 485.424C481.89 484.976 483.026 484.752 484.194 484.752C485.954 484.752 487.41 485.216 488.562 486.144C489.73 487.072 490.314 488.312 490.314 489.864C490.314 491.176 489.794 492.464 488.754 493.728C487.73 494.976 486.114 496.4 483.906 498H490.434V501ZM498.44 501.288C497.032 501.288 495.784 501.056 494.696 500.592C493.608 500.112 492.752 499.488 492.128 498.72L493.904 496.44C494.448 497 495.12 497.448 495.92 497.784C496.72 498.104 497.52 498.264 498.32 498.264C499.28 498.264 500.024 498.08 500.552 497.712C501.08 497.328 501.344 496.832 501.344 496.224C501.344 495.584 501.088 495.12 500.576 494.832C500.064 494.528 499.248 494.376 498.128 494.376C497.12 494.376 496.456 494.392 496.136 494.424V491.352C496.328 491.368 496.992 491.376 498.128 491.376C500.096 491.376 501.08 490.808 501.08 489.672C501.08 489.064 500.8 488.6 500.24 488.28C499.696 487.944 498.984 487.776 498.104 487.776C496.552 487.776 495.2 488.328 494.048 489.432L492.344 487.296C493.848 485.6 495.888 484.752 498.464 484.752C500.336 484.752 501.808 485.144 502.88 485.928C503.968 486.712 504.512 487.768 504.512 489.096C504.512 490.056 504.168 490.864 503.48 491.52C502.792 492.16 501.968 492.568 501.008 492.744C501.952 492.84 502.808 493.232 503.576 493.92C504.36 494.592 504.752 495.48 504.752 496.584C504.752 497.976 504.176 499.112 503.024 499.992C501.872 500.856 500.344 501.288 498.44 501.288ZM510.174 492.552C509.79 492.936 509.334 493.128 508.806 493.128C508.278 493.128 507.822 492.936 507.438 492.552C507.054 492.168 506.862 491.712 506.862 491.184C506.862 490.656 507.054 490.2 507.438 489.816C507.822 489.432 508.278 489.24 508.806 489.24C509.334 489.24 509.79 489.432 510.174 489.816C510.558 490.2 510.75 490.656 510.75 491.184C510.75 491.712 510.558 492.168 510.174 492.552ZM510.174 500.688C509.79 501.072 509.334 501.264 508.806 501.264C508.278 501.264 507.822 501.072 507.438 500.688C507.054 500.304 506.862 499.848 506.862 499.32C506.862 498.792 507.054 498.336 507.438 497.952C507.822 497.568 508.278 497.376 508.806 497.376C509.334 497.376 509.79 497.568 510.174 497.952C510.558 498.336 510.75 498.792 510.75 499.32C510.75 499.848 510.558 500.304 510.174 500.688Z" fill="#80ECFE"/>
<path d="M376.811 529L381.395 512.992H379.163L375.635 526.336L371.963 512.992H370.307L366.635 526.336L363.083 512.992H360.875L365.435 529H367.595L371.123 516.088L374.651 529H376.811ZM393.175 529V520.816C393.175 518.296 391.903 517.12 389.479 517.12C387.727 517.12 386.143 518.104 385.351 519.088V512.992H383.551V529H385.351V520.528C386.023 519.592 387.367 518.728 388.759 518.728C390.343 518.728 391.375 519.304 391.375 521.368V529H393.175ZM397.681 515.752C398.353 515.752 398.881 515.224 398.881 514.552C398.881 513.88 398.353 513.328 397.681 513.328C397.009 513.328 396.457 513.88 396.457 514.552C396.457 515.224 397.009 515.752 397.681 515.752ZM398.569 529V517.408H396.769V529H398.569ZM405.111 529.288C406.143 529.288 406.791 528.976 407.247 528.544L406.719 527.176C406.479 527.44 406.023 527.68 405.495 527.68C404.727 527.68 404.343 527.056 404.343 526.192V518.992H406.695V517.408H404.343V514.24H402.519V517.408H400.599V518.992H402.519V526.576C402.519 528.304 403.383 529.288 405.111 529.288ZM414.47 529.288C416.342 529.288 417.902 528.64 419.078 527.488L418.214 526.312C417.278 527.272 415.958 527.8 414.614 527.8C412.118 527.8 410.606 525.976 410.462 523.792H419.822V523.336C419.822 519.856 417.758 517.12 414.254 517.12C410.942 517.12 408.542 519.832 408.542 523.192C408.542 526.816 411.014 529.288 414.47 529.288ZM418.046 522.448H410.438C410.534 520.696 411.758 518.608 414.23 518.608C416.87 518.608 418.022 520.744 418.046 522.448ZM428.45 529.288C431.498 529.288 433.609 526.936 433.609 523.192C433.609 519.424 431.498 517.12 428.45 517.12C426.818 517.12 425.378 517.96 424.538 519.136V517.408H422.738V533.416H424.538V527.248C425.498 528.52 426.866 529.288 428.45 529.288ZM427.993 527.68C426.578 527.68 425.162 526.816 424.538 525.808V520.576C425.162 519.568 426.578 518.728 427.993 518.728C430.322 518.728 431.714 520.624 431.714 523.192C431.714 525.76 430.322 527.68 427.993 527.68ZM445.52 529V521.032C445.52 518.224 443.504 517.12 441.032 517.12C439.136 517.12 437.648 517.744 436.4 519.04L437.24 520.288C438.272 519.16 439.4 518.68 440.792 518.68C442.472 518.68 443.72 519.568 443.72 521.104V523.192C442.784 522.136 441.464 521.632 439.88 521.632C437.912 521.632 435.848 522.832 435.848 525.448C435.848 527.968 437.936 529.288 439.88 529.288C441.44 529.288 442.784 528.736 443.72 527.68V529H445.52ZM440.552 527.992C438.848 527.992 437.672 526.936 437.672 525.448C437.672 523.984 438.848 522.928 440.552 522.928C441.8 522.928 443.024 523.408 443.72 524.344V526.552C443.024 527.512 441.8 527.992 440.552 527.992ZM454.864 529.288C457.912 529.288 460.024 526.936 460.024 523.192C460.024 519.424 457.912 517.12 454.864 517.12C453.232 517.12 451.792 517.96 450.952 519.136V517.408H449.152V533.416H450.952V527.248C451.912 528.52 453.28 529.288 454.864 529.288ZM454.408 527.68C452.992 527.68 451.576 526.816 450.952 525.808V520.576C451.576 519.568 452.992 518.728 454.408 518.728C456.736 518.728 458.128 520.624 458.128 523.192C458.128 525.76 456.736 527.68 454.408 527.68ZM468.142 529.288C470.014 529.288 471.574 528.64 472.75 527.488L471.886 526.312C470.95 527.272 469.63 527.8 468.286 527.8C465.79 527.8 464.278 525.976 464.134 523.792H473.494V523.336C473.494 519.856 471.43 517.12 467.926 517.12C464.614 517.12 462.214 519.832 462.214 523.192C462.214 526.816 464.686 529.288 468.142 529.288ZM471.718 522.448H464.11C464.206 520.696 465.43 518.608 467.902 518.608C470.542 518.608 471.694 520.744 471.718 522.448ZM478.209 529V520.792C478.737 519.856 480.249 518.944 481.377 518.944C481.641 518.944 481.857 518.968 482.073 518.992V517.144C480.489 517.144 479.145 518.056 478.209 519.256V517.408H476.409V529H478.209ZM492.342 529V520.792C492.87 519.856 494.382 518.944 495.51 518.944C495.774 518.944 495.99 518.968 496.206 518.992V517.144C494.622 517.144 493.278 518.056 492.342 519.256V517.408H490.542V529H492.342ZM503.72 529.288C505.592 529.288 507.152 528.64 508.328 527.488L507.464 526.312C506.528 527.272 505.208 527.8 503.864 527.8C501.368 527.8 499.856 525.976 499.712 523.792H509.072V523.336C509.072 519.856 507.008 517.12 503.504 517.12C500.192 517.12 497.792 519.832 497.792 523.192C497.792 526.816 500.264 529.288 503.72 529.288ZM507.296 522.448H499.688C499.784 520.696 501.008 518.608 503.48 518.608C506.12 518.608 507.272 520.744 507.296 522.448ZM513.788 529V512.992H511.988V529H513.788ZM522.634 529.288C524.506 529.288 526.066 528.64 527.242 527.488L526.378 526.312C525.442 527.272 524.122 527.8 522.778 527.8C520.282 527.8 518.77 525.976 518.626 523.792H527.986V523.336C527.986 519.856 525.922 517.12 522.418 517.12C519.106 517.12 516.706 519.832 516.706 523.192C516.706 526.816 519.178 529.288 522.634 529.288ZM526.21 522.448H518.602C518.698 520.696 519.922 518.608 522.394 518.608C525.034 518.608 526.186 520.744 526.21 522.448ZM539.95 529V521.032C539.95 518.224 537.934 517.12 535.462 517.12C533.566 517.12 532.078 517.744 530.83 519.04L531.67 520.288C532.702 519.16 533.83 518.68 535.222 518.68C536.902 518.68 538.15 519.568 538.15 521.104V523.192C537.214 522.136 535.894 521.632 534.31 521.632C532.342 521.632 530.278 522.832 530.278 525.448C530.278 527.968 532.366 529.288 534.31 529.288C535.87 529.288 537.214 528.736 538.15 527.68V529H539.95ZM534.982 527.992C533.278 527.992 532.102 526.936 532.102 525.448C532.102 523.984 533.278 522.928 534.982 522.928C536.23 522.928 537.454 523.408 538.15 524.344V526.552C537.454 527.512 536.23 527.992 534.982 527.992ZM547.277 529.288C550.253 529.288 551.813 527.728 551.813 525.784C551.813 521.272 544.637 522.928 544.637 520.408C544.637 519.376 545.621 518.584 547.205 518.584C548.717 518.584 549.965 519.208 550.661 520.048L551.501 518.8C550.589 517.864 549.197 517.12 547.205 517.12C544.445 517.12 542.909 518.632 542.909 520.456C542.909 524.752 550.085 523.024 550.085 525.832C550.085 526.984 549.101 527.824 547.325 527.824C545.741 527.824 544.277 527.056 543.509 526.168L542.597 527.464C543.773 528.688 545.357 529.288 547.277 529.288ZM559.993 529.288C561.866 529.288 563.426 528.64 564.602 527.488L563.738 526.312C562.802 527.272 561.482 527.8 560.138 527.8C557.642 527.8 556.13 525.976 555.986 523.792H565.346V523.336C565.346 519.856 563.282 517.12 559.778 517.12C556.465 517.12 554.066 519.832 554.066 523.192C554.066 526.816 556.538 529.288 559.993 529.288ZM563.57 522.448H555.962C556.058 520.696 557.282 518.608 559.754 518.608C562.394 518.608 563.546 520.744 563.57 522.448ZM372.395 557V549.032C372.395 546.224 370.379 545.12 367.907 545.12C366.011 545.12 364.523 545.744 363.275 547.04L364.115 548.288C365.147 547.16 366.275 546.68 367.667 546.68C369.347 546.68 370.595 547.568 370.595 549.104V551.192C369.659 550.136 368.339 549.632 366.755 549.632C364.787 549.632 362.723 550.832 362.723 553.448C362.723 555.968 364.811 557.288 366.755 557.288C368.315 557.288 369.659 556.736 370.595 555.68V557H372.395ZM367.427 555.992C365.723 555.992 364.547 554.936 364.547 553.448C364.547 551.984 365.723 550.928 367.427 550.928C368.675 550.928 369.899 551.408 370.595 552.344V554.552C369.899 555.512 368.675 555.992 367.427 555.992ZM385.651 557V548.864C385.651 546.344 384.379 545.12 381.979 545.12C380.227 545.12 378.643 546.104 377.827 547.088V545.408H376.027V557H377.827V548.528C378.523 547.592 379.843 546.728 381.259 546.728C382.819 546.728 383.875 547.352 383.875 549.416V557H385.651ZM399.469 557V540.992H397.669V547.16C396.733 545.888 395.317 545.12 393.757 545.12C390.733 545.12 388.597 547.496 388.597 551.216C388.597 554.984 390.733 557.288 393.757 557.288C395.389 557.288 396.805 556.448 397.669 555.272V557H399.469ZM394.213 555.68C391.861 555.68 390.469 553.784 390.469 551.216C390.469 548.648 391.861 546.728 394.213 546.728C395.629 546.728 397.045 547.592 397.669 548.6V553.832C397.045 554.84 395.629 555.68 394.213 555.68ZM421.14 557L424.836 545.408H422.94L420.108 554.648L417.084 545.408H415.524L412.476 554.648L409.644 545.408H407.772L411.468 557H413.268L416.292 547.688L419.316 557H421.14ZM432.165 557.288C434.037 557.288 435.597 556.64 436.773 555.488L435.909 554.312C434.973 555.272 433.653 555.8 432.309 555.8C429.813 555.8 428.301 553.976 428.157 551.792H437.517V551.336C437.517 547.856 435.453 545.12 431.949 545.12C428.637 545.12 426.237 547.832 426.237 551.192C426.237 554.816 428.709 557.288 432.165 557.288ZM435.741 550.448H428.133C428.229 548.696 429.453 546.608 431.925 546.608C434.565 546.608 435.717 548.744 435.741 550.448ZM442.233 553.856V548.6C442.857 547.592 444.273 546.728 445.713 546.728C448.041 546.728 449.433 548.648 449.433 551.216C449.433 553.784 448.041 555.68 445.713 555.68C444.273 555.68 442.857 554.864 442.233 553.856ZM442.233 557V555.272C443.097 556.448 444.513 557.288 446.145 557.288C449.169 557.288 451.305 554.984 451.305 551.216C451.305 547.496 449.193 545.12 446.145 545.12C444.585 545.12 443.169 545.888 442.233 547.16V540.992H440.433V557H442.233ZM457.934 557.288C460.91 557.288 462.47 555.728 462.47 553.784C462.47 549.272 455.294 550.928 455.294 548.408C455.294 547.376 456.278 546.584 457.862 546.584C459.374 546.584 460.622 547.208 461.318 548.048L462.158 546.8C461.246 545.864 459.854 545.12 457.862 545.12C455.102 545.12 453.566 546.632 453.566 548.456C453.566 552.752 460.742 551.024 460.742 553.832C460.742 554.984 459.758 555.824 457.982 555.824C456.398 555.824 454.934 555.056 454.166 554.168L453.254 555.464C454.43 556.688 456.014 557.288 457.934 557.288ZM466.306 543.752C466.978 543.752 467.506 543.224 467.506 542.552C467.506 541.88 466.978 541.328 466.306 541.328C465.634 541.328 465.082 541.88 465.082 542.552C465.082 543.224 465.634 543.752 466.306 543.752ZM467.194 557V545.408H465.394V557H467.194ZM473.736 557.288C474.768 557.288 475.416 556.976 475.872 556.544L475.344 555.176C475.104 555.44 474.648 555.68 474.12 555.68C473.352 555.68 472.968 555.056 472.968 554.192V546.992H475.32V545.408H472.968V542.24H471.144V545.408H469.224V546.992H471.144V554.576C471.144 556.304 472.008 557.288 473.736 557.288ZM483.095 557.288C484.967 557.288 486.527 556.64 487.703 555.488L486.839 554.312C485.903 555.272 484.583 555.8 483.239 555.8C480.743 555.8 479.231 553.976 479.087 551.792H488.447V551.336C488.447 547.856 486.383 545.12 482.879 545.12C479.567 545.12 477.167 547.832 477.167 551.192C477.167 554.816 479.639 557.288 483.095 557.288ZM486.671 550.448H479.063C479.159 548.696 480.383 546.608 482.855 546.608C485.495 546.608 486.647 548.744 486.671 550.448ZM499.373 557V540.992H497.573V557H499.373ZM512.012 557V549.032C512.012 546.224 509.996 545.12 507.524 545.12C505.628 545.12 504.14 545.744 502.892 547.04L503.732 548.288C504.764 547.16 505.892 546.68 507.284 546.68C508.964 546.68 510.212 547.568 510.212 549.104V551.192C509.276 550.136 507.956 549.632 506.372 549.632C504.404 549.632 502.34 550.832 502.34 553.448C502.34 555.968 504.428 557.288 506.372 557.288C507.932 557.288 509.276 556.736 510.212 555.68V557H512.012ZM507.044 555.992C505.34 555.992 504.164 554.936 504.164 553.448C504.164 551.984 505.34 550.928 507.044 550.928C508.292 550.928 509.516 551.408 510.212 552.344V554.552C509.516 555.512 508.292 555.992 507.044 555.992ZM525.268 557V545.408H523.468V553.928C522.796 554.864 521.452 555.68 520.06 555.68C518.476 555.68 517.444 555.08 517.444 553.04V545.408H515.644V553.592C515.644 556.088 516.916 557.288 519.34 557.288C521.068 557.288 522.58 556.376 523.468 555.368V557H525.268ZM538.487 557V548.864C538.487 546.344 537.215 545.12 534.815 545.12C533.062 545.12 531.479 546.104 530.663 547.088V545.408H528.863V557H530.663V548.528C531.359 547.592 532.679 546.728 534.095 546.728C535.655 546.728 536.711 547.352 536.711 549.416V557H538.487ZM547.217 557.288C549.329 557.288 550.577 556.424 551.465 555.272L550.265 554.168C549.497 555.2 548.513 555.68 547.313 555.68C544.865 555.68 543.305 553.76 543.305 551.192C543.305 548.624 544.865 546.728 547.313 546.728C548.513 546.728 549.497 547.16 550.265 548.216L551.465 547.136C550.577 545.984 549.329 545.12 547.217 545.12C543.761 545.12 541.433 547.76 541.433 551.192C541.433 554.624 543.761 557.288 547.217 557.288ZM563.659 557V548.816C563.659 546.296 562.387 545.12 559.963 545.12C558.211 545.12 556.627 546.104 555.835 547.088V540.992H554.035V557H555.835V548.528C556.507 547.592 557.851 546.728 559.243 546.728C560.827 546.728 561.859 547.304 561.859 549.368V557H563.659Z" fill="white"/>
<path d="M156.531 727.288C154.115 727.288 152.115 726.512 150.531 724.96C148.963 723.392 148.179 721.408 148.179 719.008C148.179 716.608 148.963 714.632 150.531 713.08C152.115 711.512 154.115 710.728 156.531 710.728C158.963 710.728 160.963 711.504 162.531 713.056C164.115 714.608 164.907 716.592 164.907 719.008C164.907 721.264 164.211 723.152 162.819 724.672L163.995 726.04L161.619 727.984L160.323 726.496C159.139 727.024 157.875 727.288 156.531 727.288ZM156.531 724.264C157.091 724.264 157.651 724.176 158.211 724L156.459 721.936L158.811 719.992L160.587 722.08C161.131 721.184 161.403 720.16 161.403 719.008C161.403 717.488 160.955 716.232 160.059 715.24C159.163 714.248 157.987 713.752 156.531 713.752C155.075 713.752 153.899 714.248 153.003 715.24C152.123 716.232 151.683 717.488 151.683 719.008C151.683 720.528 152.123 721.784 153.003 722.776C153.899 723.768 155.075 724.264 156.531 724.264ZM173.995 727H170.587V715.384L167.923 718.096L165.979 716.056L171.019 710.992H173.995V727ZM194.899 727H182.851V724.336C186.275 721.792 188.539 719.984 189.643 718.912C190.763 717.824 191.323 716.808 191.323 715.864C191.323 715.208 191.067 714.696 190.555 714.328C190.043 713.96 189.435 713.776 188.731 713.776C187.051 713.776 185.619 714.392 184.435 715.624L182.491 713.368C183.243 712.504 184.163 711.856 185.251 711.424C186.355 710.976 187.491 710.752 188.659 710.752C190.419 710.752 191.875 711.216 193.027 712.144C194.195 713.072 194.779 714.312 194.779 715.864C194.779 717.176 194.259 718.464 193.219 719.728C192.195 720.976 190.579 722.4 188.371 724H194.899V727ZM207.273 726.064C206.249 726.88 205.009 727.288 203.553 727.288C202.097 727.288 200.849 726.88 199.809 726.064C198.785 725.232 198.049 724.208 197.601 722.992C197.153 721.776 196.929 720.448 196.929 719.008C196.929 717.568 197.153 716.24 197.601 715.024C198.049 713.808 198.785 712.792 199.809 711.976C200.849 711.16 202.097 710.752 203.553 710.752C205.009 710.752 206.249 711.16 207.273 711.976C208.297 712.792 209.033 713.808 209.481 715.024C209.945 716.24 210.177 717.568 210.177 719.008C210.177 720.448 209.945 721.776 209.481 722.992C209.033 724.208 208.297 725.232 207.273 726.064ZM201.153 722.824C201.665 723.784 202.465 724.264 203.553 724.264C204.641 724.264 205.433 723.784 205.929 722.824C206.441 721.864 206.697 720.592 206.697 719.008C206.697 717.424 206.441 716.16 205.929 715.216C205.433 714.256 204.641 713.776 203.553 713.776C202.465 713.776 201.665 714.256 201.153 715.216C200.641 716.16 200.385 717.424 200.385 719.008C200.385 720.592 200.641 721.864 201.153 722.824ZM224.172 727H212.124V724.336C215.548 721.792 217.812 719.984 218.916 718.912C220.036 717.824 220.596 716.808 220.596 715.864C220.596 715.208 220.34 714.696 219.828 714.328C219.316 713.96 218.708 713.776 218.004 713.776C216.324 713.776 214.892 714.392 213.708 715.624L211.764 713.368C212.516 712.504 213.436 711.856 214.524 711.424C215.628 710.976 216.764 710.752 217.932 710.752C219.692 710.752 221.148 711.216 222.3 712.144C223.468 713.072 224.052 714.312 224.052 715.864C224.052 717.176 223.532 718.464 222.492 719.728C221.468 720.976 219.852 722.4 217.644 724H224.172V727ZM232.179 727.288C230.771 727.288 229.523 727.056 228.435 726.592C227.347 726.112 226.491 725.488 225.867 724.72L227.643 722.44C228.187 723 228.859 723.448 229.659 723.784C230.459 724.104 231.259 724.264 232.059 724.264C233.019 724.264 233.763 724.08 234.291 723.712C234.819 723.328 235.083 722.832 235.083 722.224C235.083 721.584 234.827 721.12 234.315 720.832C233.803 720.528 232.987 720.376 231.867 720.376C230.859 720.376 230.195 720.392 229.875 720.424V717.352C230.067 717.368 230.731 717.376 231.867 717.376C233.835 717.376 234.819 716.808 234.819 715.672C234.819 715.064 234.539 714.6 233.979 714.28C233.435 713.944 232.723 713.776 231.843 713.776C230.291 713.776 228.939 714.328 227.787 715.432L226.083 713.296C227.587 711.6 229.627 710.752 232.203 710.752C234.075 710.752 235.547 711.144 236.619 711.928C237.707 712.712 238.251 713.768 238.251 715.096C238.251 716.056 237.907 716.864 237.219 717.52C236.531 718.16 235.707 718.568 234.747 718.744C235.691 718.84 236.547 719.232 237.315 719.92C238.099 720.592 238.491 721.48 238.491 722.584C238.491 723.976 237.915 725.112 236.763 725.992C235.611 726.856 234.083 727.288 232.179 727.288ZM243.913 718.552C243.529 718.936 243.073 719.128 242.545 719.128C242.017 719.128 241.561 718.936 241.177 718.552C240.793 718.168 240.601 717.712 240.601 717.184C240.601 716.656 240.793 716.2 241.177 715.816C241.561 715.432 242.017 715.24 242.545 715.24C243.073 715.24 243.529 715.432 243.913 715.816C244.297 716.2 244.489 716.656 244.489 717.184C244.489 717.712 244.297 718.168 243.913 718.552ZM243.913 726.688C243.529 727.072 243.073 727.264 242.545 727.264C242.017 727.264 241.561 727.072 241.177 726.688C240.793 726.304 240.601 725.848 240.601 725.32C240.601 724.792 240.793 724.336 241.177 723.952C241.561 723.568 242.017 723.376 242.545 723.376C243.073 723.376 243.529 723.568 243.913 723.952C244.297 724.336 244.489 724.792 244.489 725.32C244.489 725.848 244.297 726.304 243.913 726.688Z" fill="#7AE8FD"/>
<path d="M114.841 755V748.64H119.281C122.473 748.64 124.297 746.432 124.297 743.816C124.297 741.2 122.497 738.992 119.281 738.992H112.849V755H114.841ZM119.041 746.864H114.841V740.768H119.041C120.937 740.768 122.233 742.016 122.233 743.816C122.233 745.616 120.937 746.864 119.041 746.864ZM128.663 755V746.792C129.191 745.856 130.703 744.944 131.831 744.944C132.095 744.944 132.311 744.968 132.527 744.992V743.144C130.943 743.144 129.599 744.056 128.663 745.256V743.408H126.863V755H128.663ZM139.848 755.288C143.376 755.288 145.584 752.552 145.584 749.192C145.584 745.832 143.376 743.12 139.848 743.12C136.32 743.12 134.112 745.832 134.112 749.192C134.112 752.552 136.32 755.288 139.848 755.288ZM139.848 753.68C137.376 753.68 136.008 751.568 136.008 749.192C136.008 746.84 137.376 744.728 139.848 744.728C142.32 744.728 143.688 746.84 143.688 749.192C143.688 751.568 142.32 753.68 139.848 753.68ZM149.431 741.752C150.103 741.752 150.631 741.224 150.631 740.552C150.631 739.88 150.103 739.328 149.431 739.328C148.759 739.328 148.207 739.88 148.207 740.552C148.207 741.224 148.759 741.752 149.431 741.752ZM146.887 759.704C149.119 759.704 150.319 758.408 150.319 756.128V743.408H148.519V756.128C148.519 757.592 147.727 758.216 146.647 758.216C145.927 758.216 145.399 757.904 144.991 757.496L144.367 758.84C145.087 759.416 145.711 759.704 146.887 759.704ZM159.165 755.288C161.037 755.288 162.597 754.64 163.773 753.488L162.909 752.312C161.973 753.272 160.653 753.8 159.309 753.8C156.813 753.8 155.301 751.976 155.157 749.792H164.517V749.336C164.517 745.856 162.453 743.12 158.949 743.12C155.637 743.12 153.237 745.832 153.237 749.192C153.237 752.816 155.709 755.288 159.165 755.288ZM162.741 748.448H155.133C155.229 746.696 156.453 744.608 158.925 744.608C161.565 744.608 162.717 746.744 162.741 748.448ZM172.545 755.288C174.657 755.288 175.905 754.424 176.793 753.272L175.593 752.168C174.825 753.2 173.841 753.68 172.641 753.68C170.193 753.68 168.633 751.76 168.633 749.192C168.633 746.624 170.193 744.728 172.641 744.728C173.841 744.728 174.825 745.16 175.593 746.216L176.793 745.136C175.905 743.984 174.657 743.12 172.545 743.12C169.089 743.12 166.761 745.76 166.761 749.192C166.761 752.624 169.089 755.288 172.545 755.288ZM182.291 755.288C183.323 755.288 183.971 754.976 184.427 754.544L183.899 753.176C183.659 753.44 183.203 753.68 182.675 753.68C181.907 753.68 181.523 753.056 181.523 752.192V744.992H183.875V743.408H181.523V740.24H179.699V743.408H177.779V744.992H179.699V752.576C179.699 754.304 180.563 755.288 182.291 755.288ZM193.517 741.752C194.189 741.752 194.717 741.224 194.717 740.552C194.717 739.88 194.189 739.328 193.517 739.328C192.845 739.328 192.293 739.88 192.293 740.552C192.293 741.224 192.845 741.752 193.517 741.752ZM194.405 755V743.408H192.605V755H194.405ZM207.619 755V746.864C207.619 744.344 206.347 743.12 203.947 743.12C202.195 743.12 200.611 744.104 199.795 745.088V743.408H197.995V755H199.795V746.528C200.491 745.592 201.811 744.728 203.227 744.728C204.787 744.728 205.843 745.352 205.843 747.416V755H207.619ZM216.35 755.288C218.462 755.288 219.71 754.424 220.598 753.272L219.398 752.168C218.63 753.2 217.646 753.68 216.446 753.68C213.998 753.68 212.438 751.76 212.438 749.192C212.438 746.624 213.998 744.728 216.446 744.728C217.646 744.728 218.63 745.16 219.398 746.216L220.598 745.136C219.71 743.984 218.462 743.12 216.35 743.12C212.894 743.12 210.566 745.76 210.566 749.192C210.566 752.624 212.894 755.288 216.35 755.288ZM228.4 755.288C230.272 755.288 231.832 754.64 233.008 753.488L232.144 752.312C231.208 753.272 229.888 753.8 228.544 753.8C226.048 753.8 224.536 751.976 224.392 749.792H233.752V749.336C233.752 745.856 231.688 743.12 228.184 743.12C224.872 743.12 222.472 745.832 222.472 749.192C222.472 752.816 224.944 755.288 228.4 755.288ZM231.976 748.448H224.368C224.464 746.696 225.688 744.608 228.16 744.608C230.8 744.608 231.952 746.744 231.976 748.448ZM242.379 755.288C245.427 755.288 247.539 752.936 247.539 749.192C247.539 745.424 245.427 743.12 242.379 743.12C240.747 743.12 239.307 743.96 238.467 745.136V743.408H236.667V759.416H238.467V753.248C239.427 754.52 240.795 755.288 242.379 755.288ZM241.923 753.68C240.507 753.68 239.091 752.816 238.467 751.808V746.576C239.091 745.568 240.507 744.728 241.923 744.728C244.251 744.728 245.643 746.624 245.643 749.192C245.643 751.76 244.251 753.68 241.923 753.68ZM253.354 755.288C254.386 755.288 255.034 754.976 255.49 754.544L254.962 753.176C254.722 753.44 254.266 753.68 253.738 753.68C252.97 753.68 252.586 753.056 252.586 752.192V744.992H254.938V743.408H252.586V740.24H250.762V743.408H248.842V744.992H250.762V752.576C250.762 754.304 251.626 755.288 253.354 755.288ZM258.368 741.752C259.04 741.752 259.568 741.224 259.568 740.552C259.568 739.88 259.04 739.328 258.368 739.328C257.696 739.328 257.144 739.88 257.144 740.552C257.144 741.224 257.696 741.752 258.368 741.752ZM259.256 755V743.408H257.456V755H259.256ZM267.911 755.288C271.439 755.288 273.647 752.552 273.647 749.192C273.647 745.832 271.439 743.12 267.911 743.12C264.383 743.12 262.175 745.832 262.175 749.192C262.175 752.552 264.383 755.288 267.911 755.288ZM267.911 753.68C265.439 753.68 264.071 751.568 264.071 749.192C264.071 746.84 265.439 744.728 267.911 744.728C270.383 744.728 271.751 746.84 271.751 749.192C271.751 751.568 270.383 753.68 267.911 753.68ZM286.205 755V746.864C286.205 744.344 284.933 743.12 282.533 743.12C280.781 743.12 279.197 744.104 278.381 745.088V743.408H276.581V755H278.381V746.528C279.077 745.592 280.397 744.728 281.813 744.728C283.373 744.728 284.429 745.352 284.429 747.416V755H286.205ZM107.973 783V775.032C107.973 772.224 105.957 771.12 103.485 771.12C101.589 771.12 100.101 771.744 98.853 773.04L99.693 774.288C100.725 773.16 101.853 772.68 103.245 772.68C104.925 772.68 106.173 773.568 106.173 775.104V777.192C105.237 776.136 103.917 775.632 102.333 775.632C100.365 775.632 98.301 776.832 98.301 779.448C98.301 781.968 100.389 783.288 102.333 783.288C103.893 783.288 105.237 782.736 106.173 781.68V783H107.973ZM103.005 781.992C101.301 781.992 100.125 780.936 100.125 779.448C100.125 777.984 101.301 776.928 103.005 776.928C104.253 776.928 105.477 777.408 106.173 778.344V780.552C105.477 781.512 104.253 781.992 103.005 781.992ZM121.229 783V774.864C121.229 772.344 119.957 771.12 117.557 771.12C115.805 771.12 114.221 772.104 113.405 773.088V771.408H111.605V783H113.405V774.528C114.101 773.592 115.421 772.728 116.837 772.728C118.397 772.728 119.453 773.352 119.453 775.416V783H121.229ZM135.047 783V766.992H133.247V773.16C132.311 771.888 130.895 771.12 129.335 771.12C126.311 771.12 124.175 773.496 124.175 777.216C124.175 780.984 126.311 783.288 129.335 783.288C130.967 783.288 132.383 782.448 133.247 781.272V783H135.047ZM129.791 781.68C127.439 781.68 126.047 779.784 126.047 777.216C126.047 774.648 127.439 772.728 129.791 772.728C131.207 772.728 132.623 773.592 133.247 774.6V779.832C132.623 780.84 131.207 781.68 129.791 781.68ZM147.815 783.288C148.847 783.288 149.495 782.976 149.951 782.544L149.423 781.176C149.183 781.44 148.727 781.68 148.199 781.68C147.431 781.68 147.047 781.056 147.047 780.192V772.992H149.398V771.408H147.047V768.24H145.223V771.408H143.303V772.992H145.223V780.576C145.223 782.304 146.087 783.288 147.815 783.288ZM157.173 783.288C159.045 783.288 160.605 782.64 161.781 781.488L160.917 780.312C159.981 781.272 158.661 781.8 157.317 781.8C154.821 781.8 153.309 779.976 153.165 777.792H162.525V777.336C162.525 773.856 160.461 771.12 156.957 771.12C153.645 771.12 151.245 773.832 151.245 777.192C151.245 780.816 153.717 783.288 157.173 783.288ZM160.749 776.448H153.141C153.237 774.696 154.461 772.608 156.933 772.608C159.573 772.608 160.725 774.744 160.749 776.448ZM174.489 783V775.032C174.489 772.224 172.473 771.12 170.001 771.12C168.105 771.12 166.617 771.744 165.369 773.04L166.209 774.288C167.241 773.16 168.369 772.68 169.761 772.68C171.441 772.68 172.689 773.568 172.689 775.104V777.192C171.753 776.136 170.433 775.632 168.849 775.632C166.881 775.632 164.817 776.832 164.817 779.448C164.817 781.968 166.905 783.288 168.849 783.288C170.409 783.288 171.753 782.736 172.689 781.68V783H174.489ZM169.521 781.992C167.817 781.992 166.641 780.936 166.641 779.448C166.641 777.984 167.817 776.928 169.521 776.928C170.769 776.928 171.993 777.408 172.689 778.344V780.552C171.993 781.512 170.769 781.992 169.521 781.992ZM193.912 783V774.624C193.912 772.296 192.784 771.12 190.672 771.12C188.992 771.12 187.432 772.224 186.784 773.28C186.448 772.08 185.44 771.12 183.688 771.12C181.96 771.12 180.424 772.344 179.92 773.088V771.408H178.12V783H179.92V774.528C180.544 773.592 181.792 772.728 182.968 772.728C184.504 772.728 185.104 773.664 185.104 775.128V783H186.904V774.504C187.504 773.568 188.776 772.728 189.976 772.728C191.488 772.728 192.112 773.664 192.112 775.128V783H193.912ZM206.018 783V772.992H208.37V771.408H206.018V770.52C206.018 769.032 206.666 768.24 207.866 768.24C208.442 768.24 208.898 768.456 209.282 768.792L210.026 767.64C209.306 766.968 208.514 766.752 207.578 766.752C205.538 766.752 204.218 768.144 204.218 770.52V771.408H202.298V772.992H204.218V783H206.018ZM215.598 783.288C219.126 783.288 221.334 780.552 221.334 777.192C221.334 773.832 219.126 771.12 215.598 771.12C212.07 771.12 209.862 773.832 209.862 777.192C209.862 780.552 212.07 783.288 215.598 783.288ZM215.598 781.68C213.126 781.68 211.758 779.568 211.758 777.192C211.758 774.84 213.126 772.728 215.598 772.728C218.07 772.728 219.438 774.84 219.438 777.192C219.438 779.568 218.07 781.68 215.598 781.68ZM226.069 783V774.792C226.597 773.856 228.109 772.944 229.237 772.944C229.501 772.944 229.717 772.968 229.933 772.992V771.144C228.349 771.144 227.005 772.056 226.069 773.256V771.408H224.269V783H226.069ZM247.983 783V774.624C247.983 772.296 246.855 771.12 244.743 771.12C243.063 771.12 241.503 772.224 240.855 773.28C240.519 772.08 239.511 771.12 237.759 771.12C236.031 771.12 234.495 772.344 233.991 773.088V771.408H232.191V783H233.991V774.528C234.615 773.592 235.863 772.728 237.039 772.728C238.575 772.728 239.175 773.664 239.175 775.128V783H240.975V774.504C241.575 773.568 242.847 772.728 244.047 772.728C245.559 772.728 246.183 773.664 246.183 775.128V783H247.983ZM260.621 783V775.032C260.621 772.224 258.605 771.12 256.133 771.12C254.237 771.12 252.749 771.744 251.501 773.04L252.341 774.288C253.373 773.16 254.501 772.68 255.893 772.68C257.573 772.68 258.821 773.568 258.821 775.104V777.192C257.885 776.136 256.565 775.632 254.981 775.632C253.013 775.632 250.949 776.832 250.949 779.448C250.949 781.968 253.037 783.288 254.981 783.288C256.541 783.288 257.885 782.736 258.821 781.68V783H260.621ZM255.653 781.992C253.949 781.992 252.773 780.936 252.773 779.448C252.773 777.984 253.949 776.928 255.653 776.928C256.901 776.928 258.125 777.408 258.821 778.344V780.552C258.125 781.512 256.901 781.992 255.653 781.992ZM267.205 783.288C268.237 783.288 268.885 782.976 269.341 782.544L268.813 781.176C268.573 781.44 268.117 781.68 267.589 781.68C266.821 781.68 266.437 781.056 266.437 780.192V772.992H268.789V771.408H266.437V768.24H264.613V771.408H262.693V772.992H264.613V780.576C264.613 782.304 265.477 783.288 267.205 783.288ZM272.22 769.752C272.892 769.752 273.42 769.224 273.42 768.552C273.42 767.88 272.892 767.328 272.22 767.328C271.548 767.328 270.996 767.88 270.996 768.552C270.996 769.224 271.548 769.752 272.22 769.752ZM273.108 783V771.408H271.308V783H273.108ZM281.762 783.288C285.29 783.288 287.498 780.552 287.498 777.192C287.498 773.832 285.29 771.12 281.762 771.12C278.234 771.12 276.026 773.832 276.026 777.192C276.026 780.552 278.234 783.288 281.762 783.288ZM281.762 781.68C279.29 781.68 277.922 779.568 277.922 777.192C277.922 774.84 279.29 772.728 281.762 772.728C284.234 772.728 285.602 774.84 285.602 777.192C285.602 779.568 284.234 781.68 281.762 781.68ZM300.057 783V774.864C300.057 772.344 298.785 771.12 296.385 771.12C294.633 771.12 293.049 772.104 292.233 773.088V771.408H290.433V783H292.233V774.528C292.929 773.592 294.249 772.728 295.665 772.728C297.225 772.728 298.281 773.352 298.281 775.416V783H300.057Z" fill="white"/>
<path d="M-75 436.633C-75 436.633 -37.4128 486.033 -15.4837 559.985C6.44533 633.937 2.68297 719.521 59.4052 726.805C116.128 734.088 132.769 535.42 206.524 535.42C280.279 535.42 380.158 731.12 461.913 712.534C543.668 693.947 643.447 532.563 700.837 498.869C758.228 465.175 873.866 524.636 975.037 429.498C1076.21 334.36 1095.91 334.36 1133.25 334.36C1170.59 334.36 1199.99 393.369 1251.81 436.633C1303.64 479.897 1414.47 503.23 1487.3 384.307C1560.13 265.384 1613.02 20.0757 1659.63 3.42648C1706.24 -13.2227 1727.49 61.2598 1753 61.2598" stroke="white" stroke-width="2" stroke-linecap="round" stroke-linejoin="round"/>
<circle cx="199" cy="539" r="11" fill="#D94FD5"/>
<circle cx="474" cy="706" r="11" fill="white"/>
<circle cx="812" cy="488" r="11" fill="white"/>
<circle cx="1140" cy="334" r="11" fill="white"/>
<circle cx="1508" cy="352" r="11" fill="white"/>
<defs>
<linearGradient id="paint0_linear_506_2" x1="61.6137" y1="102.719" x2="689.812" y2="1330.37" gradientUnits="userSpaceOnUse">
<stop stop-color="#C54A92"/>
<stop offset="1" stop-color="#2E62EB"/>
</linearGradient>
</defs>
</svg>
