<svg width="360" height="1424" viewBox="0 0 360 1424" fill="none" xmlns="http://www.w3.org/2000/svg">
<path opacity="0.4" d="M-89.5376 671.404C-179.626 761.182 2.42112 867.094 -88.4719 957.673L-71.2705 967.68C19.6224 877.101 39.6906 888.777 129.779 798.999C220.672 708.42 61.56 615.851 151.649 526.074C242.542 435.495 372.985 511.385 463.878 420.806C553.967 331.028 476.561 285.995 567.454 195.416L347 31.0689C256.107 121.648 415.722 262.913 325.633 352.69C234.74 443.269 -1.14382 293.723 -92.0368 384.302C-182.125 474.079 1.35535 580.825 -89.5376 671.404Z" fill="url(#paint0_linear_508_3)"/>
<path d="M-81.0299 1256.8C-81.0299 1256.8 -48.4064 1243.44 -4.61622 1242.28C39.1739 1241.12 85.5691 1255.76 97.9017 1225.72C110.234 1195.67 3.69955 1157.34 14.5404 1116.88C25.3813 1076.43 147.415 1050.4 149.236 1002.82C151.057 955.242 77.1947 876.787 67.1471 840.352C57.0994 803.918 106.715 749.223 69.3965 679.741C32.0783 610.259 34.9737 599.453 40.4625 578.969C45.9512 558.485 82.6425 551.031 113.993 528.961C145.344 506.891 174.434 449.523 119.902 392.092C65.3712 334.661 -61.4209 269.591 -63.7032 241.576C-65.9855 213.562 -22.0032 212.85 -18.254 198.858" stroke="white" stroke-width="2" stroke-linecap="round" stroke-linejoin="round"/>
<path d="M143.693 238.24C141.679 238.24 140.013 237.593 138.693 236.3C137.386 234.993 136.733 233.34 136.733 231.34C136.733 229.34 137.386 227.693 138.693 226.4C140.013 225.093 141.679 224.44 143.693 224.44C145.719 224.44 147.386 225.087 148.693 226.38C150.013 227.673 150.673 229.327 150.673 231.34C150.673 233.22 150.093 234.793 148.933 236.06L149.913 237.2L147.933 238.82L146.853 237.58C145.866 238.02 144.813 238.24 143.693 238.24ZM143.693 235.72C144.159 235.72 144.626 235.647 145.093 235.5L143.633 233.78L145.593 232.16L147.073 233.9C147.526 233.153 147.753 232.3 147.753 231.34C147.753 230.073 147.379 229.027 146.633 228.2C145.886 227.373 144.906 226.96 143.693 226.96C142.479 226.96 141.499 227.373 140.753 228.2C140.019 229.027 139.653 230.073 139.653 231.34C139.653 232.607 140.019 233.653 140.753 234.48C141.499 235.307 142.479 235.72 143.693 235.72ZM158.246 238H155.406V228.32L153.186 230.58L151.566 228.88L155.766 224.66H158.246V238ZM175.666 238H165.626V235.78C168.479 233.66 170.366 232.153 171.286 231.26C172.219 230.353 172.686 229.507 172.686 228.72C172.686 228.173 172.472 227.747 172.046 227.44C171.619 227.133 171.112 226.98 170.526 226.98C169.126 226.98 167.932 227.493 166.946 228.52L165.326 226.64C165.952 225.92 166.719 225.38 167.626 225.02C168.546 224.647 169.492 224.46 170.466 224.46C171.932 224.46 173.146 224.847 174.106 225.62C175.079 226.393 175.566 227.427 175.566 228.72C175.566 229.813 175.132 230.887 174.266 231.94C173.412 232.98 172.066 234.167 170.226 235.5H175.666V238ZM185.978 237.22C185.124 237.9 184.091 238.24 182.878 238.24C181.664 238.24 180.624 237.9 179.758 237.22C178.904 236.527 178.291 235.673 177.918 234.66C177.544 233.647 177.358 232.54 177.358 231.34C177.358 230.14 177.544 229.033 177.918 228.02C178.291 227.007 178.904 226.16 179.758 225.48C180.624 224.8 181.664 224.46 182.878 224.46C184.091 224.46 185.124 224.8 185.978 225.48C186.831 226.16 187.444 227.007 187.818 228.02C188.204 229.033 188.398 230.14 188.398 231.34C188.398 232.54 188.204 233.647 187.818 234.66C187.444 235.673 186.831 236.527 185.978 237.22ZM180.878 234.52C181.304 235.32 181.971 235.72 182.878 235.72C183.784 235.72 184.444 235.32 184.858 234.52C185.284 233.72 185.498 232.66 185.498 231.34C185.498 230.02 185.284 228.967 184.858 228.18C184.444 227.38 183.784 226.98 182.878 226.98C181.971 226.98 181.304 227.38 180.878 228.18C180.451 228.967 180.238 230.02 180.238 231.34C180.238 232.66 180.451 233.72 180.878 234.52ZM200.06 238H190.02V235.78C192.873 233.66 194.76 232.153 195.68 231.26C196.613 230.353 197.08 229.507 197.08 228.72C197.08 228.173 196.867 227.747 196.44 227.44C196.013 227.133 195.507 226.98 194.92 226.98C193.52 226.98 192.327 227.493 191.34 228.52L189.72 226.64C190.347 225.92 191.113 225.38 192.02 225.02C192.94 224.647 193.887 224.46 194.86 224.46C196.327 224.46 197.54 224.847 198.5 225.62C199.473 226.393 199.96 227.427 199.96 228.72C199.96 229.813 199.527 230.887 198.66 231.94C197.807 232.98 196.46 234.167 194.62 235.5H200.06V238ZM206.732 238.24C205.559 238.24 204.519 238.047 203.612 237.66C202.706 237.26 201.992 236.74 201.472 236.1L202.952 234.2C203.406 234.667 203.966 235.04 204.632 235.32C205.299 235.587 205.966 235.72 206.632 235.72C207.432 235.72 208.052 235.567 208.492 235.26C208.932 234.94 209.152 234.527 209.152 234.02C209.152 233.487 208.939 233.1 208.512 232.86C208.086 232.607 207.406 232.48 206.472 232.48C205.632 232.48 205.079 232.493 204.812 232.52V229.96C204.972 229.973 205.526 229.98 206.472 229.98C208.112 229.98 208.932 229.507 208.932 228.56C208.932 228.053 208.699 227.667 208.232 227.4C207.779 227.12 207.186 226.98 206.452 226.98C205.159 226.98 204.032 227.44 203.072 228.36L201.652 226.58C202.906 225.167 204.606 224.46 206.752 224.46C208.312 224.46 209.539 224.787 210.432 225.44C211.339 226.093 211.792 226.973 211.792 228.08C211.792 228.88 211.506 229.553 210.932 230.1C210.359 230.633 209.672 230.973 208.872 231.12C209.659 231.2 210.372 231.527 211.012 232.1C211.666 232.66 211.992 233.4 211.992 234.32C211.992 235.48 211.512 236.427 210.552 237.16C209.592 237.88 208.319 238.24 206.732 238.24ZM216.511 230.96C216.191 231.28 215.811 231.44 215.371 231.44C214.931 231.44 214.551 231.28 214.231 230.96C213.911 230.64 213.751 230.26 213.751 229.82C213.751 229.38 213.911 229 214.231 228.68C214.551 228.36 214.931 228.2 215.371 228.2C215.811 228.2 216.191 228.36 216.511 228.68C216.831 229 216.991 229.38 216.991 229.82C216.991 230.26 216.831 230.64 216.511 230.96ZM216.511 237.74C216.191 238.06 215.811 238.22 215.371 238.22C214.931 238.22 214.551 238.06 214.231 237.74C213.911 237.42 213.751 237.04 213.751 236.6C213.751 236.16 213.911 235.78 214.231 235.46C214.551 235.14 214.931 234.98 215.371 234.98C215.811 234.98 216.191 235.14 216.511 235.46C216.831 235.78 216.991 236.16 216.991 236.6C216.991 237.04 216.831 237.42 216.511 237.74Z" fill="#7AE8FD"/>
<path d="M89.8098 266V260.7H93.5098C96.1698 260.7 97.6898 258.86 97.6898 256.68C97.6898 254.5 96.1898 252.66 93.5098 252.66H88.1498V266H89.8098ZM93.3098 259.22H89.8098V254.14H93.3098C94.8898 254.14 95.9698 255.18 95.9698 256.68C95.9698 258.18 94.8898 259.22 93.3098 259.22ZM101.328 266V259.16C101.768 258.38 103.028 257.62 103.968 257.62C104.188 257.62 104.368 257.64 104.548 257.66V256.12C103.228 256.12 102.108 256.88 101.328 257.88V256.34H99.8281V266H101.328ZM110.65 266.24C113.59 266.24 115.43 263.96 115.43 261.16C115.43 258.36 113.59 256.1 110.65 256.1C107.71 256.1 105.87 258.36 105.87 261.16C105.87 263.96 107.71 266.24 110.65 266.24ZM110.65 264.9C108.59 264.9 107.45 263.14 107.45 261.16C107.45 259.2 108.59 257.44 110.65 257.44C112.71 257.44 113.85 259.2 113.85 261.16C113.85 263.14 112.71 264.9 110.65 264.9ZM118.635 254.96C119.195 254.96 119.635 254.52 119.635 253.96C119.635 253.4 119.195 252.94 118.635 252.94C118.075 252.94 117.615 253.4 117.615 253.96C117.615 254.52 118.075 254.96 118.635 254.96ZM116.515 269.92C118.375 269.92 119.375 268.84 119.375 266.94V256.34H117.875V266.94C117.875 268.16 117.215 268.68 116.315 268.68C115.715 268.68 115.275 268.42 114.935 268.08L114.415 269.2C115.015 269.68 115.535 269.92 116.515 269.92ZM126.747 266.24C128.307 266.24 129.607 265.7 130.587 264.74L129.867 263.76C129.087 264.56 127.987 265 126.867 265C124.787 265 123.527 263.48 123.407 261.66H131.207V261.28C131.207 258.38 129.487 256.1 126.567 256.1C123.807 256.1 121.807 258.36 121.807 261.16C121.807 264.18 123.867 266.24 126.747 266.24ZM129.727 260.54H123.387C123.467 259.08 124.487 257.34 126.547 257.34C128.747 257.34 129.707 259.12 129.727 260.54ZM137.897 266.24C139.657 266.24 140.697 265.52 141.437 264.56L140.437 263.64C139.797 264.5 138.977 264.9 137.977 264.9C135.937 264.9 134.637 263.3 134.637 261.16C134.637 259.02 135.937 257.44 137.977 257.44C138.977 257.44 139.797 257.8 140.437 258.68L141.437 257.78C140.697 256.82 139.657 256.1 137.897 256.1C135.017 256.1 133.077 258.3 133.077 261.16C133.077 264.02 135.017 266.24 137.897 266.24ZM146.019 266.24C146.879 266.24 147.419 265.98 147.799 265.62L147.359 264.48C147.159 264.7 146.779 264.9 146.339 264.9C145.699 264.9 145.379 264.38 145.379 263.66V257.66H147.339V256.34H145.379V253.7H143.859V256.34H142.259V257.66H143.859V263.98C143.859 265.42 144.579 266.24 146.019 266.24ZM155.373 254.96C155.933 254.96 156.373 254.52 156.373 253.96C156.373 253.4 155.933 252.94 155.373 252.94C154.813 252.94 154.353 253.4 154.353 253.96C154.353 254.52 154.813 254.96 155.373 254.96ZM156.113 266V256.34H154.613V266H156.113ZM167.125 266V259.22C167.125 257.12 166.065 256.1 164.065 256.1C162.605 256.1 161.285 256.92 160.605 257.74V256.34H159.105V266H160.605V258.94C161.185 258.16 162.285 257.44 163.465 257.44C164.765 257.44 165.645 257.96 165.645 259.68V266H167.125ZM174.401 266.24C176.161 266.24 177.201 265.52 177.941 264.56L176.941 263.64C176.301 264.5 175.481 264.9 174.481 264.9C172.441 264.9 171.141 263.3 171.141 261.16C171.141 259.02 172.441 257.44 174.481 257.44C175.481 257.44 176.301 257.8 176.941 258.68L177.941 257.78C177.201 256.82 176.161 256.1 174.401 256.1C171.521 256.1 169.581 258.3 169.581 261.16C169.581 264.02 171.521 266.24 174.401 266.24ZM184.442 266.24C186.003 266.24 187.303 265.7 188.283 264.74L187.563 263.76C186.783 264.56 185.683 265 184.563 265C182.483 265 181.223 263.48 181.103 261.66H188.903V261.28C188.903 258.38 187.183 256.1 184.263 256.1C181.502 256.1 179.503 258.36 179.503 261.16C179.503 264.18 181.563 266.24 184.442 266.24ZM187.423 260.54H181.083C181.163 259.08 182.183 257.34 184.243 257.34C186.443 257.34 187.403 259.12 187.423 260.54ZM196.092 266.24C198.632 266.24 200.392 264.28 200.392 261.16C200.392 258.02 198.632 256.1 196.092 256.1C194.732 256.1 193.532 256.8 192.832 257.78V256.34H191.332V269.68H192.832V264.54C193.632 265.6 194.772 266.24 196.092 266.24ZM195.712 264.9C194.532 264.9 193.352 264.18 192.832 263.34V258.98C193.352 258.14 194.532 257.44 195.712 257.44C197.652 257.44 198.812 259.02 198.812 261.16C198.812 263.3 197.652 264.9 195.712 264.9ZM205.237 266.24C206.097 266.24 206.637 265.98 207.017 265.62L206.577 264.48C206.377 264.7 205.997 264.9 205.557 264.9C204.917 264.9 204.597 264.38 204.597 263.66V257.66H206.557V256.34H204.597V253.7H203.077V256.34H201.477V257.66H203.077V263.98C203.077 265.42 203.797 266.24 205.237 266.24ZM209.416 254.96C209.976 254.96 210.416 254.52 210.416 253.96C210.416 253.4 209.976 252.94 209.416 252.94C208.856 252.94 208.396 253.4 208.396 253.96C208.396 254.52 208.856 254.96 209.416 254.96ZM210.156 266V256.34H208.656V266H210.156ZM217.368 266.24C220.308 266.24 222.148 263.96 222.148 261.16C222.148 258.36 220.308 256.1 217.368 256.1C214.428 256.1 212.588 258.36 212.588 261.16C212.588 263.96 214.428 266.24 217.368 266.24ZM217.368 264.9C215.308 264.9 214.168 263.14 214.168 261.16C214.168 259.2 215.308 257.44 217.368 257.44C219.428 257.44 220.568 259.2 220.568 261.16C220.568 263.14 219.428 264.9 217.368 264.9ZM232.614 266V259.22C232.614 257.12 231.554 256.1 229.554 256.1C228.094 256.1 226.774 256.92 226.094 257.74V256.34H224.594V266H226.094V258.94C226.674 258.16 227.774 257.44 228.954 257.44C230.254 257.44 231.134 257.96 231.134 259.68V266H232.614ZM248.345 266V259.36C248.345 257.02 246.665 256.1 244.605 256.1C243.025 256.1 241.785 256.62 240.745 257.7L241.445 258.74C242.305 257.8 243.245 257.4 244.405 257.4C245.805 257.4 246.845 258.14 246.845 259.42V261.16C246.065 260.28 244.965 259.86 243.645 259.86C242.005 259.86 240.285 260.86 240.285 263.04C240.285 265.14 242.025 266.24 243.645 266.24C244.945 266.24 246.065 265.78 246.845 264.9V266H248.345ZM244.205 265.16C242.785 265.16 241.805 264.28 241.805 263.04C241.805 261.82 242.785 260.94 244.205 260.94C245.245 260.94 246.265 261.34 246.845 262.12V263.96C246.265 264.76 245.245 265.16 244.205 265.16ZM259.391 266V259.22C259.391 257.12 258.331 256.1 256.331 256.1C254.871 256.1 253.551 256.92 252.871 257.74V256.34H251.371V266H252.871V258.94C253.451 258.16 254.551 257.44 255.731 257.44C257.031 257.44 257.911 257.96 257.911 259.68V266H259.391ZM270.906 266V252.66H269.406V257.8C268.626 256.74 267.446 256.1 266.146 256.1C263.626 256.1 261.846 258.08 261.846 261.18C261.846 264.32 263.626 266.24 266.146 266.24C267.506 266.24 268.686 265.54 269.406 264.56V266H270.906ZM266.526 264.9C264.566 264.9 263.406 263.32 263.406 261.18C263.406 259.04 264.566 257.44 266.526 257.44C267.706 257.44 268.886 258.16 269.406 259V263.36C268.886 264.2 267.706 264.9 266.526 264.9ZM117.288 294.24C118.148 294.24 118.688 293.98 119.068 293.62L118.628 292.48C118.428 292.7 118.048 292.9 117.608 292.9C116.968 292.9 116.648 292.38 116.648 291.66V285.66H118.608V284.34H116.648V281.7H115.128V284.34H113.528V285.66H115.128V291.98C115.128 293.42 115.848 294.24 117.288 294.24ZM125.087 294.24C126.647 294.24 127.947 293.7 128.927 292.74L128.207 291.76C127.427 292.56 126.327 293 125.207 293C123.127 293 121.867 291.48 121.747 289.66H129.547V289.28C129.547 286.38 127.827 284.1 124.907 284.1C122.147 284.1 120.147 286.36 120.147 289.16C120.147 292.18 122.207 294.24 125.087 294.24ZM128.067 288.54H121.727C121.807 287.08 122.827 285.34 124.887 285.34C127.087 285.34 128.047 287.12 128.067 288.54ZM139.517 294V287.36C139.517 285.02 137.837 284.1 135.777 284.1C134.197 284.1 132.957 284.62 131.917 285.7L132.617 286.74C133.477 285.8 134.417 285.4 135.577 285.4C136.977 285.4 138.017 286.14 138.017 287.42V289.16C137.237 288.28 136.137 287.86 134.817 287.86C133.177 287.86 131.457 288.86 131.457 291.04C131.457 293.14 133.197 294.24 134.817 294.24C136.117 294.24 137.237 293.78 138.017 292.9V294H139.517ZM135.377 293.16C133.957 293.16 132.977 292.28 132.977 291.04C132.977 289.82 133.957 288.94 135.377 288.94C136.417 288.94 137.437 289.34 138.017 290.12V291.96C137.437 292.76 136.417 293.16 135.377 293.16ZM155.703 294V287.02C155.703 285.08 154.763 284.1 153.003 284.1C151.603 284.1 150.303 285.02 149.763 285.9C149.483 284.9 148.643 284.1 147.183 284.1C145.743 284.1 144.463 285.12 144.043 285.74V284.34H142.543V294H144.043V286.94C144.563 286.16 145.603 285.44 146.583 285.44C147.863 285.44 148.363 286.22 148.363 287.44V294H149.863V286.92C150.363 286.14 151.423 285.44 152.423 285.44C153.683 285.44 154.203 286.22 154.203 287.44V294H155.703ZM165.791 294V285.66H167.751V284.34H165.791V283.6C165.791 282.36 166.331 281.7 167.331 281.7C167.811 281.7 168.191 281.88 168.511 282.16L169.131 281.2C168.531 280.64 167.871 280.46 167.091 280.46C165.391 280.46 164.291 281.62 164.291 283.6V284.34H162.691V285.66H164.291V294H165.791ZM173.775 294.24C176.715 294.24 178.555 291.96 178.555 289.16C178.555 286.36 176.715 284.1 173.775 284.1C170.835 284.1 168.995 286.36 168.995 289.16C168.995 291.96 170.835 294.24 173.775 294.24ZM173.775 292.9C171.715 292.9 170.575 291.14 170.575 289.16C170.575 287.2 171.715 285.44 173.775 285.44C175.835 285.44 176.975 287.2 176.975 289.16C176.975 291.14 175.835 292.9 173.775 292.9ZM182.5 294V287.16C182.94 286.38 184.2 285.62 185.14 285.62C185.36 285.62 185.54 285.64 185.72 285.66V284.12C184.4 284.12 183.28 284.88 182.5 285.88V284.34H181V294H182.5ZM200.762 294V287.02C200.762 285.08 199.822 284.1 198.062 284.1C196.662 284.1 195.362 285.02 194.822 285.9C194.542 284.9 193.702 284.1 192.242 284.1C190.802 284.1 189.522 285.12 189.102 285.74V284.34H187.602V294H189.102V286.94C189.622 286.16 190.662 285.44 191.642 285.44C192.922 285.44 193.422 286.22 193.422 287.44V294H194.922V286.92C195.422 286.14 196.482 285.44 197.482 285.44C198.742 285.44 199.262 286.22 199.262 287.44V294H200.762ZM211.294 294V287.36C211.294 285.02 209.614 284.1 207.554 284.1C205.974 284.1 204.734 284.62 203.694 285.7L204.394 286.74C205.254 285.8 206.194 285.4 207.354 285.4C208.754 285.4 209.794 286.14 209.794 287.42V289.16C209.014 288.28 207.914 287.86 206.594 287.86C204.954 287.86 203.234 288.86 203.234 291.04C203.234 293.14 204.974 294.24 206.594 294.24C207.894 294.24 209.014 293.78 209.794 292.9V294H211.294ZM207.154 293.16C205.734 293.16 204.754 292.28 204.754 291.04C204.754 289.82 205.734 288.94 207.154 288.94C208.194 288.94 209.214 289.34 209.794 290.12V291.96C209.214 292.76 208.194 293.16 207.154 293.16ZM216.78 294.24C217.64 294.24 218.18 293.98 218.56 293.62L218.12 292.48C217.92 292.7 217.54 292.9 217.1 292.9C216.46 292.9 216.14 292.38 216.14 291.66V285.66H218.1V284.34H216.14V281.7H214.62V284.34H213.02V285.66H214.62V291.98C214.62 293.42 215.34 294.24 216.78 294.24ZM220.959 282.96C221.519 282.96 221.959 282.52 221.959 281.96C221.959 281.4 221.519 280.94 220.959 280.94C220.399 280.94 219.939 281.4 219.939 281.96C219.939 282.52 220.399 282.96 220.959 282.96ZM221.699 294V284.34H220.199V294H221.699ZM228.911 294.24C231.851 294.24 233.691 291.96 233.691 289.16C233.691 286.36 231.851 284.1 228.911 284.1C225.971 284.1 224.131 286.36 224.131 289.16C224.131 291.96 225.971 294.24 228.911 294.24ZM228.911 292.9C226.851 292.9 225.711 291.14 225.711 289.16C225.711 287.2 226.851 285.44 228.911 285.44C230.971 285.44 232.111 287.2 232.111 289.16C232.111 291.14 230.971 292.9 228.911 292.9ZM244.157 294V287.22C244.157 285.12 243.097 284.1 241.097 284.1C239.637 284.1 238.317 284.92 237.637 285.74V284.34H236.137V294H237.637V286.94C238.217 286.16 239.317 285.44 240.497 285.44C241.797 285.44 242.677 285.96 242.677 287.68V294H244.157Z" fill="white"/>
<path d="M194.808 543.24C192.795 543.24 191.128 542.593 189.808 541.3C188.501 539.993 187.848 538.34 187.848 536.34C187.848 534.34 188.501 532.693 189.808 531.4C191.128 530.093 192.795 529.44 194.808 529.44C196.835 529.44 198.501 530.087 199.808 531.38C201.128 532.673 201.788 534.327 201.788 536.34C201.788 538.22 201.208 539.793 200.048 541.06L201.028 542.2L199.048 543.82L197.968 542.58C196.981 543.02 195.928 543.24 194.808 543.24ZM194.808 540.72C195.275 540.72 195.741 540.647 196.208 540.5L194.748 538.78L196.708 537.16L198.188 538.9C198.641 538.153 198.868 537.3 198.868 536.34C198.868 535.073 198.495 534.027 197.748 533.2C197.001 532.373 196.021 531.96 194.808 531.96C193.595 531.96 192.615 532.373 191.868 533.2C191.135 534.027 190.768 535.073 190.768 536.34C190.768 537.607 191.135 538.653 191.868 539.48C192.615 540.307 193.595 540.72 194.808 540.72ZM213.441 543H203.401V540.78C206.254 538.66 208.141 537.153 209.061 536.26C209.994 535.353 210.461 534.507 210.461 533.72C210.461 533.173 210.248 532.747 209.821 532.44C209.394 532.133 208.888 531.98 208.301 531.98C206.901 531.98 205.708 532.493 204.721 533.52L203.101 531.64C203.728 530.92 204.494 530.38 205.401 530.02C206.321 529.647 207.268 529.46 208.241 529.46C209.708 529.46 210.921 529.847 211.881 530.62C212.854 531.393 213.341 532.427 213.341 533.72C213.341 534.813 212.908 535.887 212.041 536.94C211.188 537.98 209.841 539.167 208.001 540.5H213.441V543ZM230.55 543H220.51V540.78C223.364 538.66 225.25 537.153 226.17 536.26C227.104 535.353 227.57 534.507 227.57 533.72C227.57 533.173 227.357 532.747 226.93 532.44C226.504 532.133 225.997 531.98 225.41 531.98C224.01 531.98 222.817 532.493 221.83 533.52L220.21 531.64C220.837 530.92 221.604 530.38 222.51 530.02C223.43 529.647 224.377 529.46 225.35 529.46C226.817 529.46 228.03 529.847 228.99 530.62C229.964 531.393 230.45 532.427 230.45 533.72C230.45 534.813 230.017 535.887 229.15 536.94C228.297 537.98 226.95 539.167 225.11 540.5H230.55V543ZM240.863 542.22C240.009 542.9 238.976 543.24 237.763 543.24C236.549 543.24 235.509 542.9 234.643 542.22C233.789 541.527 233.176 540.673 232.803 539.66C232.429 538.647 232.243 537.54 232.243 536.34C232.243 535.14 232.429 534.033 232.803 533.02C233.176 532.007 233.789 531.16 234.643 530.48C235.509 529.8 236.549 529.46 237.763 529.46C238.976 529.46 240.009 529.8 240.863 530.48C241.716 531.16 242.329 532.007 242.703 533.02C243.089 534.033 243.283 535.14 243.283 536.34C243.283 537.54 243.089 538.647 242.703 539.66C242.329 540.673 241.716 541.527 240.863 542.22ZM235.763 539.52C236.189 540.32 236.856 540.72 237.763 540.72C238.669 540.72 239.329 540.32 239.743 539.52C240.169 538.72 240.383 537.66 240.383 536.34C240.383 535.02 240.169 533.967 239.743 533.18C239.329 532.38 238.669 531.98 237.763 531.98C236.856 531.98 236.189 532.38 235.763 533.18C235.336 533.967 235.123 535.02 235.123 536.34C235.123 537.66 235.336 538.72 235.763 539.52ZM254.945 543H244.905V540.78C247.758 538.66 249.645 537.153 250.565 536.26C251.498 535.353 251.965 534.507 251.965 533.72C251.965 533.173 251.752 532.747 251.325 532.44C250.898 532.133 250.392 531.98 249.805 531.98C248.405 531.98 247.212 532.493 246.225 533.52L244.605 531.64C245.232 530.92 245.998 530.38 246.905 530.02C247.825 529.647 248.772 529.46 249.745 529.46C251.212 529.46 252.425 529.847 253.385 530.62C254.358 531.393 254.845 532.427 254.845 533.72C254.845 534.813 254.412 535.887 253.545 536.94C252.692 537.98 251.345 539.167 249.505 540.5H254.945V543ZM261.617 543.24C260.444 543.24 259.404 543.047 258.497 542.66C257.59 542.26 256.877 541.74 256.357 541.1L257.837 539.2C258.29 539.667 258.85 540.04 259.517 540.32C260.184 540.587 260.85 540.72 261.517 540.72C262.317 540.72 262.937 540.567 263.377 540.26C263.817 539.94 264.037 539.527 264.037 539.02C264.037 538.487 263.824 538.1 263.397 537.86C262.97 537.607 262.29 537.48 261.357 537.48C260.517 537.48 259.964 537.493 259.697 537.52V534.96C259.857 534.973 260.41 534.98 261.357 534.98C262.997 534.98 263.817 534.507 263.817 533.56C263.817 533.053 263.584 532.667 263.117 532.4C262.664 532.12 262.07 531.98 261.337 531.98C260.044 531.98 258.917 532.44 257.957 533.36L256.537 531.58C257.79 530.167 259.49 529.46 261.637 529.46C263.197 529.46 264.424 529.787 265.317 530.44C266.224 531.093 266.677 531.973 266.677 533.08C266.677 533.88 266.39 534.553 265.817 535.1C265.244 535.633 264.557 535.973 263.757 536.12C264.544 536.2 265.257 536.527 265.897 537.1C266.55 537.66 266.877 538.4 266.877 539.32C266.877 540.48 266.397 541.427 265.437 542.16C264.477 542.88 263.204 543.24 261.617 543.24ZM271.395 535.96C271.075 536.28 270.695 536.44 270.255 536.44C269.815 536.44 269.435 536.28 269.115 535.96C268.795 535.64 268.635 535.26 268.635 534.82C268.635 534.38 268.795 534 269.115 533.68C269.435 533.36 269.815 533.2 270.255 533.2C270.695 533.2 271.075 533.36 271.395 533.68C271.715 534 271.875 534.38 271.875 534.82C271.875 535.26 271.715 535.64 271.395 535.96ZM271.395 542.74C271.075 543.06 270.695 543.22 270.255 543.22C269.815 543.22 269.435 543.06 269.115 542.74C268.795 542.42 268.635 542.04 268.635 541.6C268.635 541.16 268.795 540.78 269.115 540.46C269.435 540.14 269.815 539.98 270.255 539.98C270.695 539.98 271.075 540.14 271.395 540.46C271.715 540.78 271.875 541.16 271.875 541.6C271.875 542.04 271.715 542.42 271.395 542.74Z" fill="#80ECFE"/>
<path d="M141.119 571L144.939 557.66H143.079L140.139 568.78L137.079 557.66H135.699L132.639 568.78L129.679 557.66H127.839L131.639 571H133.439L136.379 560.24L139.319 571H141.119ZM154.755 571V564.18C154.755 562.08 153.695 561.1 151.675 561.1C150.215 561.1 148.895 561.92 148.235 562.74V557.66H146.735V571H148.235V563.94C148.795 563.16 149.915 562.44 151.075 562.44C152.395 562.44 153.255 562.92 153.255 564.64V571H154.755ZM158.51 559.96C159.07 559.96 159.51 559.52 159.51 558.96C159.51 558.4 159.07 557.94 158.51 557.94C157.95 557.94 157.49 558.4 157.49 558.96C157.49 559.52 157.95 559.96 158.51 559.96ZM159.25 571V561.34H157.75V571H159.25ZM164.702 571.24C165.562 571.24 166.102 570.98 166.482 570.62L166.042 569.48C165.842 569.7 165.462 569.9 165.022 569.9C164.382 569.9 164.062 569.38 164.062 568.66V562.66H166.022V561.34H164.062V558.7H162.542V561.34H160.942V562.66H162.542V568.98C162.542 570.42 163.262 571.24 164.702 571.24ZM172.501 571.24C174.061 571.24 175.361 570.7 176.341 569.74L175.621 568.76C174.841 569.56 173.741 570 172.621 570C170.541 570 169.281 568.48 169.161 566.66H176.961V566.28C176.961 563.38 175.241 561.1 172.321 561.1C169.561 561.1 167.561 563.36 167.561 566.16C167.561 569.18 169.621 571.24 172.501 571.24ZM175.481 565.54H169.141C169.221 564.08 170.241 562.34 172.301 562.34C174.501 562.34 175.461 564.12 175.481 565.54ZM184.151 571.24C186.691 571.24 188.451 569.28 188.451 566.16C188.451 563.02 186.691 561.1 184.151 561.1C182.791 561.1 181.591 561.8 180.891 562.78V561.34H179.391V574.68H180.891V569.54C181.691 570.6 182.831 571.24 184.151 571.24ZM183.771 569.9C182.591 569.9 181.411 569.18 180.891 568.34V563.98C181.411 563.14 182.591 562.44 183.771 562.44C185.711 562.44 186.871 564.02 186.871 566.16C186.871 568.3 185.711 569.9 183.771 569.9ZM198.376 571V564.36C198.376 562.02 196.696 561.1 194.636 561.1C193.056 561.1 191.816 561.62 190.776 562.7L191.476 563.74C192.336 562.8 193.276 562.4 194.436 562.4C195.836 562.4 196.876 563.14 196.876 564.42V566.16C196.096 565.28 194.996 564.86 193.676 564.86C192.036 564.86 190.316 565.86 190.316 568.04C190.316 570.14 192.056 571.24 193.676 571.24C194.976 571.24 196.096 570.78 196.876 569.9V571H198.376ZM194.236 570.16C192.816 570.16 191.836 569.28 191.836 568.04C191.836 566.82 192.816 565.94 194.236 565.94C195.276 565.94 196.296 566.34 196.876 567.12V568.96C196.296 569.76 195.276 570.16 194.236 570.16ZM206.162 571.24C208.702 571.24 210.462 569.28 210.462 566.16C210.462 563.02 208.702 561.1 206.162 561.1C204.802 561.1 203.602 561.8 202.902 562.78V561.34H201.402V574.68H202.902V569.54C203.702 570.6 204.842 571.24 206.162 571.24ZM205.782 569.9C204.602 569.9 203.422 569.18 202.902 568.34V563.98C203.422 563.14 204.602 562.44 205.782 562.44C207.722 562.44 208.882 564.02 208.882 566.16C208.882 568.3 207.722 569.9 205.782 569.9ZM217.228 571.24C218.788 571.24 220.088 570.7 221.068 569.74L220.348 568.76C219.568 569.56 218.468 570 217.348 570C215.268 570 214.008 568.48 213.888 566.66H221.688V566.28C221.688 563.38 219.968 561.1 217.048 561.1C214.288 561.1 212.288 563.36 212.288 566.16C212.288 569.18 214.348 571.24 217.228 571.24ZM220.208 565.54H213.868C213.948 564.08 214.968 562.34 217.028 562.34C219.228 562.34 220.188 564.12 220.208 565.54ZM225.617 571V564.16C226.057 563.38 227.317 562.62 228.257 562.62C228.477 562.62 228.657 562.64 228.837 562.66V561.12C227.517 561.12 226.397 561.88 225.617 562.88V561.34H224.117V571H225.617ZM237.395 571V564.16C237.835 563.38 239.095 562.62 240.035 562.62C240.255 562.62 240.435 562.64 240.615 562.66V561.12C239.295 561.12 238.175 561.88 237.395 562.88V561.34H235.895V571H237.395ZM246.876 571.24C248.436 571.24 249.736 570.7 250.716 569.74L249.996 568.76C249.216 569.56 248.116 570 246.996 570C244.916 570 243.656 568.48 243.536 566.66H251.336V566.28C251.336 563.38 249.616 561.1 246.696 561.1C243.936 561.1 241.936 563.36 241.936 566.16C241.936 569.18 243.996 571.24 246.876 571.24ZM249.856 565.54H243.516C243.596 564.08 244.616 562.34 246.676 562.34C248.876 562.34 249.836 564.12 249.856 565.54ZM255.266 571V557.66H253.766V571H255.266ZM262.638 571.24C264.198 571.24 265.498 570.7 266.478 569.74L265.758 568.76C264.978 569.56 263.878 570 262.758 570C260.678 570 259.418 568.48 259.298 566.66H267.098V566.28C267.098 563.38 265.378 561.1 262.458 561.1C259.698 561.1 257.698 563.36 257.698 566.16C257.698 569.18 259.758 571.24 262.638 571.24ZM265.618 565.54H259.278C259.358 564.08 260.378 562.34 262.438 562.34C264.638 562.34 265.598 564.12 265.618 565.54ZM277.067 571V564.36C277.067 562.02 275.387 561.1 273.327 561.1C271.747 561.1 270.507 561.62 269.467 562.7L270.167 563.74C271.027 562.8 271.967 562.4 273.127 562.4C274.527 562.4 275.567 563.14 275.567 564.42V566.16C274.787 565.28 273.687 564.86 272.367 564.86C270.727 564.86 269.007 565.86 269.007 568.04C269.007 570.14 270.747 571.24 272.367 571.24C273.667 571.24 274.787 570.78 275.567 569.9V571H277.067ZM272.927 570.16C271.507 570.16 270.527 569.28 270.527 568.04C270.527 566.82 271.507 565.94 272.927 565.94C273.967 565.94 274.987 566.34 275.567 567.12V568.96C274.987 569.76 273.967 570.16 272.927 570.16ZM283.174 571.24C285.654 571.24 286.954 569.94 286.954 568.32C286.954 564.56 280.974 565.94 280.974 563.84C280.974 562.98 281.794 562.32 283.114 562.32C284.374 562.32 285.414 562.84 285.994 563.54L286.694 562.5C285.934 561.72 284.774 561.1 283.114 561.1C280.814 561.1 279.534 562.36 279.534 563.88C279.534 567.46 285.514 566.02 285.514 568.36C285.514 569.32 284.694 570.02 283.214 570.02C281.894 570.02 280.674 569.38 280.034 568.64L279.274 569.72C280.254 570.74 281.574 571.24 283.174 571.24ZM293.771 571.24C295.331 571.24 296.631 570.7 297.611 569.74L296.891 568.76C296.111 569.56 295.011 570 293.891 570C291.811 570 290.551 568.48 290.431 566.66H298.231V566.28C298.231 563.38 296.511 561.1 293.591 561.1C290.831 561.1 288.831 563.36 288.831 566.16C288.831 569.18 290.891 571.24 293.771 571.24ZM296.751 565.54H290.411C290.491 564.08 291.511 562.34 293.571 562.34C295.771 562.34 296.731 564.12 296.751 565.54ZM313.376 571V564.36C313.376 562.02 311.696 561.1 309.636 561.1C308.056 561.1 306.816 561.62 305.776 562.7L306.476 563.74C307.336 562.8 308.276 562.4 309.436 562.4C310.836 562.4 311.876 563.14 311.876 564.42V566.16C311.096 565.28 309.996 564.86 308.676 564.86C307.036 564.86 305.316 565.86 305.316 568.04C305.316 570.14 307.056 571.24 308.676 571.24C309.976 571.24 311.096 570.78 311.876 569.9V571H313.376ZM309.236 570.16C307.816 570.16 306.836 569.28 306.836 568.04C306.836 566.82 307.816 565.94 309.236 565.94C310.276 565.94 311.296 566.34 311.876 567.12V568.96C311.296 569.76 310.276 570.16 309.236 570.16ZM324.422 571V564.22C324.422 562.12 323.362 561.1 321.362 561.1C319.902 561.1 318.582 561.92 317.902 562.74V561.34H316.402V571H317.902V563.94C318.482 563.16 319.582 562.44 320.762 562.44C322.062 562.44 322.942 562.96 322.942 564.68V571H324.422ZM335.938 571V557.66H334.438V562.8C333.658 561.74 332.478 561.1 331.178 561.1C328.658 561.1 326.878 563.08 326.878 566.18C326.878 569.32 328.658 571.24 331.178 571.24C332.538 571.24 333.718 570.54 334.438 569.56V571H335.938ZM331.558 569.9C329.598 569.9 328.438 568.32 328.438 566.18C328.438 564.04 329.598 562.44 331.558 562.44C332.738 562.44 333.918 563.16 334.438 564V568.36C333.918 569.2 332.738 569.9 331.558 569.9ZM178.06 599L181.14 589.34H179.56L177.2 597.04L174.68 589.34H173.38L170.84 597.04L168.48 589.34H166.92L170 599H171.5L174.02 591.24L176.54 599H178.06ZM187.247 599.24C188.807 599.24 190.107 598.7 191.087 597.74L190.367 596.76C189.587 597.56 188.487 598 187.367 598C185.287 598 184.027 596.48 183.907 594.66H191.707V594.28C191.707 591.38 189.987 589.1 187.067 589.1C184.307 589.1 182.307 591.36 182.307 594.16C182.307 597.18 184.367 599.24 187.247 599.24ZM190.227 593.54H183.887C183.967 592.08 184.987 590.34 187.047 590.34C189.247 590.34 190.207 592.12 190.227 593.54ZM195.637 596.38V592C196.157 591.16 197.337 590.44 198.537 590.44C200.477 590.44 201.637 592.04 201.637 594.18C201.637 596.32 200.477 597.9 198.537 597.9C197.337 597.9 196.157 597.22 195.637 596.38ZM195.637 599V597.56C196.357 598.54 197.537 599.24 198.897 599.24C201.417 599.24 203.197 597.32 203.197 594.18C203.197 591.08 201.437 589.1 198.897 589.1C197.597 589.1 196.417 589.74 195.637 590.8V585.66H194.137V599H195.637ZM208.721 599.24C211.201 599.24 212.501 597.94 212.501 596.32C212.501 592.56 206.521 593.94 206.521 591.84C206.521 590.98 207.341 590.32 208.661 590.32C209.921 590.32 210.961 590.84 211.541 591.54L212.241 590.5C211.481 589.72 210.321 589.1 208.661 589.1C206.361 589.1 205.081 590.36 205.081 591.88C205.081 595.46 211.061 594.02 211.061 596.36C211.061 597.32 210.241 598.02 208.761 598.02C207.441 598.02 206.221 597.38 205.581 596.64L204.821 597.72C205.801 598.74 207.121 599.24 208.721 599.24ZM215.698 587.96C216.258 587.96 216.698 587.52 216.698 586.96C216.698 586.4 216.258 585.94 215.698 585.94C215.138 585.94 214.678 586.4 214.678 586.96C214.678 587.52 215.138 587.96 215.698 587.96ZM216.438 599V589.34H214.938V599H216.438ZM221.89 599.24C222.75 599.24 223.29 598.98 223.67 598.62L223.23 597.48C223.03 597.7 222.65 597.9 222.21 597.9C221.57 597.9 221.25 597.38 221.25 596.66V590.66H223.21V589.34H221.25V586.7H219.73V589.34H218.13V590.66H219.73V596.98C219.73 598.42 220.45 599.24 221.89 599.24ZM229.689 599.24C231.249 599.24 232.549 598.7 233.529 597.74L232.809 596.76C232.029 597.56 230.929 598 229.809 598C227.729 598 226.469 596.48 226.349 594.66H234.149V594.28C234.149 591.38 232.429 589.1 229.509 589.1C226.749 589.1 224.749 591.36 224.749 594.16C224.749 597.18 226.809 599.24 229.689 599.24ZM232.669 593.54H226.329C226.409 592.08 227.429 590.34 229.489 590.34C231.689 590.34 232.649 592.12 232.669 593.54ZM243.254 599V585.66H241.754V599H243.254ZM253.786 599V592.36C253.786 590.02 252.106 589.1 250.046 589.1C248.466 589.1 247.226 589.62 246.186 590.7L246.886 591.74C247.746 590.8 248.686 590.4 249.846 590.4C251.246 590.4 252.286 591.14 252.286 592.42V594.16C251.506 593.28 250.406 592.86 249.086 592.86C247.446 592.86 245.726 593.86 245.726 596.04C245.726 598.14 247.466 599.24 249.086 599.24C250.386 599.24 251.506 598.78 252.286 597.9V599H253.786ZM249.646 598.16C248.226 598.16 247.246 597.28 247.246 596.04C247.246 594.82 248.226 593.94 249.646 593.94C250.686 593.94 251.706 594.34 252.286 595.12V596.96C251.706 597.76 250.686 598.16 249.646 598.16ZM264.833 599V589.34H263.333V596.44C262.773 597.22 261.653 597.9 260.493 597.9C259.173 597.9 258.313 597.4 258.313 595.7V589.34H256.813V596.16C256.813 598.24 257.873 599.24 259.893 599.24C261.333 599.24 262.593 598.48 263.333 597.64V599H264.833ZM275.848 599V592.22C275.848 590.12 274.788 589.1 272.788 589.1C271.328 589.1 270.008 589.92 269.328 590.74V589.34H267.828V599H269.328V591.94C269.908 591.16 271.008 590.44 272.188 590.44C273.488 590.44 274.368 590.96 274.368 592.68V599H275.848ZM283.123 599.24C284.883 599.24 285.923 598.52 286.663 597.56L285.663 596.64C285.023 597.5 284.203 597.9 283.203 597.9C281.163 597.9 279.863 596.3 279.863 594.16C279.863 592.02 281.163 590.44 283.203 590.44C284.203 590.44 285.023 590.8 285.663 591.68L286.663 590.78C285.923 589.82 284.883 589.1 283.123 589.1C280.243 589.1 278.303 591.3 278.303 594.16C278.303 597.02 280.243 599.24 283.123 599.24ZM296.825 599V592.18C296.825 590.08 295.765 589.1 293.745 589.1C292.285 589.1 290.965 589.92 290.305 590.74V585.66H288.805V599H290.305V591.94C290.865 591.16 291.985 590.44 293.145 590.44C294.465 590.44 295.325 590.92 295.325 592.64V599H296.825Z" fill="white"/>
<path d="M184.935 818.24C182.922 818.24 181.255 817.593 179.935 816.3C178.628 814.993 177.975 813.34 177.975 811.34C177.975 809.34 178.628 807.693 179.935 806.4C181.255 805.093 182.922 804.44 184.935 804.44C186.962 804.44 188.628 805.087 189.935 806.38C191.255 807.673 191.915 809.327 191.915 811.34C191.915 813.22 191.335 814.793 190.175 816.06L191.155 817.2L189.175 818.82L188.095 817.58C187.108 818.02 186.055 818.24 184.935 818.24ZM184.935 815.72C185.402 815.72 185.868 815.647 186.335 815.5L184.875 813.78L186.835 812.16L188.315 813.9C188.768 813.153 188.995 812.3 188.995 811.34C188.995 810.073 188.622 809.027 187.875 808.2C187.128 807.373 186.148 806.96 184.935 806.96C183.722 806.96 182.742 807.373 181.995 808.2C181.262 809.027 180.895 810.073 180.895 811.34C180.895 812.607 181.262 813.653 181.995 814.48C182.742 815.307 183.722 815.72 184.935 815.72ZM198.248 818.24C197.075 818.24 196.035 818.047 195.128 817.66C194.221 817.26 193.508 816.74 192.988 816.1L194.468 814.2C194.921 814.667 195.481 815.04 196.148 815.32C196.815 815.587 197.481 815.72 198.148 815.72C198.948 815.72 199.568 815.567 200.008 815.26C200.448 814.94 200.668 814.527 200.668 814.02C200.668 813.487 200.455 813.1 200.028 812.86C199.601 812.607 198.921 812.48 197.988 812.48C197.148 812.48 196.595 812.493 196.328 812.52V809.96C196.488 809.973 197.041 809.98 197.988 809.98C199.628 809.98 200.448 809.507 200.448 808.56C200.448 808.053 200.215 807.667 199.748 807.4C199.295 807.12 198.701 806.98 197.968 806.98C196.675 806.98 195.548 807.44 194.588 808.36L193.168 806.58C194.421 805.167 196.121 804.46 198.268 804.46C199.828 804.46 201.055 804.787 201.948 805.44C202.855 806.093 203.308 806.973 203.308 808.08C203.308 808.88 203.021 809.553 202.448 810.1C201.875 810.633 201.188 810.973 200.388 811.12C201.175 811.2 201.888 811.527 202.528 812.1C203.181 812.66 203.508 813.4 203.508 814.32C203.508 815.48 203.028 816.427 202.068 817.16C201.108 817.88 199.835 818.24 198.248 818.24ZM220.423 818H210.383V815.78C213.237 813.66 215.123 812.153 216.043 811.26C216.977 810.353 217.443 809.507 217.443 808.72C217.443 808.173 217.23 807.747 216.803 807.44C216.377 807.133 215.87 806.98 215.283 806.98C213.883 806.98 212.69 807.493 211.703 808.52L210.083 806.64C210.71 805.92 211.477 805.38 212.383 805.02C213.303 804.647 214.25 804.46 215.223 804.46C216.69 804.46 217.903 804.847 218.863 805.62C219.837 806.393 220.323 807.427 220.323 808.72C220.323 809.813 219.89 810.887 219.023 811.94C218.17 812.98 216.823 814.167 214.983 815.5H220.423V818ZM230.736 817.22C229.882 817.9 228.849 818.24 227.636 818.24C226.422 818.24 225.382 817.9 224.516 817.22C223.662 816.527 223.049 815.673 222.676 814.66C222.302 813.647 222.116 812.54 222.116 811.34C222.116 810.14 222.302 809.033 222.676 808.02C223.049 807.007 223.662 806.16 224.516 805.48C225.382 804.8 226.422 804.46 227.636 804.46C228.849 804.46 229.882 804.8 230.736 805.48C231.589 806.16 232.202 807.007 232.576 808.02C232.962 809.033 233.156 810.14 233.156 811.34C233.156 812.54 232.962 813.647 232.576 814.66C232.202 815.673 231.589 816.527 230.736 817.22ZM225.636 814.52C226.062 815.32 226.729 815.72 227.636 815.72C228.542 815.72 229.202 815.32 229.616 814.52C230.042 813.72 230.256 812.66 230.256 811.34C230.256 810.02 230.042 808.967 229.616 808.18C229.202 807.38 228.542 806.98 227.636 806.98C226.729 806.98 226.062 807.38 225.636 808.18C225.209 808.967 224.996 810.02 224.996 811.34C224.996 812.66 225.209 813.72 225.636 814.52ZM244.818 818H234.778V815.78C237.631 813.66 239.518 812.153 240.438 811.26C241.371 810.353 241.838 809.507 241.838 808.72C241.838 808.173 241.625 807.747 241.198 807.44C240.771 807.133 240.265 806.98 239.678 806.98C238.278 806.98 237.085 807.493 236.098 808.52L234.478 806.64C235.105 805.92 235.871 805.38 236.778 805.02C237.698 804.647 238.645 804.46 239.618 804.46C241.085 804.46 242.298 804.847 243.258 805.62C244.231 806.393 244.718 807.427 244.718 808.72C244.718 809.813 244.285 810.887 243.418 811.94C242.565 812.98 241.218 814.167 239.378 815.5H244.818V818ZM251.49 818.24C250.317 818.24 249.277 818.047 248.37 817.66C247.463 817.26 246.75 816.74 246.23 816.1L247.71 814.2C248.163 814.667 248.723 815.04 249.39 815.32C250.057 815.587 250.723 815.72 251.39 815.72C252.19 815.72 252.81 815.567 253.25 815.26C253.69 814.94 253.91 814.527 253.91 814.02C253.91 813.487 253.697 813.1 253.27 812.86C252.843 812.607 252.163 812.48 251.23 812.48C250.39 812.48 249.837 812.493 249.57 812.52V809.96C249.73 809.973 250.283 809.98 251.23 809.98C252.87 809.98 253.69 809.507 253.69 808.56C253.69 808.053 253.457 807.667 252.99 807.4C252.537 807.12 251.943 806.98 251.21 806.98C249.917 806.98 248.79 807.44 247.83 808.36L246.41 806.58C247.663 805.167 249.363 804.46 251.51 804.46C253.07 804.46 254.297 804.787 255.19 805.44C256.097 806.093 256.55 806.973 256.55 808.08C256.55 808.88 256.263 809.553 255.69 810.1C255.117 810.633 254.43 810.973 253.63 811.12C254.417 811.2 255.13 811.527 255.77 812.1C256.423 812.66 256.75 813.4 256.75 814.32C256.75 815.48 256.27 816.427 255.31 817.16C254.35 817.88 253.077 818.24 251.49 818.24ZM261.268 810.96C260.948 811.28 260.568 811.44 260.128 811.44C259.688 811.44 259.308 811.28 258.988 810.96C258.668 810.64 258.508 810.26 258.508 809.82C258.508 809.38 258.668 809 258.988 808.68C259.308 808.36 259.688 808.2 260.128 808.2C260.568 808.2 260.948 808.36 261.268 808.68C261.588 809 261.748 809.38 261.748 809.82C261.748 810.26 261.588 810.64 261.268 810.96ZM261.268 817.74C260.948 818.06 260.568 818.22 260.128 818.22C259.688 818.22 259.308 818.06 258.988 817.74C258.668 817.42 258.508 817.04 258.508 816.6C258.508 816.16 258.668 815.78 258.988 815.46C259.308 815.14 259.688 814.98 260.128 814.98C260.568 814.98 260.948 815.14 261.268 815.46C261.588 815.78 261.748 816.16 261.748 816.6C261.748 817.04 261.588 817.42 261.268 817.74Z" fill="#80ECFE"/>
<path d="M137.633 846V834.14H141.873V832.66H131.753V834.14H135.973V846H137.633ZM145.935 846.24C148.875 846.24 150.715 843.96 150.715 841.16C150.715 838.36 148.875 836.1 145.935 836.1C142.995 836.1 141.155 838.36 141.155 841.16C141.155 843.96 142.995 846.24 145.935 846.24ZM145.935 844.9C143.875 844.9 142.735 843.14 142.735 841.16C142.735 839.2 143.875 837.44 145.935 837.44C147.995 837.44 149.135 839.2 149.135 841.16C149.135 843.14 147.995 844.9 145.935 844.9ZM161.66 846L157.36 840.72L161.64 836.34H159.74L154.66 841.48V832.66H153.16V846H154.66V843.24L156.28 841.66L159.74 846H161.66ZM167.755 846.24C169.315 846.24 170.615 845.7 171.595 844.74L170.875 843.76C170.095 844.56 168.995 845 167.875 845C165.795 845 164.535 843.48 164.415 841.66H172.215V841.28C172.215 838.38 170.495 836.1 167.575 836.1C164.815 836.1 162.815 838.36 162.815 841.16C162.815 844.18 164.875 846.24 167.755 846.24ZM170.735 840.54H164.395C164.475 839.08 165.495 837.34 167.555 837.34C169.755 837.34 170.715 839.12 170.735 840.54ZM182.665 846V839.22C182.665 837.12 181.605 836.1 179.605 836.1C178.145 836.1 176.825 836.92 176.145 837.74V836.34H174.645V846H176.145V838.94C176.725 838.16 177.825 837.44 179.005 837.44C180.305 837.44 181.185 837.96 181.185 839.68V846H182.665ZM193.935 846.24C196.415 846.24 197.715 844.94 197.715 843.32C197.715 839.56 191.735 840.94 191.735 838.84C191.735 837.98 192.555 837.32 193.875 837.32C195.135 837.32 196.175 837.84 196.755 838.54L197.455 837.5C196.695 836.72 195.535 836.1 193.875 836.1C191.575 836.1 190.295 837.36 190.295 838.88C190.295 842.46 196.275 841.02 196.275 843.36C196.275 844.32 195.455 845.02 193.975 845.02C192.655 845.02 191.435 844.38 190.795 843.64L190.035 844.72C191.015 845.74 192.335 846.24 193.935 846.24ZM207.692 846V839.36C207.692 837.02 206.012 836.1 203.952 836.1C202.372 836.1 201.132 836.62 200.092 837.7L200.792 838.74C201.652 837.8 202.592 837.4 203.752 837.4C205.152 837.4 206.192 838.14 206.192 839.42V841.16C205.412 840.28 204.312 839.86 202.992 839.86C201.352 839.86 199.632 840.86 199.632 843.04C199.632 845.14 201.372 846.24 202.992 846.24C204.292 846.24 205.412 845.78 206.192 844.9V846H207.692ZM203.552 845.16C202.132 845.16 201.152 844.28 201.152 843.04C201.152 841.82 202.132 840.94 203.552 840.94C204.592 840.94 205.612 841.34 206.192 842.12V843.96C205.612 844.76 204.592 845.16 203.552 845.16ZM212.219 846V832.66H210.719V846H212.219ZM219.591 846.24C221.151 846.24 222.451 845.7 223.431 844.74L222.711 843.76C221.931 844.56 220.831 845 219.711 845C217.631 845 216.371 843.48 216.251 841.66H224.051V841.28C224.051 838.38 222.331 836.1 219.411 836.1C216.651 836.1 214.651 838.36 214.651 841.16C214.651 844.18 216.711 846.24 219.591 846.24ZM222.571 840.54H216.231C216.311 839.08 217.331 837.34 219.391 837.34C221.591 837.34 222.551 839.12 222.571 840.54ZM239.196 846V839.36C239.196 837.02 237.516 836.1 235.456 836.1C233.876 836.1 232.636 836.62 231.596 837.7L232.296 838.74C233.156 837.8 234.096 837.4 235.256 837.4C236.656 837.4 237.696 838.14 237.696 839.42V841.16C236.916 840.28 235.816 839.86 234.496 839.86C232.856 839.86 231.136 840.86 231.136 843.04C231.136 845.14 232.876 846.24 234.496 846.24C235.796 846.24 236.916 845.78 237.696 844.9V846H239.196ZM235.056 845.16C233.636 845.16 232.656 844.28 232.656 843.04C232.656 841.82 233.636 840.94 235.056 840.94C236.096 840.94 237.116 841.34 237.696 842.12V843.96C237.116 844.76 236.096 845.16 235.056 845.16ZM250.243 846V839.22C250.243 837.12 249.183 836.1 247.183 836.1C245.723 836.1 244.403 836.92 243.723 837.74V836.34H242.223V846H243.723V838.94C244.303 838.16 245.403 837.44 246.583 837.44C247.883 837.44 248.763 837.96 248.763 839.68V846H250.243ZM261.758 846V832.66H260.258V837.8C259.478 836.74 258.298 836.1 256.998 836.1C254.478 836.1 252.698 838.08 252.698 841.18C252.698 844.32 254.478 846.24 256.998 846.24C258.358 846.24 259.538 845.54 260.258 844.56V846H261.758ZM257.378 844.9C255.418 844.9 254.258 843.32 254.258 841.18C254.258 839.04 255.418 837.44 257.378 837.44C258.558 837.44 259.738 838.16 260.258 839V843.36C259.738 844.2 258.558 844.9 257.378 844.9ZM270.698 834.96C271.258 834.96 271.698 834.52 271.698 833.96C271.698 833.4 271.258 832.94 270.698 832.94C270.138 832.94 269.678 833.4 269.678 833.96C269.678 834.52 270.138 834.96 270.698 834.96ZM271.438 846V836.34H269.938V846H271.438ZM282.45 846V839.22C282.45 837.12 281.39 836.1 279.39 836.1C277.93 836.1 276.61 836.92 275.93 837.74V836.34H274.43V846H275.93V838.94C276.51 838.16 277.61 837.44 278.79 837.44C280.09 837.44 280.97 837.96 280.97 839.68V846H282.45ZM286.225 834.96C286.785 834.96 287.225 834.52 287.225 833.96C287.225 833.4 286.785 832.94 286.225 832.94C285.665 832.94 285.205 833.4 285.205 833.96C285.205 834.52 285.665 834.96 286.225 834.96ZM286.965 846V836.34H285.465V846H286.965ZM292.417 846.24C293.277 846.24 293.817 845.98 294.197 845.62L293.757 844.48C293.557 844.7 293.177 844.9 292.737 844.9C292.097 844.9 291.777 844.38 291.777 843.66V837.66H293.737V836.34H291.777V833.7H290.257V836.34H288.657V837.66H290.257V843.98C290.257 845.42 290.977 846.24 292.417 846.24ZM296.596 834.96C297.156 834.96 297.596 834.52 297.596 833.96C297.596 833.4 297.156 832.94 296.596 832.94C296.036 832.94 295.576 833.4 295.576 833.96C295.576 834.52 296.036 834.96 296.596 834.96ZM297.336 846V836.34H295.836V846H297.336ZM307.868 846V839.36C307.868 837.02 306.188 836.1 304.128 836.1C302.548 836.1 301.308 836.62 300.268 837.7L300.968 838.74C301.828 837.8 302.768 837.4 303.928 837.4C305.328 837.4 306.368 838.14 306.368 839.42V841.16C305.588 840.28 304.488 839.86 303.168 839.86C301.528 839.86 299.808 840.86 299.808 843.04C299.808 845.14 301.548 846.24 303.168 846.24C304.468 846.24 305.588 845.78 306.368 844.9V846H307.868ZM303.728 845.16C302.308 845.16 301.328 844.28 301.328 843.04C301.328 841.82 302.308 840.94 303.728 840.94C304.768 840.94 305.788 841.34 306.368 842.12V843.96C305.788 844.76 304.768 845.16 303.728 845.16ZM312.395 846V832.66H310.895V846H312.395ZM152.745 874.24C154.305 874.24 155.605 873.7 156.585 872.74L155.865 871.76C155.085 872.56 153.985 873 152.865 873C150.785 873 149.525 871.48 149.405 869.66H157.205V869.28C157.205 866.38 155.485 864.1 152.565 864.1C149.805 864.1 147.805 866.36 147.805 869.16C147.805 872.18 149.865 874.24 152.745 874.24ZM155.725 868.54H149.385C149.465 867.08 150.485 865.34 152.545 865.34C154.745 865.34 155.705 867.12 155.725 868.54ZM167.635 874L163.915 869.04L167.415 864.34H165.695L162.995 868.02L160.315 864.34H158.575L162.075 869.04L158.375 874H160.095L162.995 870.04L165.915 874H167.635ZM172.899 874.24C174.659 874.24 175.699 873.52 176.439 872.56L175.439 871.64C174.799 872.5 173.979 872.9 172.979 872.9C170.939 872.9 169.639 871.3 169.639 869.16C169.639 867.02 170.939 865.44 172.979 865.44C173.979 865.44 174.799 865.8 175.439 866.68L176.439 865.78C175.699 864.82 174.659 864.1 172.899 864.1C170.019 864.1 168.079 866.3 168.079 869.16C168.079 872.02 170.019 874.24 172.899 874.24ZM186.601 874V867.18C186.601 865.08 185.541 864.1 183.521 864.1C182.061 864.1 180.741 864.92 180.081 865.74V860.66H178.581V874H180.081V866.94C180.641 866.16 181.761 865.44 182.921 865.44C184.241 865.44 185.101 865.92 185.101 867.64V874H186.601ZM197.136 874V867.36C197.136 865.02 195.456 864.1 193.396 864.1C191.816 864.1 190.576 864.62 189.536 865.7L190.236 866.74C191.096 865.8 192.036 865.4 193.196 865.4C194.596 865.4 195.636 866.14 195.636 867.42V869.16C194.856 868.28 193.756 867.86 192.436 867.86C190.796 867.86 189.076 868.86 189.076 871.04C189.076 873.14 190.816 874.24 192.436 874.24C193.736 874.24 194.856 873.78 195.636 872.9V874H197.136ZM192.996 873.16C191.576 873.16 190.596 872.28 190.596 871.04C190.596 869.82 191.576 868.94 192.996 868.94C194.036 868.94 195.056 869.34 195.636 870.12V871.96C195.056 872.76 194.036 873.16 192.996 873.16ZM208.182 874V867.22C208.182 865.12 207.122 864.1 205.122 864.1C203.662 864.1 202.342 864.92 201.662 865.74V864.34H200.162V874H201.662V866.94C202.242 866.16 203.342 865.44 204.522 865.44C205.822 865.44 206.702 865.96 206.702 867.68V874H208.182ZM215.077 877.92C217.437 877.92 219.697 876.92 219.697 873.86V864.34H218.197V865.8C217.417 864.74 216.237 864.1 214.937 864.1C212.397 864.1 210.637 866.02 210.637 869.12C210.637 872.24 212.417 874.12 214.937 874.12C216.297 874.12 217.477 873.38 218.197 872.4V873.86C218.197 875.9 216.677 876.68 215.077 876.68C213.697 876.68 212.737 876.32 211.937 875.38L211.177 876.46C212.337 877.6 213.457 877.92 215.077 877.92ZM215.317 872.78C213.357 872.78 212.197 871.24 212.197 869.12C212.197 866.98 213.357 865.44 215.317 865.44C216.497 865.44 217.657 866.16 218.197 866.98V871.22C217.657 872.06 216.497 872.78 215.317 872.78ZM227.081 874.24C228.641 874.24 229.941 873.7 230.921 872.74L230.201 871.76C229.421 872.56 228.321 873 227.201 873C225.121 873 223.861 871.48 223.741 869.66H231.541V869.28C231.541 866.38 229.821 864.1 226.901 864.1C224.141 864.1 222.141 866.36 222.141 869.16C222.141 872.18 224.201 874.24 227.081 874.24ZM230.061 868.54H223.721C223.801 867.08 224.821 865.34 226.881 865.34C229.081 865.34 230.041 867.12 230.061 868.54ZM240.646 874V860.66H239.146V874H240.646ZM244.399 862.96C244.959 862.96 245.399 862.52 245.399 861.96C245.399 861.4 244.959 860.94 244.399 860.94C243.839 860.94 243.379 861.4 243.379 861.96C243.379 862.52 243.839 862.96 244.399 862.96ZM245.139 874V864.34H243.639V874H245.139ZM251.211 874.24C253.691 874.24 254.991 872.94 254.991 871.32C254.991 867.56 249.011 868.94 249.011 866.84C249.011 865.98 249.831 865.32 251.151 865.32C252.411 865.32 253.451 865.84 254.031 866.54L254.731 865.5C253.971 864.72 252.811 864.1 251.151 864.1C248.851 864.1 247.571 865.36 247.571 866.88C247.571 870.46 253.551 869.02 253.551 871.36C253.551 872.32 252.731 873.02 251.251 873.02C249.931 873.02 248.711 872.38 248.071 871.64L247.311 872.72C248.291 873.74 249.611 874.24 251.211 874.24ZM259.888 874.24C260.748 874.24 261.288 873.98 261.668 873.62L261.228 872.48C261.028 872.7 260.648 872.9 260.208 872.9C259.568 872.9 259.248 872.38 259.248 871.66V865.66H261.208V864.34H259.248V861.7H257.728V864.34H256.128V865.66H257.728V871.98C257.728 873.42 258.448 874.24 259.888 874.24ZM264.067 862.96C264.627 862.96 265.067 862.52 265.067 861.96C265.067 861.4 264.627 860.94 264.067 860.94C263.507 860.94 263.047 861.4 263.047 861.96C263.047 862.52 263.507 862.96 264.067 862.96ZM264.807 874V864.34H263.307V874H264.807ZM275.819 874V867.22C275.819 865.12 274.759 864.1 272.759 864.1C271.299 864.1 269.979 864.92 269.299 865.74V864.34H267.799V874H269.299V866.94C269.879 866.16 270.979 865.44 272.159 865.44C273.459 865.44 274.339 865.96 274.339 867.68V874H275.819ZM282.714 877.92C285.074 877.92 287.334 876.92 287.334 873.86V864.34H285.834V865.8C285.054 864.74 283.874 864.1 282.574 864.1C280.034 864.1 278.274 866.02 278.274 869.12C278.274 872.24 280.054 874.12 282.574 874.12C283.934 874.12 285.114 873.38 285.834 872.4V873.86C285.834 875.9 284.314 876.68 282.714 876.68C281.334 876.68 280.374 876.32 279.574 875.38L278.814 876.46C279.974 877.6 281.094 877.92 282.714 877.92ZM282.954 872.78C280.994 872.78 279.834 871.24 279.834 869.12C279.834 866.98 280.994 865.44 282.954 865.44C284.134 865.44 285.294 866.16 285.834 866.98V871.22C285.294 872.06 284.134 872.78 282.954 872.78ZM293.418 874.24C295.898 874.24 297.198 872.94 297.198 871.32C297.198 867.56 291.218 868.94 291.218 866.84C291.218 865.98 292.038 865.32 293.358 865.32C294.618 865.32 295.658 865.84 296.238 866.54L296.938 865.5C296.178 864.72 295.018 864.1 293.358 864.1C291.058 864.1 289.778 865.36 289.778 866.88C289.778 870.46 295.758 869.02 295.758 871.36C295.758 872.32 294.938 873.02 293.458 873.02C292.138 873.02 290.918 872.38 290.278 871.64L289.518 872.72C290.498 873.74 291.818 874.24 293.418 874.24Z" fill="white"/>
<path d="M193.337 1064.24C191.324 1064.24 189.657 1063.59 188.337 1062.3C187.031 1060.99 186.377 1059.34 186.377 1057.34C186.377 1055.34 187.031 1053.69 188.337 1052.4C189.657 1051.09 191.324 1050.44 193.337 1050.44C195.364 1050.44 197.031 1051.09 198.337 1052.38C199.657 1053.67 200.317 1055.33 200.317 1057.34C200.317 1059.22 199.737 1060.79 198.577 1062.06L199.557 1063.2L197.577 1064.82L196.497 1063.58C195.511 1064.02 194.457 1064.24 193.337 1064.24ZM193.337 1061.72C193.804 1061.72 194.271 1061.65 194.737 1061.5L193.277 1059.78L195.237 1058.16L196.717 1059.9C197.171 1059.15 197.397 1058.3 197.397 1057.34C197.397 1056.07 197.024 1055.03 196.277 1054.2C195.531 1053.37 194.551 1052.96 193.337 1052.96C192.124 1052.96 191.144 1053.37 190.397 1054.2C189.664 1055.03 189.297 1056.07 189.297 1057.34C189.297 1058.61 189.664 1059.65 190.397 1060.48C191.144 1061.31 192.124 1061.72 193.337 1061.72ZM210.71 1064H207.87V1061.24H201.49V1059L206.79 1050.66H210.71V1058.74H212.43V1061.24H210.71V1064ZM207.87 1058.74V1053.18L204.27 1058.74H207.87ZM229.021 1064H218.981V1061.78C221.834 1059.66 223.721 1058.15 224.641 1057.26C225.574 1056.35 226.041 1055.51 226.041 1054.72C226.041 1054.17 225.828 1053.75 225.401 1053.44C224.974 1053.13 224.468 1052.98 223.881 1052.98C222.481 1052.98 221.288 1053.49 220.301 1054.52L218.681 1052.64C219.308 1051.92 220.074 1051.38 220.981 1051.02C221.901 1050.65 222.848 1050.46 223.821 1050.46C225.288 1050.46 226.501 1050.85 227.461 1051.62C228.434 1052.39 228.921 1053.43 228.921 1054.72C228.921 1055.81 228.488 1056.89 227.621 1057.94C226.768 1058.98 225.421 1060.17 223.581 1061.5H229.021V1064ZM239.333 1063.22C238.48 1063.9 237.447 1064.24 236.233 1064.24C235.02 1064.24 233.98 1063.9 233.113 1063.22C232.26 1062.53 231.647 1061.67 231.273 1060.66C230.9 1059.65 230.713 1058.54 230.713 1057.34C230.713 1056.14 230.9 1055.03 231.273 1054.02C231.647 1053.01 232.26 1052.16 233.113 1051.48C233.98 1050.8 235.02 1050.46 236.233 1050.46C237.447 1050.46 238.48 1050.8 239.333 1051.48C240.187 1052.16 240.8 1053.01 241.173 1054.02C241.56 1055.03 241.753 1056.14 241.753 1057.34C241.753 1058.54 241.56 1059.65 241.173 1060.66C240.8 1061.67 240.187 1062.53 239.333 1063.22ZM234.233 1060.52C234.66 1061.32 235.327 1061.72 236.233 1061.72C237.14 1061.72 237.8 1061.32 238.213 1060.52C238.64 1059.72 238.853 1058.66 238.853 1057.34C238.853 1056.02 238.64 1054.97 238.213 1054.18C237.8 1053.38 237.14 1052.98 236.233 1052.98C235.327 1052.98 234.66 1053.38 234.233 1054.18C233.807 1054.97 233.593 1056.02 233.593 1057.34C233.593 1058.66 233.807 1059.72 234.233 1060.52ZM253.416 1064H243.376V1061.78C246.229 1059.66 248.116 1058.15 249.036 1057.26C249.969 1056.35 250.436 1055.51 250.436 1054.72C250.436 1054.17 250.222 1053.75 249.796 1053.44C249.369 1053.13 248.862 1052.98 248.276 1052.98C246.876 1052.98 245.682 1053.49 244.696 1054.52L243.076 1052.64C243.702 1051.92 244.469 1051.38 245.376 1051.02C246.296 1050.65 247.242 1050.46 248.216 1050.46C249.682 1050.46 250.896 1050.85 251.856 1051.62C252.829 1052.39 253.316 1053.43 253.316 1054.72C253.316 1055.81 252.882 1056.89 252.016 1057.94C251.162 1058.98 249.816 1060.17 247.976 1061.5H253.416V1064ZM260.088 1064.24C258.914 1064.24 257.874 1064.05 256.968 1063.66C256.061 1063.26 255.348 1062.74 254.828 1062.1L256.308 1060.2C256.761 1060.67 257.321 1061.04 257.988 1061.32C258.654 1061.59 259.321 1061.72 259.988 1061.72C260.788 1061.72 261.408 1061.57 261.848 1061.26C262.288 1060.94 262.508 1060.53 262.508 1060.02C262.508 1059.49 262.294 1059.1 261.868 1058.86C261.441 1058.61 260.761 1058.48 259.828 1058.48C258.988 1058.48 258.434 1058.49 258.168 1058.52V1055.96C258.328 1055.97 258.881 1055.98 259.828 1055.98C261.468 1055.98 262.288 1055.51 262.288 1054.56C262.288 1054.05 262.054 1053.67 261.588 1053.4C261.134 1053.12 260.541 1052.98 259.808 1052.98C258.514 1052.98 257.388 1053.44 256.428 1054.36L255.008 1052.58C256.261 1051.17 257.961 1050.46 260.108 1050.46C261.668 1050.46 262.894 1050.79 263.788 1051.44C264.694 1052.09 265.148 1052.97 265.148 1054.08C265.148 1054.88 264.861 1055.55 264.288 1056.1C263.714 1056.63 263.028 1056.97 262.228 1057.12C263.014 1057.2 263.728 1057.53 264.368 1058.1C265.021 1058.66 265.348 1059.4 265.348 1060.32C265.348 1061.48 264.868 1062.43 263.908 1063.16C262.948 1063.88 261.674 1064.24 260.088 1064.24ZM269.866 1056.96C269.546 1057.28 269.166 1057.44 268.726 1057.44C268.286 1057.44 267.906 1057.28 267.586 1056.96C267.266 1056.64 267.106 1056.26 267.106 1055.82C267.106 1055.38 267.266 1055 267.586 1054.68C267.906 1054.36 268.286 1054.2 268.726 1054.2C269.166 1054.2 269.546 1054.36 269.866 1054.68C270.186 1055 270.346 1055.38 270.346 1055.82C270.346 1056.26 270.186 1056.64 269.866 1056.96ZM269.866 1063.74C269.546 1064.06 269.166 1064.22 268.726 1064.22C268.286 1064.22 267.906 1064.06 267.586 1063.74C267.266 1063.42 267.106 1063.04 267.106 1062.6C267.106 1062.16 267.266 1061.78 267.586 1061.46C267.906 1061.14 268.286 1060.98 268.726 1060.98C269.166 1060.98 269.546 1061.14 269.866 1061.46C270.186 1061.78 270.346 1062.16 270.346 1062.6C270.346 1063.04 270.186 1063.42 269.866 1063.74Z" fill="#80ECFE"/>
<path d="M144.727 1092C148.887 1092 151.567 1089.14 151.567 1085.34C151.567 1081.56 148.887 1078.66 144.727 1078.66H140.167V1092H144.727ZM144.727 1090.52H141.827V1080.14H144.727C148.027 1080.14 149.847 1082.46 149.847 1085.34C149.847 1088.2 147.967 1090.52 144.727 1090.52ZM158.491 1092.24C160.051 1092.24 161.351 1091.7 162.331 1090.74L161.611 1089.76C160.831 1090.56 159.731 1091 158.611 1091C156.531 1091 155.271 1089.48 155.151 1087.66H162.951V1087.28C162.951 1084.38 161.231 1082.1 158.311 1082.1C155.551 1082.1 153.551 1084.36 153.551 1087.16C153.551 1090.18 155.611 1092.24 158.491 1092.24ZM161.471 1086.54H155.131C155.211 1085.08 156.231 1083.34 158.291 1083.34C160.491 1083.34 161.451 1085.12 161.471 1086.54ZM169.601 1092L173.621 1082.34H172.001L168.781 1090.26L165.581 1082.34H163.941L167.961 1092H169.601ZM179.566 1092.24C181.126 1092.24 182.426 1091.7 183.406 1090.74L182.686 1089.76C181.906 1090.56 180.806 1091 179.686 1091C177.606 1091 176.346 1089.48 176.226 1087.66H184.026V1087.28C184.026 1084.38 182.306 1082.1 179.386 1082.1C176.626 1082.1 174.626 1084.36 174.626 1087.16C174.626 1090.18 176.686 1092.24 179.566 1092.24ZM182.546 1086.54H176.206C176.286 1085.08 177.306 1083.34 179.366 1083.34C181.566 1083.34 182.526 1085.12 182.546 1086.54ZM187.955 1092V1078.66H186.455V1092H187.955ZM195.167 1092.24C198.107 1092.24 199.947 1089.96 199.947 1087.16C199.947 1084.36 198.107 1082.1 195.167 1082.1C192.227 1082.1 190.387 1084.36 190.387 1087.16C190.387 1089.96 192.227 1092.24 195.167 1092.24ZM195.167 1090.9C193.107 1090.9 191.967 1089.14 191.967 1087.16C191.967 1085.2 193.107 1083.44 195.167 1083.44C197.227 1083.44 198.367 1085.2 198.367 1087.16C198.367 1089.14 197.227 1090.9 195.167 1090.9ZM207.153 1092.24C209.693 1092.24 211.453 1090.28 211.453 1087.16C211.453 1084.02 209.693 1082.1 207.153 1082.1C205.793 1082.1 204.593 1082.8 203.893 1083.78V1082.34H202.393V1095.68H203.893V1090.54C204.693 1091.6 205.833 1092.24 207.153 1092.24ZM206.773 1090.9C205.593 1090.9 204.413 1090.18 203.893 1089.34V1084.98C204.413 1084.14 205.593 1083.44 206.773 1083.44C208.713 1083.44 209.873 1085.02 209.873 1087.16C209.873 1089.3 208.713 1090.9 206.773 1090.9ZM226.998 1092V1085.02C226.998 1083.08 226.058 1082.1 224.298 1082.1C222.898 1082.1 221.598 1083.02 221.058 1083.9C220.778 1082.9 219.938 1082.1 218.478 1082.1C217.038 1082.1 215.758 1083.12 215.338 1083.74V1082.34H213.838V1092H215.338V1084.94C215.858 1084.16 216.898 1083.44 217.878 1083.44C219.158 1083.44 219.658 1084.22 219.658 1085.44V1092H221.158V1084.92C221.658 1084.14 222.718 1083.44 223.718 1083.44C224.978 1083.44 225.498 1084.22 225.498 1085.44V1092H226.998ZM234.37 1092.24C235.93 1092.24 237.23 1091.7 238.21 1090.74L237.49 1089.76C236.71 1090.56 235.61 1091 234.49 1091C232.41 1091 231.15 1089.48 231.03 1087.66H238.83V1087.28C238.83 1084.38 237.11 1082.1 234.19 1082.1C231.43 1082.1 229.43 1084.36 229.43 1087.16C229.43 1090.18 231.49 1092.24 234.37 1092.24ZM237.35 1086.54H231.01C231.09 1085.08 232.11 1083.34 234.17 1083.34C236.37 1083.34 237.33 1085.12 237.35 1086.54ZM249.28 1092V1085.22C249.28 1083.12 248.22 1082.1 246.22 1082.1C244.76 1082.1 243.44 1082.92 242.76 1083.74V1082.34H241.26V1092H242.76V1084.94C243.34 1084.16 244.44 1083.44 245.62 1083.44C246.92 1083.44 247.8 1083.96 247.8 1085.68V1092H249.28ZM254.755 1092.24C255.615 1092.24 256.155 1091.98 256.535 1091.62L256.095 1090.48C255.895 1090.7 255.515 1090.9 255.075 1090.9C254.435 1090.9 254.115 1090.38 254.115 1089.66V1083.66H256.075V1082.34H254.115V1079.7H252.595V1082.34H250.995V1083.66H252.595V1089.98C252.595 1091.42 253.315 1092.24 254.755 1092.24ZM267.57 1092.24C270.51 1092.24 272.35 1089.96 272.35 1087.16C272.35 1084.36 270.51 1082.1 267.57 1082.1C264.63 1082.1 262.79 1084.36 262.79 1087.16C262.79 1089.96 264.63 1092.24 267.57 1092.24ZM267.57 1090.9C265.51 1090.9 264.37 1089.14 264.37 1087.16C264.37 1085.2 265.51 1083.44 267.57 1083.44C269.63 1083.44 270.77 1085.2 270.77 1087.16C270.77 1089.14 269.63 1090.9 267.57 1090.9ZM276.715 1092V1083.66H278.675V1082.34H276.715V1081.6C276.715 1080.36 277.255 1079.7 278.255 1079.7C278.735 1079.7 279.115 1079.88 279.435 1080.16L280.055 1079.2C279.455 1078.64 278.795 1078.46 278.015 1078.46C276.315 1078.46 275.215 1079.62 275.215 1081.6V1082.34H273.615V1083.66H275.215V1092H276.715ZM289.914 1092.24C291.674 1092.24 292.714 1091.52 293.454 1090.56L292.454 1089.64C291.814 1090.5 290.994 1090.9 289.994 1090.9C287.954 1090.9 286.654 1089.3 286.654 1087.16C286.654 1085.02 287.954 1083.44 289.994 1083.44C290.994 1083.44 291.814 1083.8 292.454 1084.68L293.454 1083.78C292.714 1082.82 291.674 1082.1 289.914 1082.1C287.034 1082.1 285.094 1084.3 285.094 1087.16C285.094 1090.02 287.034 1092.24 289.914 1092.24ZM299.796 1092.24C302.736 1092.24 304.576 1089.96 304.576 1087.16C304.576 1084.36 302.736 1082.1 299.796 1082.1C296.856 1082.1 295.016 1084.36 295.016 1087.16C295.016 1089.96 296.856 1092.24 299.796 1092.24ZM299.796 1090.9C297.736 1090.9 296.596 1089.14 296.596 1087.16C296.596 1085.2 297.736 1083.44 299.796 1083.44C301.856 1083.44 302.996 1085.2 302.996 1087.16C302.996 1089.14 301.856 1090.9 299.796 1090.9ZM308.521 1092V1085.16C308.961 1084.38 310.221 1083.62 311.161 1083.62C311.381 1083.62 311.561 1083.64 311.741 1083.66V1082.12C310.421 1082.12 309.301 1082.88 308.521 1083.88V1082.34H307.021V1092H308.521ZM318.003 1092.24C319.563 1092.24 320.863 1091.7 321.843 1090.74L321.123 1089.76C320.343 1090.56 319.243 1091 318.123 1091C316.043 1091 314.783 1089.48 314.663 1087.66H322.463V1087.28C322.463 1084.38 320.743 1082.1 317.823 1082.1C315.063 1082.1 313.063 1084.36 313.063 1087.16C313.063 1090.18 315.123 1092.24 318.003 1092.24ZM320.983 1086.54H314.643C314.723 1085.08 315.743 1083.34 317.803 1083.34C320.003 1083.34 320.963 1085.12 320.983 1086.54ZM143.608 1120.24C146.148 1120.24 147.908 1118.28 147.908 1115.16C147.908 1112.02 146.148 1110.1 143.608 1110.1C142.248 1110.1 141.048 1110.8 140.348 1111.78V1110.34H138.848V1123.68H140.348V1118.54C141.148 1119.6 142.288 1120.24 143.608 1120.24ZM143.228 1118.9C142.048 1118.9 140.868 1118.18 140.348 1117.34V1112.98C140.868 1112.14 142.048 1111.44 143.228 1111.44C145.168 1111.44 146.328 1113.02 146.328 1115.16C146.328 1117.3 145.168 1118.9 143.228 1118.9ZM151.793 1120V1106.66H150.293V1120H151.793ZM162.325 1120V1113.36C162.325 1111.02 160.645 1110.1 158.585 1110.1C157.005 1110.1 155.765 1110.62 154.725 1111.7L155.425 1112.74C156.285 1111.8 157.225 1111.4 158.385 1111.4C159.785 1111.4 160.825 1112.14 160.825 1113.42V1115.16C160.045 1114.28 158.945 1113.86 157.625 1113.86C155.985 1113.86 154.265 1114.86 154.265 1117.04C154.265 1119.14 156.005 1120.24 157.625 1120.24C158.925 1120.24 160.045 1119.78 160.825 1118.9V1120H162.325ZM158.185 1119.16C156.765 1119.16 155.785 1118.28 155.785 1117.04C155.785 1115.82 156.765 1114.94 158.185 1114.94C159.225 1114.94 160.245 1115.34 160.825 1116.12V1117.96C160.245 1118.76 159.225 1119.16 158.185 1119.16ZM167.812 1120.24C168.672 1120.24 169.212 1119.98 169.592 1119.62L169.152 1118.48C168.952 1118.7 168.572 1118.9 168.132 1118.9C167.492 1118.9 167.172 1118.38 167.172 1117.66V1111.66H169.132V1110.34H167.172V1107.7H165.652V1110.34H164.052V1111.66H165.652V1117.98C165.652 1119.42 166.372 1120.24 167.812 1120.24ZM173.15 1120V1111.66H175.11V1110.34H173.15V1109.6C173.15 1108.36 173.69 1107.7 174.69 1107.7C175.17 1107.7 175.55 1107.88 175.87 1108.16L176.49 1107.2C175.89 1106.64 175.23 1106.46 174.45 1106.46C172.75 1106.46 171.65 1107.62 171.65 1109.6V1110.34H170.05V1111.66H171.65V1120H173.15ZM181.134 1120.24C184.074 1120.24 185.914 1117.96 185.914 1115.16C185.914 1112.36 184.074 1110.1 181.134 1110.1C178.194 1110.1 176.354 1112.36 176.354 1115.16C176.354 1117.96 178.194 1120.24 181.134 1120.24ZM181.134 1118.9C179.074 1118.9 177.934 1117.14 177.934 1115.16C177.934 1113.2 179.074 1111.44 181.134 1111.44C183.194 1111.44 184.334 1113.2 184.334 1115.16C184.334 1117.14 183.194 1118.9 181.134 1118.9ZM189.859 1120V1113.16C190.299 1112.38 191.559 1111.62 192.499 1111.62C192.719 1111.62 192.899 1111.64 193.079 1111.66V1110.12C191.759 1110.12 190.639 1110.88 189.859 1111.88V1110.34H188.359V1120H189.859ZM208.121 1120V1113.02C208.121 1111.08 207.181 1110.1 205.421 1110.1C204.021 1110.1 202.721 1111.02 202.181 1111.9C201.901 1110.9 201.061 1110.1 199.601 1110.1C198.161 1110.1 196.881 1111.12 196.461 1111.74V1110.34H194.961V1120H196.461V1112.94C196.981 1112.16 198.021 1111.44 199.001 1111.44C200.281 1111.44 200.781 1112.22 200.781 1113.44V1120H202.281V1112.92C202.781 1112.14 203.841 1111.44 204.841 1111.44C206.101 1111.44 206.621 1112.22 206.621 1113.44V1120H208.121ZM218.209 1120V1111.66H220.169V1110.34H218.209V1109.6C218.209 1108.36 218.749 1107.7 219.749 1107.7C220.229 1107.7 220.609 1107.88 220.929 1108.16L221.549 1107.2C220.949 1106.64 220.289 1106.46 219.509 1106.46C217.809 1106.46 216.709 1107.62 216.709 1109.6V1110.34H215.109V1111.66H216.709V1120H218.209ZM226.353 1120.24C227.913 1120.24 229.213 1119.7 230.193 1118.74L229.473 1117.76C228.693 1118.56 227.593 1119 226.473 1119C224.393 1119 223.133 1117.48 223.013 1115.66H230.813V1115.28C230.813 1112.38 229.093 1110.1 226.173 1110.1C223.413 1110.1 221.413 1112.36 221.413 1115.16C221.413 1118.18 223.473 1120.24 226.353 1120.24ZM229.333 1114.54H222.993C223.073 1113.08 224.093 1111.34 226.153 1111.34C228.353 1111.34 229.313 1113.12 229.333 1114.54ZM240.782 1120V1113.36C240.782 1111.02 239.102 1110.1 237.042 1110.1C235.462 1110.1 234.222 1110.62 233.182 1111.7L233.882 1112.74C234.742 1111.8 235.682 1111.4 236.842 1111.4C238.242 1111.4 239.282 1112.14 239.282 1113.42V1115.16C238.502 1114.28 237.402 1113.86 236.082 1113.86C234.442 1113.86 232.722 1114.86 232.722 1117.04C232.722 1119.14 234.462 1120.24 236.082 1120.24C237.382 1120.24 238.502 1119.78 239.282 1118.9V1120H240.782ZM236.642 1119.16C235.222 1119.16 234.242 1118.28 234.242 1117.04C234.242 1115.82 235.222 1114.94 236.642 1114.94C237.682 1114.94 238.702 1115.34 239.282 1116.12V1117.96C238.702 1118.76 237.682 1119.16 236.642 1119.16ZM246.269 1120.24C247.129 1120.24 247.669 1119.98 248.049 1119.62L247.609 1118.48C247.409 1118.7 247.029 1118.9 246.589 1118.9C245.949 1118.9 245.629 1118.38 245.629 1117.66V1111.66H247.589V1110.34H245.629V1107.7H244.109V1110.34H242.509V1111.66H244.109V1117.98C244.109 1119.42 244.829 1120.24 246.269 1120.24ZM257.708 1120V1110.34H256.208V1117.44C255.648 1118.22 254.528 1118.9 253.368 1118.9C252.048 1118.9 251.188 1118.4 251.188 1116.7V1110.34H249.688V1117.16C249.688 1119.24 250.748 1120.24 252.768 1120.24C254.208 1120.24 255.468 1119.48 256.208 1118.64V1120H257.708ZM262.203 1120V1113.16C262.643 1112.38 263.903 1111.62 264.843 1111.62C265.063 1111.62 265.243 1111.64 265.423 1111.66V1110.12C264.103 1110.12 262.983 1110.88 262.203 1111.88V1110.34H260.703V1120H262.203ZM271.685 1120.24C273.245 1120.24 274.545 1119.7 275.525 1118.74L274.805 1117.76C274.025 1118.56 272.925 1119 271.805 1119C269.725 1119 268.465 1117.48 268.345 1115.66H276.145V1115.28C276.145 1112.38 274.425 1110.1 271.505 1110.1C268.745 1110.1 266.745 1112.36 266.745 1115.16C266.745 1118.18 268.805 1120.24 271.685 1120.24ZM274.665 1114.54H268.325C268.405 1113.08 269.425 1111.34 271.485 1111.34C273.685 1111.34 274.645 1113.12 274.665 1114.54ZM281.654 1120.24C284.134 1120.24 285.434 1118.94 285.434 1117.32C285.434 1113.56 279.454 1114.94 279.454 1112.84C279.454 1111.98 280.274 1111.32 281.594 1111.32C282.854 1111.32 283.894 1111.84 284.474 1112.54L285.174 1111.5C284.414 1110.72 283.254 1110.1 281.594 1110.1C279.294 1110.1 278.014 1111.36 278.014 1112.88C278.014 1116.46 283.994 1115.02 283.994 1117.36C283.994 1118.32 283.174 1119.02 281.694 1119.02C280.374 1119.02 279.154 1118.38 278.514 1117.64L277.754 1118.72C278.734 1119.74 280.054 1120.24 281.654 1120.24ZM300.587 1120V1113.36C300.587 1111.02 298.907 1110.1 296.847 1110.1C295.267 1110.1 294.027 1110.62 292.987 1111.7L293.687 1112.74C294.547 1111.8 295.487 1111.4 296.647 1111.4C298.047 1111.4 299.087 1112.14 299.087 1113.42V1115.16C298.307 1114.28 297.207 1113.86 295.887 1113.86C294.247 1113.86 292.527 1114.86 292.527 1117.04C292.527 1119.14 294.267 1120.24 295.887 1120.24C297.187 1120.24 298.307 1119.78 299.087 1118.9V1120H300.587ZM296.447 1119.16C295.027 1119.16 294.047 1118.28 294.047 1117.04C294.047 1115.82 295.027 1114.94 296.447 1114.94C297.487 1114.94 298.507 1115.34 299.087 1116.12V1117.96C298.507 1118.76 297.487 1119.16 296.447 1119.16ZM311.633 1120V1113.22C311.633 1111.12 310.573 1110.1 308.573 1110.1C307.113 1110.1 305.793 1110.92 305.113 1111.74V1110.34H303.613V1120H305.113V1112.94C305.693 1112.16 306.793 1111.44 307.973 1111.44C309.273 1111.44 310.153 1111.96 310.153 1113.68V1120H311.633ZM323.148 1120V1106.66H321.648V1111.8C320.868 1110.74 319.688 1110.1 318.388 1110.1C315.868 1110.1 314.088 1112.08 314.088 1115.18C314.088 1118.32 315.868 1120.24 318.388 1120.24C319.748 1120.24 320.928 1119.54 321.648 1118.56V1120H323.148ZM318.768 1118.9C316.808 1118.9 315.648 1117.32 315.648 1115.18C315.648 1113.04 316.808 1111.44 318.768 1111.44C319.948 1111.44 321.128 1112.16 321.648 1113V1117.36C321.128 1118.2 319.948 1118.9 318.768 1118.9ZM183.648 1148L178.288 1134.66H176.228L170.848 1148H172.748L173.928 1145.02H180.568L181.748 1148H183.648ZM180.088 1143.56H174.428L177.248 1136.36L180.088 1143.56ZM187.052 1148V1134.66H185.392V1148H187.052ZM199.553 1148.24C201.313 1148.24 202.353 1147.52 203.093 1146.56L202.093 1145.64C201.453 1146.5 200.633 1146.9 199.633 1146.9C197.593 1146.9 196.293 1145.3 196.293 1143.16C196.293 1141.02 197.593 1139.44 199.633 1139.44C200.633 1139.44 201.453 1139.8 202.093 1140.68L203.093 1139.78C202.353 1138.82 201.313 1138.1 199.553 1138.1C196.673 1138.1 194.733 1140.3 194.733 1143.16C194.733 1146.02 196.673 1148.24 199.553 1148.24ZM209.435 1148.24C212.375 1148.24 214.215 1145.96 214.215 1143.16C214.215 1140.36 212.375 1138.1 209.435 1138.1C206.495 1138.1 204.655 1140.36 204.655 1143.16C204.655 1145.96 206.495 1148.24 209.435 1148.24ZM209.435 1146.9C207.375 1146.9 206.235 1145.14 206.235 1143.16C206.235 1141.2 207.375 1139.44 209.435 1139.44C211.495 1139.44 212.635 1141.2 212.635 1143.16C212.635 1145.14 211.495 1146.9 209.435 1146.9ZM229.82 1148V1141.02C229.82 1139.08 228.88 1138.1 227.12 1138.1C225.72 1138.1 224.42 1139.02 223.88 1139.9C223.6 1138.9 222.76 1138.1 221.3 1138.1C219.86 1138.1 218.58 1139.12 218.16 1139.74V1138.34H216.66V1148H218.16V1140.94C218.68 1140.16 219.72 1139.44 220.7 1139.44C221.98 1139.44 222.48 1140.22 222.48 1141.44V1148H223.98V1140.92C224.48 1140.14 225.54 1139.44 226.54 1139.44C227.8 1139.44 228.32 1140.22 228.32 1141.44V1148H229.82ZM237.573 1148.24C240.113 1148.24 241.872 1146.28 241.872 1143.16C241.872 1140.02 240.113 1138.1 237.573 1138.1C236.213 1138.1 235.013 1138.8 234.313 1139.78V1138.34H232.813V1151.68H234.313V1146.54C235.113 1147.6 236.253 1148.24 237.573 1148.24ZM237.192 1146.9C236.013 1146.9 234.833 1146.18 234.313 1145.34V1140.98C234.833 1140.14 236.013 1139.44 237.192 1139.44C239.133 1139.44 240.293 1141.02 240.293 1143.16C240.293 1145.3 239.133 1146.9 237.192 1146.9ZM251.798 1148V1141.36C251.798 1139.02 250.118 1138.1 248.058 1138.1C246.478 1138.1 245.238 1138.62 244.198 1139.7L244.898 1140.74C245.758 1139.8 246.698 1139.4 247.858 1139.4C249.258 1139.4 250.298 1140.14 250.298 1141.42V1143.16C249.518 1142.28 248.418 1141.86 247.098 1141.86C245.458 1141.86 243.738 1142.86 243.738 1145.04C243.738 1147.14 245.478 1148.24 247.098 1148.24C248.398 1148.24 249.518 1147.78 250.298 1146.9V1148H251.798ZM247.658 1147.16C246.238 1147.16 245.258 1146.28 245.258 1145.04C245.258 1143.82 246.238 1142.94 247.658 1142.94C248.698 1142.94 249.718 1143.34 250.298 1144.12V1145.96C249.718 1146.76 248.698 1147.16 247.658 1147.16ZM262.844 1148V1141.22C262.844 1139.12 261.784 1138.1 259.784 1138.1C258.324 1138.1 257.004 1138.92 256.324 1139.74V1138.34H254.824V1148H256.324V1140.94C256.904 1140.16 258.004 1139.44 259.184 1139.44C260.484 1139.44 261.364 1139.96 261.364 1141.68V1148H262.844ZM266.619 1136.96C267.179 1136.96 267.619 1136.52 267.619 1135.96C267.619 1135.4 267.179 1134.94 266.619 1134.94C266.059 1134.94 265.599 1135.4 265.599 1135.96C265.599 1136.52 266.059 1136.96 266.619 1136.96ZM267.359 1148V1138.34H265.859V1148H267.359ZM274.572 1148.24C277.512 1148.24 279.352 1145.96 279.352 1143.16C279.352 1140.36 277.512 1138.1 274.572 1138.1C271.632 1138.1 269.792 1140.36 269.792 1143.16C269.792 1145.96 271.632 1148.24 274.572 1148.24ZM274.572 1146.9C272.512 1146.9 271.372 1145.14 271.372 1143.16C271.372 1141.2 272.512 1139.44 274.572 1139.44C276.632 1139.44 277.772 1141.2 277.772 1143.16C277.772 1145.14 276.632 1146.9 274.572 1146.9ZM289.817 1148V1141.22C289.817 1139.12 288.757 1138.1 286.757 1138.1C285.297 1138.1 283.977 1138.92 283.297 1139.74V1138.34H281.797V1148H283.297V1140.94C283.877 1140.16 284.977 1139.44 286.157 1139.44C287.457 1139.44 288.337 1139.96 288.337 1141.68V1148H289.817ZM186.044 1176.24C186.904 1176.24 187.444 1175.98 187.824 1175.62L187.384 1174.48C187.184 1174.7 186.804 1174.9 186.364 1174.9C185.724 1174.9 185.404 1174.38 185.404 1173.66V1167.66H187.364V1166.34H185.404V1163.7H183.884V1166.34H182.284V1167.66H183.884V1173.98C183.884 1175.42 184.604 1176.24 186.044 1176.24ZM193.843 1176.24C195.403 1176.24 196.703 1175.7 197.683 1174.74L196.963 1173.76C196.183 1174.56 195.083 1175 193.963 1175C191.883 1175 190.623 1173.48 190.503 1171.66H198.303V1171.28C198.303 1168.38 196.583 1166.1 193.663 1166.1C190.903 1166.1 188.903 1168.36 188.903 1171.16C188.903 1174.18 190.963 1176.24 193.843 1176.24ZM196.823 1170.54H190.483C190.563 1169.08 191.583 1167.34 193.643 1167.34C195.843 1167.34 196.803 1169.12 196.823 1170.54ZM204.992 1176.24C206.752 1176.24 207.792 1175.52 208.532 1174.56L207.532 1173.64C206.892 1174.5 206.072 1174.9 205.072 1174.9C203.032 1174.9 201.732 1173.3 201.732 1171.16C201.732 1169.02 203.032 1167.44 205.072 1167.44C206.072 1167.44 206.892 1167.8 207.532 1168.68L208.532 1167.78C207.792 1166.82 206.752 1166.1 204.992 1166.1C202.112 1166.1 200.172 1168.3 200.172 1171.16C200.172 1174.02 202.112 1176.24 204.992 1176.24ZM218.694 1176V1169.18C218.694 1167.08 217.634 1166.1 215.614 1166.1C214.154 1166.1 212.834 1166.92 212.174 1167.74V1162.66H210.674V1176H212.174V1168.94C212.734 1168.16 213.854 1167.44 215.014 1167.44C216.334 1167.44 217.194 1167.92 217.194 1169.64V1176H218.694ZM229.709 1176V1169.22C229.709 1167.12 228.649 1166.1 226.649 1166.1C225.189 1166.1 223.869 1166.92 223.189 1167.74V1166.34H221.689V1176H223.189V1168.94C223.769 1168.16 224.869 1167.44 226.049 1167.44C227.349 1167.44 228.229 1167.96 228.229 1169.68V1176H229.709ZM236.945 1176.24C239.885 1176.24 241.725 1173.96 241.725 1171.16C241.725 1168.36 239.885 1166.1 236.945 1166.1C234.005 1166.1 232.165 1168.36 232.165 1171.16C232.165 1173.96 234.005 1176.24 236.945 1176.24ZM236.945 1174.9C234.885 1174.9 233.745 1173.14 233.745 1171.16C233.745 1169.2 234.885 1167.44 236.945 1167.44C239.005 1167.44 240.145 1169.2 240.145 1171.16C240.145 1173.14 239.005 1174.9 236.945 1174.9ZM245.67 1176V1162.66H244.17V1176H245.67ZM252.882 1176.24C255.822 1176.24 257.662 1173.96 257.662 1171.16C257.662 1168.36 255.822 1166.1 252.882 1166.1C249.942 1166.1 248.102 1168.36 248.102 1171.16C248.102 1173.96 249.942 1176.24 252.882 1176.24ZM252.882 1174.9C250.822 1174.9 249.682 1173.14 249.682 1171.16C249.682 1169.2 250.822 1167.44 252.882 1167.44C254.942 1167.44 256.082 1169.2 256.082 1171.16C256.082 1173.14 254.942 1174.9 252.882 1174.9ZM263.987 1179.92C266.347 1179.92 268.607 1178.92 268.607 1175.86V1166.34H267.107V1167.8C266.327 1166.74 265.147 1166.1 263.847 1166.1C261.307 1166.1 259.547 1168.02 259.547 1171.12C259.547 1174.24 261.327 1176.12 263.847 1176.12C265.207 1176.12 266.387 1175.38 267.107 1174.4V1175.86C267.107 1177.9 265.587 1178.68 263.987 1178.68C262.607 1178.68 261.647 1178.32 260.847 1177.38L260.087 1178.46C261.247 1179.6 262.367 1179.92 263.987 1179.92ZM264.227 1174.78C262.267 1174.78 261.107 1173.24 261.107 1171.12C261.107 1168.98 262.267 1167.44 264.227 1167.44C265.407 1167.44 266.567 1168.16 267.107 1168.98V1173.22C266.567 1174.06 265.407 1174.78 264.227 1174.78ZM271.091 1179.78C271.351 1179.86 271.851 1179.92 272.171 1179.92C273.451 1179.9 274.431 1179.36 275.011 1177.96L279.851 1166.34H278.231L275.011 1174.26L271.811 1166.34H270.171L274.211 1176.1L273.571 1177.56C273.231 1178.36 272.791 1178.58 272.131 1178.58C271.891 1178.58 271.531 1178.52 271.311 1178.42L271.091 1179.78Z" fill="white"/>
<path d="M97.5951 1316.24C95.5817 1316.24 93.9151 1315.59 92.5951 1314.3C91.2884 1312.99 90.6351 1311.34 90.6351 1309.34C90.6351 1307.34 91.2884 1305.69 92.5951 1304.4C93.9151 1303.09 95.5817 1302.44 97.5951 1302.44C99.6217 1302.44 101.288 1303.09 102.595 1304.38C103.915 1305.67 104.575 1307.33 104.575 1309.34C104.575 1311.22 103.995 1312.79 102.835 1314.06L103.815 1315.2L101.835 1316.82L100.755 1315.58C99.7684 1316.02 98.7151 1316.24 97.5951 1316.24ZM97.5951 1313.72C98.0617 1313.72 98.5284 1313.65 98.9951 1313.5L97.5351 1311.78L99.4951 1310.16L100.975 1311.9C101.428 1311.15 101.655 1310.3 101.655 1309.34C101.655 1308.07 101.282 1307.03 100.535 1306.2C99.7884 1305.37 98.8084 1304.96 97.5951 1304.96C96.3817 1304.96 95.4017 1305.37 94.6551 1306.2C93.9217 1307.03 93.5551 1308.07 93.5551 1309.34C93.5551 1310.61 93.9217 1311.65 94.6551 1312.48C95.4017 1313.31 96.3817 1313.72 97.5951 1313.72ZM112.148 1316H109.308V1306.32L107.088 1308.58L105.468 1306.88L109.668 1302.66H112.148V1316ZM129.568 1316H119.528V1313.78C122.381 1311.66 124.268 1310.15 125.188 1309.26C126.121 1308.35 126.588 1307.51 126.588 1306.72C126.588 1306.17 126.375 1305.75 125.948 1305.44C125.521 1305.13 125.015 1304.98 124.428 1304.98C123.028 1304.98 121.835 1305.49 120.848 1306.52L119.228 1304.64C119.855 1303.92 120.621 1303.38 121.528 1303.02C122.448 1302.65 123.395 1302.46 124.368 1302.46C125.835 1302.46 127.048 1302.85 128.008 1303.62C128.981 1304.39 129.468 1305.43 129.468 1306.72C129.468 1307.81 129.035 1308.89 128.168 1309.94C127.315 1310.98 125.968 1312.17 124.128 1313.5H129.568V1316ZM139.88 1315.22C139.027 1315.9 137.993 1316.24 136.78 1316.24C135.567 1316.24 134.527 1315.9 133.66 1315.22C132.807 1314.53 132.193 1313.67 131.82 1312.66C131.447 1311.65 131.26 1310.54 131.26 1309.34C131.26 1308.14 131.447 1307.03 131.82 1306.02C132.193 1305.01 132.807 1304.16 133.66 1303.48C134.527 1302.8 135.567 1302.46 136.78 1302.46C137.993 1302.46 139.027 1302.8 139.88 1303.48C140.733 1304.16 141.347 1305.01 141.72 1306.02C142.107 1307.03 142.3 1308.14 142.3 1309.34C142.3 1310.54 142.107 1311.65 141.72 1312.66C141.347 1313.67 140.733 1314.53 139.88 1315.22ZM134.78 1312.52C135.207 1313.32 135.873 1313.72 136.78 1313.72C137.687 1313.72 138.347 1313.32 138.76 1312.52C139.187 1311.72 139.4 1310.66 139.4 1309.34C139.4 1308.02 139.187 1306.97 138.76 1306.18C138.347 1305.38 137.687 1304.98 136.78 1304.98C135.873 1304.98 135.207 1305.38 134.78 1306.18C134.353 1306.97 134.14 1308.02 134.14 1309.34C134.14 1310.66 134.353 1311.72 134.78 1312.52ZM153.962 1316H143.922V1313.78C146.776 1311.66 148.662 1310.15 149.582 1309.26C150.516 1308.35 150.982 1307.51 150.982 1306.72C150.982 1306.17 150.769 1305.75 150.342 1305.44C149.916 1305.13 149.409 1304.98 148.822 1304.98C147.422 1304.98 146.229 1305.49 145.242 1306.52L143.622 1304.64C144.249 1303.92 145.016 1303.38 145.922 1303.02C146.842 1302.65 147.789 1302.46 148.762 1302.46C150.229 1302.46 151.442 1302.85 152.402 1303.62C153.376 1304.39 153.862 1305.43 153.862 1306.72C153.862 1307.81 153.429 1308.89 152.562 1309.94C151.709 1310.98 150.362 1312.17 148.522 1313.5H153.962V1316ZM164.695 1316H161.855V1313.24H155.475V1311L160.775 1302.66H164.695V1310.74H166.415V1313.24H164.695V1316ZM161.855 1310.74V1305.18L158.255 1310.74H161.855ZM170.608 1308.96C170.288 1309.28 169.908 1309.44 169.468 1309.44C169.028 1309.44 168.648 1309.28 168.328 1308.96C168.008 1308.64 167.848 1308.26 167.848 1307.82C167.848 1307.38 168.008 1307 168.328 1306.68C168.648 1306.36 169.028 1306.2 169.468 1306.2C169.908 1306.2 170.288 1306.36 170.608 1306.68C170.928 1307 171.088 1307.38 171.088 1307.82C171.088 1308.26 170.928 1308.64 170.608 1308.96ZM170.608 1315.74C170.288 1316.06 169.908 1316.22 169.468 1316.22C169.028 1316.22 168.648 1316.06 168.328 1315.74C168.008 1315.42 167.848 1315.04 167.848 1314.6C167.848 1314.16 168.008 1313.78 168.328 1313.46C168.648 1313.14 169.028 1312.98 169.468 1312.98C169.908 1312.98 170.288 1313.14 170.608 1313.46C170.928 1313.78 171.088 1314.16 171.088 1314.6C171.088 1315.04 170.928 1315.42 170.608 1315.74Z" fill="#80ECFE"/>
<path d="M69.7222 1344L64.3622 1330.66H62.3022L56.9222 1344H58.8222L60.0022 1341.02H66.6422L67.8222 1344H69.7222ZM66.1622 1339.56H60.5022L63.3222 1332.36L66.1622 1339.56ZM72.9063 1344V1330.66H71.4063V1344H72.9063ZM80.6584 1344.24C83.1984 1344.24 84.9584 1342.28 84.9584 1339.16C84.9584 1336.02 83.1984 1334.1 80.6584 1334.1C79.2984 1334.1 78.0984 1334.8 77.3984 1335.78V1334.34H75.8984V1347.68H77.3984V1342.54C78.1984 1343.6 79.3384 1344.24 80.6584 1344.24ZM80.2784 1342.9C79.0984 1342.9 77.9184 1342.18 77.3984 1341.34V1336.98C77.9184 1336.14 79.0984 1335.44 80.2784 1335.44C82.2184 1335.44 83.3784 1337.02 83.3784 1339.16C83.3784 1341.3 82.2184 1342.9 80.2784 1342.9ZM95.3838 1344V1337.18C95.3838 1335.08 94.3238 1334.1 92.3038 1334.1C90.8438 1334.1 89.5238 1334.92 88.8638 1335.74V1330.66H87.3638V1344H88.8638V1336.94C89.4238 1336.16 90.5438 1335.44 91.7038 1335.44C93.0238 1335.44 93.8838 1335.92 93.8838 1337.64V1344H95.3838ZM105.919 1344V1337.36C105.919 1335.02 104.239 1334.1 102.179 1334.1C100.599 1334.1 99.3589 1334.62 98.3189 1335.7L99.0189 1336.74C99.8789 1335.8 100.819 1335.4 101.979 1335.4C103.379 1335.4 104.419 1336.14 104.419 1337.42V1339.16C103.639 1338.28 102.539 1337.86 101.219 1337.86C99.5789 1337.86 97.8589 1338.86 97.8589 1341.04C97.8589 1343.14 99.5989 1344.24 101.219 1344.24C102.519 1344.24 103.639 1343.78 104.419 1342.9V1344H105.919ZM101.779 1343.16C100.359 1343.16 99.3789 1342.28 99.3789 1341.04C99.3789 1339.82 100.359 1338.94 101.779 1338.94C102.819 1338.94 103.839 1339.34 104.419 1340.12V1341.96C103.839 1342.76 102.819 1343.16 101.779 1343.16ZM116.581 1344.24C117.441 1344.24 117.981 1343.98 118.361 1343.62L117.921 1342.48C117.721 1342.7 117.341 1342.9 116.901 1342.9C116.261 1342.9 115.941 1342.38 115.941 1341.66V1335.66H117.901V1334.34H115.941V1331.7H114.421V1334.34H112.821V1335.66H114.421V1341.98C114.421 1343.42 115.141 1344.24 116.581 1344.24ZM124.38 1344.24C125.94 1344.24 127.24 1343.7 128.22 1342.74L127.5 1341.76C126.72 1342.56 125.62 1343 124.5 1343C122.42 1343 121.16 1341.48 121.04 1339.66H128.84V1339.28C128.84 1336.38 127.12 1334.1 124.2 1334.1C121.44 1334.1 119.44 1336.36 119.44 1339.16C119.44 1342.18 121.5 1344.24 124.38 1344.24ZM127.36 1338.54H121.02C121.1 1337.08 122.12 1335.34 124.18 1335.34C126.38 1335.34 127.34 1337.12 127.36 1338.54ZM134.35 1344.24C136.83 1344.24 138.13 1342.94 138.13 1341.32C138.13 1337.56 132.15 1338.94 132.15 1336.84C132.15 1335.98 132.97 1335.32 134.29 1335.32C135.55 1335.32 136.59 1335.84 137.17 1336.54L137.87 1335.5C137.11 1334.72 135.95 1334.1 134.29 1334.1C131.99 1334.1 130.71 1335.36 130.71 1336.88C130.71 1340.46 136.69 1339.02 136.69 1341.36C136.69 1342.32 135.87 1343.02 134.39 1343.02C133.07 1343.02 131.85 1342.38 131.21 1341.64L130.45 1342.72C131.43 1343.74 132.75 1344.24 134.35 1344.24ZM143.026 1344.24C143.886 1344.24 144.426 1343.98 144.806 1343.62L144.366 1342.48C144.166 1342.7 143.786 1342.9 143.346 1342.9C142.706 1342.9 142.386 1342.38 142.386 1341.66V1335.66H144.346V1334.34H142.386V1331.7H140.866V1334.34H139.266V1335.66H140.866V1341.98C140.866 1343.42 141.586 1344.24 143.026 1344.24ZM147.205 1332.96C147.765 1332.96 148.205 1332.52 148.205 1331.96C148.205 1331.4 147.765 1330.94 147.205 1330.94C146.645 1330.94 146.185 1331.4 146.185 1331.96C146.185 1332.52 146.645 1332.96 147.205 1332.96ZM147.945 1344V1334.34H146.445V1344H147.945ZM158.958 1344V1337.22C158.958 1335.12 157.898 1334.1 155.898 1334.1C154.438 1334.1 153.118 1334.92 152.438 1335.74V1334.34H150.938V1344H152.438V1336.94C153.018 1336.16 154.118 1335.44 155.298 1335.44C156.598 1335.44 157.478 1335.96 157.478 1337.68V1344H158.958ZM165.853 1347.92C168.213 1347.92 170.473 1346.92 170.473 1343.86V1334.34H168.973V1335.8C168.193 1334.74 167.013 1334.1 165.713 1334.1C163.173 1334.1 161.413 1336.02 161.413 1339.12C161.413 1342.24 163.193 1344.12 165.713 1344.12C167.073 1344.12 168.253 1343.38 168.973 1342.4V1343.86C168.973 1345.9 167.453 1346.68 165.853 1346.68C164.473 1346.68 163.513 1346.32 162.713 1345.38L161.953 1346.46C163.113 1347.6 164.233 1347.92 165.853 1347.92ZM166.093 1342.78C164.133 1342.78 162.973 1341.24 162.973 1339.12C162.973 1336.98 164.133 1335.44 166.093 1335.44C167.273 1335.44 168.433 1336.16 168.973 1336.98V1341.22C168.433 1342.06 167.273 1342.78 166.093 1342.78ZM186.192 1344V1337.36C186.192 1335.02 184.512 1334.1 182.452 1334.1C180.872 1334.1 179.632 1334.62 178.592 1335.7L179.292 1336.74C180.152 1335.8 181.092 1335.4 182.252 1335.4C183.652 1335.4 184.692 1336.14 184.692 1337.42V1339.16C183.912 1338.28 182.812 1337.86 181.492 1337.86C179.852 1337.86 178.132 1338.86 178.132 1341.04C178.132 1343.14 179.872 1344.24 181.492 1344.24C182.792 1344.24 183.912 1343.78 184.692 1342.9V1344H186.192ZM182.052 1343.16C180.632 1343.16 179.652 1342.28 179.652 1341.04C179.652 1339.82 180.632 1338.94 182.052 1338.94C183.092 1338.94 184.112 1339.34 184.692 1340.12V1341.96C184.112 1342.76 183.092 1343.16 182.052 1343.16ZM197.239 1344V1337.22C197.239 1335.12 196.179 1334.1 194.179 1334.1C192.719 1334.1 191.399 1334.92 190.719 1335.74V1334.34H189.219V1344H190.719V1336.94C191.299 1336.16 192.399 1335.44 193.579 1335.44C194.879 1335.44 195.759 1335.96 195.759 1337.68V1344H197.239ZM208.754 1344V1330.66H207.254V1335.8C206.474 1334.74 205.294 1334.1 203.994 1334.1C201.474 1334.1 199.694 1336.08 199.694 1339.18C199.694 1342.32 201.474 1344.24 203.994 1344.24C205.354 1344.24 206.534 1343.54 207.254 1342.56V1344H208.754ZM204.374 1342.9C202.414 1342.9 201.254 1341.32 201.254 1339.18C201.254 1337.04 202.414 1335.44 204.374 1335.44C205.554 1335.44 206.734 1336.16 207.254 1337V1341.36C206.734 1342.2 205.554 1342.9 204.374 1342.9ZM47.7268 1372.24C49.4868 1372.24 50.5268 1371.52 51.2668 1370.56L50.2668 1369.64C49.6268 1370.5 48.8068 1370.9 47.8068 1370.9C45.7668 1370.9 44.4668 1369.3 44.4668 1367.16C44.4668 1365.02 45.7668 1363.44 47.8068 1363.44C48.8068 1363.44 49.6268 1363.8 50.2668 1364.68L51.2668 1363.78C50.5268 1362.82 49.4868 1362.1 47.7268 1362.1C44.8468 1362.1 42.9068 1364.3 42.9068 1367.16C42.9068 1370.02 44.8468 1372.24 47.7268 1372.24ZM57.6087 1372.24C60.5487 1372.24 62.3887 1369.96 62.3887 1367.16C62.3887 1364.36 60.5487 1362.1 57.6087 1362.1C54.6687 1362.1 52.8287 1364.36 52.8287 1367.16C52.8287 1369.96 54.6687 1372.24 57.6087 1372.24ZM57.6087 1370.9C55.5487 1370.9 54.4087 1369.14 54.4087 1367.16C54.4087 1365.2 55.5487 1363.44 57.6087 1363.44C59.6687 1363.44 60.8087 1365.2 60.8087 1367.16C60.8087 1369.14 59.6687 1370.9 57.6087 1370.9ZM77.994 1372V1365.02C77.994 1363.08 77.054 1362.1 75.294 1362.1C73.894 1362.1 72.594 1363.02 72.054 1363.9C71.774 1362.9 70.934 1362.1 69.474 1362.1C68.034 1362.1 66.754 1363.12 66.334 1363.74V1362.34H64.834V1372H66.334V1364.94C66.854 1364.16 67.894 1363.44 68.874 1363.44C70.154 1363.44 70.654 1364.22 70.654 1365.44V1372H72.154V1364.92C72.654 1364.14 73.714 1363.44 74.714 1363.44C75.974 1363.44 76.494 1364.22 76.494 1365.44V1372H77.994ZM94.1463 1372V1365.02C94.1463 1363.08 93.2063 1362.1 91.4463 1362.1C90.0463 1362.1 88.7463 1363.02 88.2063 1363.9C87.9263 1362.9 87.0863 1362.1 85.6263 1362.1C84.1863 1362.1 82.9063 1363.12 82.4863 1363.74V1362.34H80.9863V1372H82.4863V1364.94C83.0063 1364.16 84.0463 1363.44 85.0263 1363.44C86.3063 1363.44 86.8063 1364.22 86.8063 1365.44V1372H88.3063V1364.92C88.8063 1364.14 89.8663 1363.44 90.8663 1363.44C92.1263 1363.44 92.6463 1364.22 92.6463 1365.44V1372H94.1463ZM105.159 1372V1362.34H103.659V1369.44C103.099 1370.22 101.979 1370.9 100.819 1370.9C99.4987 1370.9 98.6387 1370.4 98.6387 1368.7V1362.34H97.1387V1369.16C97.1387 1371.24 98.1987 1372.24 100.219 1372.24C101.659 1372.24 102.919 1371.48 103.659 1370.64V1372H105.159ZM116.174 1372V1365.22C116.174 1363.12 115.114 1362.1 113.114 1362.1C111.654 1362.1 110.334 1362.92 109.654 1363.74V1362.34H108.154V1372H109.654V1364.94C110.234 1364.16 111.334 1363.44 112.514 1363.44C113.814 1363.44 114.694 1363.96 114.694 1365.68V1372H116.174ZM119.949 1360.96C120.509 1360.96 120.949 1360.52 120.949 1359.96C120.949 1359.4 120.509 1358.94 119.949 1358.94C119.389 1358.94 118.929 1359.4 118.929 1359.96C118.929 1360.52 119.389 1360.96 119.949 1360.96ZM120.689 1372V1362.34H119.189V1372H120.689ZM126.142 1372.24C127.002 1372.24 127.542 1371.98 127.922 1371.62L127.482 1370.48C127.282 1370.7 126.902 1370.9 126.462 1370.9C125.822 1370.9 125.502 1370.38 125.502 1369.66V1363.66H127.462V1362.34H125.502V1359.7H123.982V1362.34H122.382V1363.66H123.982V1369.98C123.982 1371.42 124.702 1372.24 126.142 1372.24ZM129.041 1375.78C129.301 1375.86 129.801 1375.92 130.121 1375.92C131.401 1375.9 132.381 1375.36 132.961 1373.96L137.801 1362.34H136.181L132.961 1370.26L129.761 1362.34H128.121L132.161 1372.1L131.521 1373.56C131.181 1374.36 130.741 1374.58 130.081 1374.58C129.841 1374.58 129.481 1374.52 129.261 1374.42L129.041 1375.78ZM146.461 1372V1363.66H148.421V1362.34H146.461V1361.6C146.461 1360.36 147.001 1359.7 148.001 1359.7C148.481 1359.7 148.861 1359.88 149.181 1360.16L149.801 1359.2C149.201 1358.64 148.541 1358.46 147.761 1358.46C146.061 1358.46 144.961 1359.62 144.961 1361.6V1362.34H143.361V1363.66H144.961V1372H146.461ZM154.605 1372.24C156.165 1372.24 157.465 1371.7 158.445 1370.74L157.725 1369.76C156.945 1370.56 155.845 1371 154.725 1371C152.645 1371 151.385 1369.48 151.265 1367.66H159.065V1367.28C159.065 1364.38 157.345 1362.1 154.425 1362.1C151.665 1362.1 149.665 1364.36 149.665 1367.16C149.665 1370.18 151.725 1372.24 154.605 1372.24ZM157.585 1366.54H151.245C151.325 1365.08 152.345 1363.34 154.405 1363.34C156.605 1363.34 157.565 1365.12 157.585 1366.54ZM165.874 1372.24C167.434 1372.24 168.734 1371.7 169.714 1370.74L168.994 1369.76C168.214 1370.56 167.114 1371 165.994 1371C163.914 1371 162.654 1369.48 162.534 1367.66H170.334V1367.28C170.334 1364.38 168.614 1362.1 165.694 1362.1C162.934 1362.1 160.934 1364.36 160.934 1367.16C160.934 1370.18 162.994 1372.24 165.874 1372.24ZM168.854 1366.54H162.514C162.594 1365.08 163.614 1363.34 165.674 1363.34C167.874 1363.34 168.834 1365.12 168.854 1366.54ZM181.264 1372V1358.66H179.764V1363.8C178.984 1362.74 177.804 1362.1 176.504 1362.1C173.984 1362.1 172.204 1364.08 172.204 1367.18C172.204 1370.32 173.984 1372.24 176.504 1372.24C177.864 1372.24 179.044 1371.54 179.764 1370.56V1372H181.264ZM176.884 1370.9C174.924 1370.9 173.764 1369.32 173.764 1367.18C173.764 1365.04 174.924 1363.44 176.884 1363.44C178.064 1363.44 179.244 1364.16 179.764 1365V1369.36C179.244 1370.2 178.064 1370.9 176.884 1370.9ZM185.768 1369.38V1365C186.288 1364.16 187.468 1363.44 188.668 1363.44C190.608 1363.44 191.768 1365.04 191.768 1367.18C191.768 1369.32 190.608 1370.9 188.668 1370.9C187.468 1370.9 186.288 1370.22 185.768 1369.38ZM185.768 1372V1370.56C186.488 1371.54 187.668 1372.24 189.028 1372.24C191.548 1372.24 193.328 1370.32 193.328 1367.18C193.328 1364.08 191.568 1362.1 189.028 1362.1C187.728 1362.1 186.548 1362.74 185.768 1363.8V1358.66H184.268V1372H185.768ZM203.311 1372V1365.36C203.311 1363.02 201.631 1362.1 199.571 1362.1C197.991 1362.1 196.751 1362.62 195.711 1363.7L196.411 1364.74C197.271 1363.8 198.211 1363.4 199.371 1363.4C200.771 1363.4 201.811 1364.14 201.811 1365.42V1367.16C201.031 1366.28 199.931 1365.86 198.611 1365.86C196.971 1365.86 195.251 1366.86 195.251 1369.04C195.251 1371.14 196.991 1372.24 198.611 1372.24C199.911 1372.24 201.031 1371.78 201.811 1370.9V1372H203.311ZM199.171 1371.16C197.751 1371.16 196.771 1370.28 196.771 1369.04C196.771 1367.82 197.751 1366.94 199.171 1366.94C200.211 1366.94 201.231 1367.34 201.811 1368.12V1369.96C201.231 1370.76 200.211 1371.16 199.171 1371.16ZM210.598 1372.24C212.358 1372.24 213.398 1371.52 214.138 1370.56L213.138 1369.64C212.498 1370.5 211.678 1370.9 210.678 1370.9C208.638 1370.9 207.338 1369.3 207.338 1367.16C207.338 1365.02 208.638 1363.44 210.678 1363.44C211.678 1363.44 212.498 1363.8 213.138 1364.68L214.138 1363.78C213.398 1362.82 212.358 1362.1 210.598 1362.1C207.718 1362.1 205.778 1364.3 205.778 1367.16C205.778 1370.02 207.718 1372.24 210.598 1372.24ZM224.76 1372L220.46 1366.72L224.74 1362.34H222.84L217.76 1367.48V1358.66H216.26V1372H217.76V1369.24L219.38 1367.66L222.84 1372H224.76Z" fill="white"/>
<circle cx="53" cy="336" r="11" fill="#D94FD5"/>
<circle cx="66" cy="551" r="11" fill="white"/>
<circle cx="64" cy="819" r="11" fill="white"/>
<circle cx="130" cy="1033" r="11" fill="white"/>
<circle cx="58" cy="1242" r="11" fill="white"/>
<defs>
<linearGradient id="paint0_linear_508_3" x1="-421.222" y1="654.709" x2="447.426" y2="878.81" gradientUnits="userSpaceOnUse">
<stop stop-color="#C54A92"/>
<stop offset="1" stop-color="#2E62EB"/>
</linearGradient>
</defs>
</svg>
