<svg width="42" height="37" viewBox="0 0 42 37" fill="none" xmlns="http://www.w3.org/2000/svg">
<path fill-rule="evenodd" clip-rule="evenodd" d="M4.09859 2.70361C2.38729 2.70361 1 4.0909 1 5.8022V33.5644C1 35.2757 2.38729 36.6629 4.09859 36.6629H31.8607C33.572 36.6629 34.9593 35.2757 34.9593 33.5644V5.8022C34.9593 4.0909 33.572 2.70361 31.8607 2.70361H4.09859ZM20.8367 29.3695C22.4335 29.3649 23.9507 28.6643 24.9992 27.4473L34.9588 16.0046V8.64684C34.9588 4.11893 31.2335 3.04527 31.2335 3.04527C28.3821 5.70535 26.2795 8.04448 24.222 10.3335C22.9164 11.786 21.6289 13.2183 20.1798 14.6997L17.4887 11.4968C15.4667 9.17646 11.9661 8.95193 9.66998 10.9953C7.37385 13.0386 7.15166 16.576 9.17371 18.8963L16.6635 27.4712C17.7188 28.6821 19.2399 29.3741 20.8367 29.3695Z" fill="url(#paint0_linear_1_83)"/>
<path d="M24.9992 27.4473L24.8106 27.2832L24.8098 27.2842L24.9992 27.4473ZM20.8367 29.3695L20.836 29.1195L20.8367 29.3695ZM34.9588 16.0046L35.1474 16.1687L35.2088 16.0982V16.0046H34.9588ZM31.2335 3.04527L31.3027 2.80505L31.1666 2.7658L31.063 2.86247L31.2335 3.04527ZM24.222 10.3335L24.4079 10.5007L24.222 10.3335ZM20.1798 14.6997L19.9883 14.8605L20.1657 15.0715L20.3585 14.8745L20.1798 14.6997ZM17.4887 11.4968L17.6802 11.3359L17.6772 11.3325L17.4887 11.4968ZM9.66998 10.9953L9.50378 10.8085L9.66998 10.9953ZM9.17371 18.8963L8.98523 19.0606L8.98542 19.0608L9.17371 18.8963ZM16.6635 27.4712L16.852 27.3069L16.8518 27.3067L16.6635 27.4712ZM1.25 5.8022C1.25 4.22897 2.52536 2.95361 4.09859 2.95361V2.45361C2.24922 2.45361 0.75 3.95283 0.75 5.8022H1.25ZM1.25 33.5644V5.8022H0.75V33.5644H1.25ZM4.09859 36.4129C2.52536 36.4129 1.25 35.1376 1.25 33.5644H0.75C0.75 35.4137 2.24921 36.9129 4.09859 36.9129V36.4129ZM31.8607 36.4129H4.09859V36.9129H31.8607V36.4129ZM34.7093 33.5644C34.7093 35.1376 33.434 36.4129 31.8607 36.4129V36.9129C33.7101 36.9129 35.2093 35.4137 35.2093 33.5644H34.7093ZM34.7093 5.8022V33.5644H35.2093V5.8022H34.7093ZM31.8607 2.95361C33.434 2.95361 34.7093 4.22897 34.7093 5.8022H35.2093C35.2093 3.95283 33.7101 2.45361 31.8607 2.45361V2.95361ZM4.09859 2.95361H31.8607V2.45361H4.09859V2.95361ZM24.8098 27.2842C23.8083 28.4466 22.3598 29.1151 20.836 29.1195L20.8374 29.6195C22.5072 29.6147 24.0931 28.8821 25.1886 27.6105L24.8098 27.2842ZM34.7702 15.8405L24.8106 27.2832L25.1878 27.6115L35.1474 16.1687L34.7702 15.8405ZM34.7088 8.64684V16.0046H35.2088V8.64684H34.7088ZM31.2335 3.04527C31.1643 3.28549 31.1642 3.28546 31.1641 3.28543C31.164 3.28542 31.1639 3.2854 31.1639 3.28539C31.1639 3.28537 31.1638 3.28537 31.1639 3.28538C31.164 3.28541 31.1643 3.2855 31.1648 3.28566C31.1659 3.28598 31.1679 3.28656 31.1706 3.28742C31.1762 3.28914 31.1852 3.29195 31.1973 3.29593C31.2215 3.30388 31.2582 3.31649 31.3058 3.33433C31.4009 3.37 31.5389 3.42647 31.7054 3.5082C32.0389 3.67187 32.4843 3.93556 32.9293 4.33429C33.8139 5.12681 34.7088 6.46186 34.7088 8.64684H35.2088C35.2088 6.30391 34.241 4.83817 33.263 3.96189C32.7767 3.52622 32.2907 3.23849 31.9257 3.05935C31.743 2.96968 31.59 2.90689 31.4814 2.86617C31.427 2.84579 31.3838 2.83092 31.3534 2.82093C31.3382 2.81594 31.3263 2.81217 31.3177 2.80955C31.3135 2.80824 31.3101 2.80721 31.3076 2.80647C31.3063 2.80609 31.3053 2.80579 31.3045 2.80555C31.3041 2.80543 31.3037 2.80533 31.3034 2.80525C31.3033 2.80521 31.3031 2.80515 31.303 2.80513C31.3029 2.80509 31.3027 2.80505 31.2335 3.04527ZM24.4079 10.5007C26.4654 8.21163 28.5615 5.87988 31.404 3.22807L31.063 2.86247C28.2027 5.53082 26.0936 7.87733 24.036 10.1664L24.4079 10.5007ZM20.3585 14.8745C21.8118 13.3888 23.1027 11.9527 24.4079 10.5007L24.036 10.1664C22.73 11.6193 21.4459 13.0478 20.001 14.5248L20.3585 14.8745ZM17.2973 11.6576L19.9883 14.8605L20.3712 14.5388L17.6801 11.3359L17.2973 11.6576ZM9.83618 11.182C12.0282 9.23136 15.3694 9.44533 17.3002 11.661L17.6772 11.3325C15.564 8.9076 11.9041 8.6725 9.50378 10.8085L9.83618 11.182ZM9.36218 18.7321C7.42998 16.5149 7.64267 13.134 9.83618 11.182L9.50378 10.8085C7.10504 12.9431 6.87334 16.6372 8.98523 19.0606L9.36218 18.7321ZM16.8518 27.3067L9.36199 18.7319L8.98542 19.0608L16.4752 27.6356L16.8518 27.3067ZM20.836 29.1195C19.3122 29.1238 17.86 28.4636 16.852 27.3069L16.4751 27.6354C17.5777 28.9007 19.1676 29.6243 20.8374 29.6195L20.836 29.1195Z" fill="black"/>
<path fill-rule="evenodd" clip-rule="evenodd" d="M39.9931 1.83244C41.4392 3.06057 41.5908 5.19969 40.3318 6.61031L22.7295 25.4096C22.0724 26.1458 21.1217 26.5696 20.121 26.5724C19.1203 26.5751 18.1671 26.1566 17.5058 25.424L10.7355 17.6526C9.46837 16.2489 9.60761 14.109 11.0465 12.8729C12.4855 11.6368 14.6792 11.7726 15.9463 13.1763L20.0963 18.0452L35.0951 2.16285C36.3541 0.752241 38.547 0.604311 39.9931 1.83244Z" fill="url(#paint1_linear_1_83)" stroke="black" stroke-width="0.5"/>
<defs>
<linearGradient id="paint0_linear_1_83" x1="4.14784" y1="-0.37535" x2="47.7048" y2="13.5387" gradientUnits="userSpaceOnUse">
<stop stop-color="#C54A92"/>
<stop offset="1" stop-color="#2E62EB"/>
</linearGradient>
<linearGradient id="paint1_linear_1_83" x1="12.6387" y1="2.66706" x2="45.6448" y2="15.6375" gradientUnits="userSpaceOnUse">
<stop stop-color="#C54A92"/>
<stop offset="1" stop-color="#2E62EB"/>
</linearGradient>
</defs>
</svg>
