<svg width="55" height="36" viewBox="0 0 55 36" fill="none" xmlns="http://www.w3.org/2000/svg">
<path d="M36.9986 1H29.885C29.2225 1 28.5848 1.26553 28.0963 1.74348L19.9558 9.70934C19.9475 9.71819 19.9392 9.73589 19.9309 9.74474C18.5563 11.1255 18.5811 13.3294 19.757 14.7013C20.8088 15.9316 23.0198 16.259 24.4028 14.9403C24.4111 14.9314 24.4277 14.9314 24.4359 14.9226L31.0527 8.44365C31.5909 7.92145 32.4356 7.95685 32.9242 8.53216C33.4211 9.10748 33.3797 10.0014 32.8414 10.5325L30.68 12.6479L42.7375 23.1097C42.9777 23.3221 43.193 23.5522 43.3917 23.7912V6.66461L38.8702 1.83199C38.3816 1.30093 37.7025 1 36.9986 1ZM46.05 6.68231V26.4996C46.05 28.0662 47.2342 29.3319 48.7 29.3319H54V6.68231H46.05ZM50.025 26.4996C49.2963 26.4996 48.7 25.8623 48.7 25.0835C48.7 24.3046 49.2963 23.6673 50.025 23.6673C50.7538 23.6673 51.35 24.3046 51.35 25.0835C51.35 25.8623 50.7538 26.4996 50.025 26.4996ZM1 29.3231H6.3C7.76578 29.3231 8.95 28.0574 8.95 26.4908V6.68231H1V29.3231ZM4.975 23.6673C5.70375 23.6673 6.3 24.3046 6.3 25.0835C6.3 25.8623 5.70375 26.4996 4.975 26.4996C4.24625 26.4996 3.65 25.8623 3.65 25.0835C3.65 24.2957 4.24625 23.6673 4.975 23.6673ZM41.073 25.3136L28.7091 14.5862L26.2247 17.0202C23.7652 19.4188 19.9972 19.1887 17.8027 16.6308C15.575 14.0286 15.7489 10.0014 18.167 7.62937L24.9411 1H18.0014C17.2975 1 16.6267 1.30093 16.1298 1.83199L11.6 6.66461V26.4819H13.1155L20.61 33.7308C22.8791 35.7046 26.2164 35.3329 28.0631 32.9077L28.0797 32.89L29.562 34.2619C30.8787 35.4125 32.8248 35.1912 33.8931 33.7839L36.4934 30.3675L36.9406 30.7569C38.0752 31.7394 39.748 31.5624 40.6672 30.3409L41.4539 29.3054C42.3814 28.0839 42.2075 26.3049 41.073 25.3136Z" fill="url(#paint0_linear_1_82)" stroke="black" stroke-width="0.5"/>
<defs>
<linearGradient id="paint0_linear_1_82" x1="5.9128" y1="-2.08265" x2="65.9433" y2="27.81" gradientUnits="userSpaceOnUse">
<stop stop-color="#C54A92"/>
<stop offset="1" stop-color="#2E62EB"/>
</linearGradient>
</defs>
</svg>
