<svg width="45" height="49" viewBox="0 0 45 49" fill="none" xmlns="http://www.w3.org/2000/svg">
<path d="M35.67 16.5833C35.67 25.1808 29.5903 26.516 29.5903 34.5287C29.5903 38.6652 25.7929 39.0137 22.9025 39.0137C20.4062 39.0137 14.8943 37.9736 14.8943 34.526C14.8943 26.5174 8.91913 25.1821 8.91913 16.5833C8.91913 8.53059 15.3454 2.00269 22.3955 2.00269C29.448 2.00269 35.67 8.53059 35.67 16.5833Z" fill="url(#paint0_linear_1_88)" stroke="black" stroke-width="0.5"/>
<path d="M27.3638 45.21C27.3638 46.3155 24.6474 48.548 22.2969 48.548C19.9465 48.548 17.2301 46.3155 17.2301 45.21C17.2301 44.1044 19.9453 44.5424 22.2969 44.5424C24.6474 44.5424 27.3638 44.1044 27.3638 45.21Z" fill="url(#paint1_linear_1_88)" stroke="black" stroke-width="0.5"/>
<path d="M28.0153 15.5587C27.9025 15.4346 27.7685 15.3362 27.621 15.269C27.4735 15.2018 27.3153 15.1672 27.1556 15.1672C26.9959 15.1672 26.8378 15.2018 26.6903 15.269C26.5428 15.3362 26.4088 15.4346 26.296 15.5587L22.2918 19.9556L18.2877 15.5587C18.1748 15.4348 18.0408 15.3364 17.8933 15.2693C17.7458 15.2022 17.5877 15.1677 17.428 15.1677C17.2684 15.1677 17.1103 15.2022 16.9628 15.2693C16.8153 15.3364 16.6813 15.4348 16.5684 15.5587C16.4555 15.6827 16.3659 15.8299 16.3048 15.9918C16.2437 16.1538 16.2123 16.3274 16.2123 16.5027C16.2123 16.678 16.2437 16.8516 16.3048 17.0136C16.3659 17.1756 16.4555 17.3228 16.5684 17.4467L21.0759 22.3964V36.5311C21.0759 36.8852 21.204 37.2248 21.432 37.4752C21.6601 37.7256 21.9694 37.8663 22.2918 37.8663C22.6143 37.8663 22.9236 37.7256 23.1516 37.4752C23.3797 37.2248 23.5078 36.8852 23.5078 36.5311V22.3964L28.0153 17.4467C28.1283 17.3228 28.218 17.1757 28.2792 17.0137C28.3403 16.8517 28.3718 16.6781 28.3718 16.5027C28.3718 16.3274 28.3403 16.1537 28.2792 15.9917C28.218 15.8298 28.1283 15.6826 28.0153 15.5587Z" fill="black"/>
<path d="M30.6 41.7408C30.6 42.2221 30.3471 42.6838 29.897 43.0241C29.4469 43.3644 28.8365 43.5556 28.2 43.5556H18.6C17.9635 43.5556 17.353 43.3644 16.9029 43.0241C16.4528 42.6838 16.2 42.2221 16.2 41.7408V36.2964H30.6V41.7408Z" fill="#09010E"/>
<path d="M14.9927 44.5415C14.6882 44.5402 14.3952 44.4136 14.1717 44.1866C13.9481 43.9596 13.8102 43.6487 13.7853 43.3155C13.7604 42.9822 13.8503 42.6509 14.0371 42.3869C14.224 42.1229 14.4943 41.9455 14.7945 41.8897L29.3859 39.2193C29.5434 39.1895 29.7048 39.1944 29.8606 39.2335C30.0164 39.2727 30.1636 39.3454 30.2937 39.4475C30.4238 39.5496 30.5341 39.679 30.6183 39.8282C30.7025 39.9774 30.7589 40.1435 30.7842 40.3168C30.8105 40.4897 30.8055 40.6666 30.7695 40.8374C30.7334 41.0082 30.6671 41.1695 30.5743 41.3121C30.4815 41.4547 30.364 41.5758 30.2285 41.6685C30.093 41.7612 29.9422 41.8237 29.7847 41.8523L15.1933 44.5228C15.1271 44.5356 15.0599 44.5418 14.9927 44.5415ZM14.9927 39.2006C14.6882 39.1993 14.3952 39.0727 14.1717 38.8457C13.9481 38.6187 13.8102 38.3078 13.7853 37.9746C13.7604 37.6414 13.8503 37.31 14.0371 37.046C14.224 36.782 14.4943 36.6046 14.7945 36.5488L29.3859 33.8784C29.5434 33.8488 29.7047 33.8538 29.8605 33.893C30.0162 33.9323 30.1634 34.005 30.2934 34.1071C30.4234 34.2091 30.5337 34.3385 30.618 34.4876C30.7022 34.6367 30.7587 34.8027 30.7842 34.9759C30.8105 35.1488 30.8055 35.3257 30.7695 35.4965C30.7334 35.6673 30.6671 35.8286 30.5743 35.9712C30.4815 36.1138 30.364 36.2349 30.2285 36.3276C30.093 36.4203 29.9422 36.4828 29.7847 36.5114L15.1933 39.1819C15.1271 39.1947 15.0599 39.2009 14.9927 39.2006Z" fill="url(#paint2_linear_1_88)" stroke="black" stroke-width="0.5"/>
<defs>
<linearGradient id="paint0_linear_1_88" x1="11.3988" y1="-1.35296" x2="47.2975" y2="6.93565" gradientUnits="userSpaceOnUse">
<stop stop-color="#C54A92"/>
<stop offset="1" stop-color="#2E62EB"/>
</linearGradient>
<linearGradient id="paint1_linear_1_88" x1="18.1694" y1="44.0858" x2="21.378" y2="50.7149" gradientUnits="userSpaceOnUse">
<stop stop-color="#C54A92"/>
<stop offset="1" stop-color="#2E62EB"/>
</linearGradient>
<linearGradient id="paint2_linear_1_88" x1="15.3589" y1="32.8909" x2="25.6226" y2="46.5309" gradientUnits="userSpaceOnUse">
<stop stop-color="#C54A92"/>
<stop offset="1" stop-color="#2E62EB"/>
</linearGradient>
</defs>
</svg>
