<svg width="49" height="49" viewBox="0 0 49 49" fill="none" xmlns="http://www.w3.org/2000/svg">
<path d="M28.5608 24.4242C28.178 26.1086 29.2499 27.8695 31.0108 28.2523C32.7717 28.6352 34.5327 27.5633 34.9155 25.8789L39.5858 5.81953C39.9686 4.13516 38.8967 2.37422 37.1358 1.99141C35.3749 1.6086 33.6139 2.68047 33.2311 4.36485L28.5608 24.4242Z" fill="url(#paint0_linear_1_68)" stroke="black" stroke-width="0.5"/>
<path d="M34.6098 26.4132C34.6098 26.4132 27.9489 19.8288 16.1583 23.121C16.1583 23.121 9.19109 24.346 9.5739 27.8679C9.5739 27.8679 9.34421 36.596 12.3302 41.8023C16.0206 48.1199 29.3367 49.1979 35.9693 41.8023C37.4552 40.1455 37.3144 38.6567 38.1131 36.0364C38.1131 33.2888 38.1131 26.8778 34.6098 26.4132Z" fill="url(#paint1_linear_1_68)" stroke="black" stroke-width="0.5"/>
<path d="M22.7398 25.5715C23.046 27.3325 24.8069 28.4043 26.5679 28.0981C28.3288 27.7918 29.5538 26.1075 29.2476 24.3465L25.4194 4.13401C25.1132 2.37307 23.3523 1.3012 21.5913 1.60745C19.8304 1.9137 18.6054 3.59807 18.9882 5.35901L22.7398 25.5715Z" fill="url(#paint2_linear_1_68)"/>
<path d="M22.7398 25.5715C23.046 27.3325 24.8069 28.4043 26.5679 28.0981C28.3288 27.7918 29.5538 26.1075 29.2476 24.3465L25.4194 4.13401C25.1132 2.37307 23.3523 1.3012 21.5913 1.60745C19.8304 1.9137 18.6054 3.59807 18.9882 5.35901L22.7398 25.5715" stroke="black" stroke-width="0.5"/>
<path d="M9.19336 24.5774C8.96367 22.8165 10.2652 21.2086 12.1027 20.979H12.1793C13.9402 20.8258 15.6246 22.0508 15.7777 23.8883L16.3137 28.8649C16.5434 30.6258 15.2418 32.2336 13.4043 32.4633H13.3277C11.4902 32.6165 9.88242 31.3915 9.7293 29.554L9.19336 24.5774Z" fill="url(#paint3_linear_1_68)"/>
<path d="M9.19336 24.5774C8.96367 22.8165 10.2652 21.2086 12.1027 20.979H12.1793C13.9402 20.8258 15.6246 22.0508 15.7777 23.8883L16.3137 28.8649C16.5434 30.6258 15.2418 32.2336 13.4043 32.4633H13.3277C11.4902 32.6165 9.88242 31.3915 9.7293 29.554L9.19336 24.5774" stroke="black" stroke-width="0.5"/>
<path d="M15.3883 20.979C15.1586 19.2181 16.4602 17.6103 18.2977 17.3806H18.3743C20.2118 17.2274 21.8196 18.4524 21.9727 20.2899L22.5086 25.2665C22.7383 27.0274 21.4368 28.6353 19.5993 28.8649H19.5227C17.6852 29.0181 16.0774 27.7931 15.9243 25.9556L15.3883 20.979Z" fill="url(#paint4_linear_1_68)"/>
<path d="M15.3883 20.979C15.1586 19.2181 16.4602 17.6103 18.2977 17.3806H18.3743C20.2118 17.2274 21.8196 18.4524 21.9727 20.2899L22.5086 25.2665C22.7383 27.0274 21.4368 28.6353 19.5993 28.8649H19.5227C17.6852 29.0181 16.0774 27.7931 15.9243 25.9556L15.3883 20.979" stroke="black" stroke-width="0.5"/>
<path d="M12.3132 31.3925C14.1507 31.1628 15.3757 29.6316 15.2225 27.794L14.6866 22.8175C14.6101 22.3581 14.3804 21.8222 14.1507 21.3628C15.2991 21.8987 15.6819 22.8175 15.8351 23.8894L16.371 28.8659C16.6007 30.6269 15.2991 32.2347 13.5382 32.3878C12.2366 32.5409 11.0116 31.8519 10.3991 30.8566C10.8585 31.2394 11.5475 31.4691 12.3132 31.3925Z" fill="black"/>
<path d="M18.428 27.7937C20.2655 27.564 21.5671 26.0328 21.3374 24.2718L20.8015 19.2953C20.7249 18.8359 20.4952 18.2234 20.2655 17.8406C21.3374 18.4531 21.7968 19.3718 21.9499 20.4437L22.4858 25.4203C22.7155 27.1812 21.414 28.7125 19.5765 28.9421H19.4999C18.1983 29.0953 16.9733 28.4062 16.3608 27.4109C16.9733 27.7171 17.6624 27.8703 18.428 27.7937Z" fill="black"/>
<path d="M31.6877 31.2385C28.0127 29.4775 19.6673 32.54 21.3517 40.1963C21.3517 32.2338 28.5486 30.8556 31.6877 31.2385Z" fill="black"/>
<path d="M30.3001 23.3525C27.6204 21.7447 27.161 24.2713 22.6439 24.4244C20.6532 24.5009 19.811 28.5588 22.797 30.0134C26.9314 32.0806 27.2376 29.1712 28.3095 30.3197C29.3814 31.5447 30.3767 31.7744 31.2954 33.1525C31.9845 34.1478 37.1142 32.6166 37.6501 30.5494C38.6454 26.4916 34.4345 25.8791 30.3001 23.3525Z" fill="black"/>
<path d="M30.6261 24.0415C27.8699 22.4337 27.3339 24.9602 22.6636 25.1133C20.5964 25.1899 19.6777 29.4008 22.8168 30.9321C27.1043 33.0758 27.4871 30.0133 28.4824 31.2383C29.6308 32.4633 30.6261 32.7696 31.6214 34.2243C32.3105 35.2962 30.473 39.2774 30.473 39.2774C30.473 39.2774 35.7558 43.029 36.8277 40.8852C38.8183 36.904 38.2824 33.8415 38.2058 31.5446C38.0527 26.1087 34.9902 26.6446 30.6261 24.0415Z" fill="url(#paint5_linear_1_68)"/>
<path d="M30.6261 24.0415C27.8699 22.4337 27.3339 24.9602 22.6636 25.1133C20.5964 25.1899 19.6777 29.4008 22.8168 30.9321C27.1043 33.0758 27.4871 30.0133 28.4824 31.2383C29.6308 32.4633 30.6261 32.7696 31.6214 34.2243C32.3105 35.2962 30.473 39.2774 30.473 39.2774C30.473 39.2774 35.7558 43.029 36.8277 40.8852C38.8183 36.904 38.2824 33.8415 38.2058 31.5446C38.0527 26.1087 34.9902 26.6446 30.6261 24.0415" stroke="black" stroke-width="0.5"/>
<defs>
<linearGradient id="paint0_linear_1_68" x1="29.5197" y1="-0.481231" x2="45.0387" y2="1.61687" gradientUnits="userSpaceOnUse">
<stop stop-color="#C54A92"/>
<stop offset="1" stop-color="#2E62EB"/>
</linearGradient>
<linearGradient id="paint1_linear_1_68" x1="12.283" y1="19.9085" x2="48.7858" y2="33.4725" gradientUnits="userSpaceOnUse">
<stop stop-color="#C54A92"/>
<stop offset="1" stop-color="#2E62EB"/>
</linearGradient>
<linearGradient id="paint2_linear_1_68" x1="19.8798" y1="-0.855819" x2="34.3228" y2="0.944364" gradientUnits="userSpaceOnUse">
<stop stop-color="#C54A92"/>
<stop offset="1" stop-color="#2E62EB"/>
</linearGradient>
<linearGradient id="paint3_linear_1_68" x1="9.83197" y1="19.9225" x2="19.5844" y2="21.8639" gradientUnits="userSpaceOnUse">
<stop stop-color="#C54A92"/>
<stop offset="1" stop-color="#2E62EB"/>
</linearGradient>
<linearGradient id="paint4_linear_1_68" x1="16.0269" y1="16.3241" x2="25.7793" y2="18.2655" gradientUnits="userSpaceOnUse">
<stop stop-color="#C54A92"/>
<stop offset="1" stop-color="#2E62EB"/>
</linearGradient>
<linearGradient id="paint5_linear_1_68" x1="22.4043" y1="21.8728" x2="45.0271" y2="28.9042" gradientUnits="userSpaceOnUse">
<stop stop-color="#C54A92"/>
<stop offset="1" stop-color="#2E62EB"/>
</linearGradient>
</defs>
</svg>
